M48
; DRILL file KiCad 10.0.6 date 2026-09-09T21:17:35
; FORMAT={-:-/ absolute / metric / decimal}
; #@! TF.CreationDate,2026-09-09T21:17:35+05:30
; #@! TF.GenerationSoftware,Kicad,Pcbnew,10.0.6
; #@! TF.FileFunction,Plated,1,2,PTH
FMAT,2
METRIC
; #@! TA.AperFunction,Plated,PTH,ViaDrill
T1C0.300
; #@! TA.AperFunction,Plated,PTH,ComponentDrill
T2C0.950
; #@! TA.AperFunction,Plated,PTH,ComponentDrill
T3C1.000
%
G90
G05
T1
X22.631Y-24.05
X25.773Y-22.166
X34.056Y-25.635
X34.323Y-24.405
X37.957Y-28.124
X77.172Y-36.886
X82.594Y-39.249
X83.087Y-46.666
X89.671Y-42.087
X92.338Y-43.486
X97.836Y-49.336
X99.131Y-27.079
X101.268Y-26.087
T2
X9.0Y-20.0
X11.5Y-20.0
X14.0Y-20.0
X16.5Y-20.0
X92.0Y-17.0
X94.5Y-17.0
X97.0Y-17.0
X99.0Y-58.0
X99.5Y-17.0
X101.5Y-58.0
X102.0Y-17.0
X104.0Y-58.0
X104.5Y-17.0
X106.5Y-58.0
X107.0Y-17.0
T3
X60.0Y-20.0
X60.0Y-22.54
X60.0Y-25.08
X60.0Y-27.62
X60.0Y-30.16
X60.0Y-32.7
X60.0Y-35.24
X60.0Y-37.78
X62.54Y-20.0
X62.54Y-22.54
X62.54Y-25.08
X62.54Y-27.62
X62.54Y-30.16
X62.54Y-32.7
X62.54Y-35.24
X62.54Y-37.78
X65.0Y-67.0
X67.5Y-67.0
X96.0Y-69.0
X98.5Y-69.0
M30
