M48
; DRILL file KiCad 10.0.6 date 2026-09-27T23:27:42
; FORMAT={-:-/ absolute / metric / decimal}
; #@! TF.CreationDate,2026-09-27T23:27:42+05:30
; #@! TF.GenerationSoftware,Kicad,Pcbnew,10.0.6
; #@! TF.FileFunction,Plated,1,2,PTH
FMAT,2
METRIC
; #@! TA.AperFunction,Plated,PTH,ComponentDrill
T1C0.200
; #@! TA.AperFunction,Plated,PTH,ViaDrill
T2C0.300
; #@! TA.AperFunction,Plated,PTH,ViaDrill
T3C0.600
; #@! TA.AperFunction,Plated,PTH,ComponentDrill
T4C0.800
; #@! TA.AperFunction,Plated,PTH,ComponentDrill
T5C0.950
; #@! TA.AperFunction,Plated,PTH,ComponentDrill
T6C1.000
; #@! TA.AperFunction,Plated,PTH,ComponentDrill
T7C1.020
; #@! TA.AperFunction,Plated,PTH,ComponentDrill
T8C1.700
%
G90
G05
T1
X122.0Y-77.2
X122.0Y-78.4
X122.0Y-79.6
X122.0Y-80.8
X123.0Y-77.2
X123.0Y-78.4
X123.0Y-79.6
X123.0Y-80.8
X124.0Y-77.2
X124.0Y-78.4
X124.0Y-79.6
X124.0Y-80.8
T2
X40.865Y-13.412
X60.633Y-11.731
X62.09Y-15.09
X70.294Y-14.308
X78.803Y-14.981
X78.891Y-13.796
X82.912Y-28.912
X83.159Y-57.876
X83.299Y-22.358
X85.977Y-76.936
X86.023Y-75.064
X86.057Y-53.388
X87.731Y-77.065
X87.961Y-56.199
X88.012Y-41.924
X89.065Y-77.848
X90.087Y-82.25
X90.811Y-57.876
X91.001Y-80.089
X91.885Y-52.625
X92.014Y-55.977
X92.15Y-50.062
X92.167Y-64.08
X92.567Y-73.177
X93.755Y-15.449
X94.493Y-73.002
X95.34Y-52.24
X95.973Y-46.43
X99.481Y-60.466
X102.666Y-84.68
X106.587Y-42.649
X111.403Y-35.996
X113.0Y-75.5
X113.0Y-82.5
X120.137Y-82.029
X121.896Y-75.252
X124.587Y-66.257
X125.862Y-84.7
X126.679Y-74.702
X130.136Y-43.981
X131.0Y-76.1
X131.153Y-30.936
X132.324Y-42.649
X132.8Y-79.325
X133.166Y-48.204
X133.197Y-43.089
X133.912Y-65.252
X135.088Y-59.255
X136.363Y-42.392
X137.105Y-29.268
X138.012Y-45.495
X138.022Y-30.352
X138.36Y-91.182
X139.475Y-49.663
X141.694Y-40.534
T3
X114.2Y-80.025
X115.2Y-78.675
X118.7Y-75.5
X118.7Y-82.5
X128.0Y-83.35
X128.325Y-79.325
X133.797Y-89.838
T4
X126.0Y-89.0
X129.5Y-89.0
T5
X18.0Y-11.0
X20.5Y-11.0
X23.0Y-11.0
X25.5Y-11.0
X84.0Y-91.0
X86.5Y-91.0
X89.0Y-91.0
X91.5Y-91.0
X128.0Y-8.0
X130.5Y-8.0
X133.0Y-8.0
X135.0Y-22.0
X135.5Y-8.0
X137.5Y-22.0
X140.0Y-22.0
X142.5Y-22.0
X143.0Y-13.0
X145.0Y-22.0
X145.5Y-13.0
X148.0Y-13.0
X150.5Y-13.0
T6
X86.0Y-8.0
X88.5Y-8.0
X110.0Y-91.0
X112.5Y-91.0
T7
X8.37Y-22.23
X8.37Y-24.77
X10.91Y-22.23
X10.91Y-24.77
X13.45Y-22.23
X13.45Y-24.77
X15.99Y-22.23
X15.99Y-24.77
X18.53Y-22.23
X18.53Y-24.77
X21.07Y-22.23
X21.07Y-24.77
X23.61Y-22.23
X23.61Y-24.77
X26.15Y-22.23
X26.15Y-24.77
X28.69Y-22.23
X28.69Y-24.77
X31.23Y-22.23
X31.23Y-24.77
X33.77Y-22.23
X33.77Y-24.77
X36.31Y-22.23
X36.31Y-24.77
X38.85Y-22.23
X38.85Y-24.77
X41.39Y-22.23
X41.39Y-24.77
X43.93Y-22.23
X43.93Y-24.77
X46.47Y-22.23
X46.47Y-24.77
X49.01Y-22.23
X49.01Y-24.77
X51.55Y-22.23
X51.55Y-24.77
X54.09Y-22.23
X54.09Y-24.77
X56.63Y-22.23
X56.63Y-24.77
X100.27Y-21.096
X100.27Y-23.636
X100.27Y-26.176
X100.27Y-28.716
X100.27Y-31.256
X100.27Y-33.796
X100.27Y-36.336
X100.27Y-38.876
X100.27Y-41.416
X100.27Y-43.956
X100.27Y-46.496
X100.27Y-49.036
X100.27Y-51.576
X100.27Y-54.116
X100.27Y-56.656
X100.27Y-59.196
X100.27Y-61.736
X100.27Y-64.276
X100.27Y-66.816
X123.13Y-21.121
X123.13Y-23.661
X123.13Y-26.201
X123.13Y-28.741
X123.13Y-31.281
X123.13Y-33.821
X123.13Y-36.361
X123.13Y-38.901
X123.13Y-41.441
X123.13Y-43.981
X123.13Y-46.521
X123.13Y-49.061
X123.13Y-51.601
X123.13Y-54.141
X123.13Y-56.681
X123.13Y-59.221
X123.13Y-61.761
X123.13Y-64.301
X123.13Y-66.841
T8
X149.0Y-86.0
X151.0Y-39.04
X151.0Y-43.0
X151.0Y-55.04
X151.0Y-59.0
X152.96Y-86.0
M30
