%TF.GenerationSoftware,KiCad,Pcbnew,10.0.6*%
%TF.CreationDate,2026-09-10T01:25:26+05:30*%
%TF.ProjectId,carrier,63617272-6965-4722-9e6b-696361645f70,rev?*%
%TF.SameCoordinates,Original*%
%TF.FileFunction,Legend,Top*%
%TF.FilePolarity,Positive*%
%FSLAX46Y46*%
G04 Gerber Fmt 4.6, Leading zero omitted, Abs format (unit mm)*
G04 Created by KiCad (PCBNEW 10.0.6) date 2026-09-10 01:25:26*
%MOMM*%
%LPD*%
G01*
G04 APERTURE LIST*
%ADD10C,0.150000*%
%ADD11C,0.120000*%
G04 APERTURE END LIST*
D10*
X26333333Y-29454819D02*
X26333333Y-28454819D01*
X26333333Y-28454819D02*
X26714285Y-28454819D01*
X26714285Y-28454819D02*
X26809523Y-28502438D01*
X26809523Y-28502438D02*
X26857142Y-28550057D01*
X26857142Y-28550057D02*
X26904761Y-28645295D01*
X26904761Y-28645295D02*
X26904761Y-28788152D01*
X26904761Y-28788152D02*
X26857142Y-28883390D01*
X26857142Y-28883390D02*
X26809523Y-28931009D01*
X26809523Y-28931009D02*
X26714285Y-28978628D01*
X26714285Y-28978628D02*
X26333333Y-28978628D01*
X27333333Y-29454819D02*
X27333333Y-28454819D01*
X29047618Y-28454819D02*
X28571428Y-28454819D01*
X28571428Y-28454819D02*
X28523809Y-28931009D01*
X28523809Y-28931009D02*
X28571428Y-28883390D01*
X28571428Y-28883390D02*
X28666666Y-28835771D01*
X28666666Y-28835771D02*
X28904761Y-28835771D01*
X28904761Y-28835771D02*
X28999999Y-28883390D01*
X28999999Y-28883390D02*
X29047618Y-28931009D01*
X29047618Y-28931009D02*
X29095237Y-29026247D01*
X29095237Y-29026247D02*
X29095237Y-29264342D01*
X29095237Y-29264342D02*
X29047618Y-29359580D01*
X29047618Y-29359580D02*
X28999999Y-29407200D01*
X28999999Y-29407200D02*
X28904761Y-29454819D01*
X28904761Y-29454819D02*
X28666666Y-29454819D01*
X28666666Y-29454819D02*
X28571428Y-29407200D01*
X28571428Y-29407200D02*
X28523809Y-29359580D01*
X30619047Y-28931009D02*
X30761904Y-28978628D01*
X30761904Y-28978628D02*
X30809523Y-29026247D01*
X30809523Y-29026247D02*
X30857142Y-29121485D01*
X30857142Y-29121485D02*
X30857142Y-29264342D01*
X30857142Y-29264342D02*
X30809523Y-29359580D01*
X30809523Y-29359580D02*
X30761904Y-29407200D01*
X30761904Y-29407200D02*
X30666666Y-29454819D01*
X30666666Y-29454819D02*
X30285714Y-29454819D01*
X30285714Y-29454819D02*
X30285714Y-28454819D01*
X30285714Y-28454819D02*
X30619047Y-28454819D01*
X30619047Y-28454819D02*
X30714285Y-28502438D01*
X30714285Y-28502438D02*
X30761904Y-28550057D01*
X30761904Y-28550057D02*
X30809523Y-28645295D01*
X30809523Y-28645295D02*
X30809523Y-28740533D01*
X30809523Y-28740533D02*
X30761904Y-28835771D01*
X30761904Y-28835771D02*
X30714285Y-28883390D01*
X30714285Y-28883390D02*
X30619047Y-28931009D01*
X30619047Y-28931009D02*
X30285714Y-28931009D01*
X31285714Y-28931009D02*
X31619047Y-28931009D01*
X31761904Y-29454819D02*
X31285714Y-29454819D01*
X31285714Y-29454819D02*
X31285714Y-28454819D01*
X31285714Y-28454819D02*
X31761904Y-28454819D01*
X32666666Y-29454819D02*
X32190476Y-29454819D01*
X32190476Y-29454819D02*
X32190476Y-28454819D01*
X33190476Y-28454819D02*
X33380952Y-28454819D01*
X33380952Y-28454819D02*
X33476190Y-28502438D01*
X33476190Y-28502438D02*
X33571428Y-28597676D01*
X33571428Y-28597676D02*
X33619047Y-28788152D01*
X33619047Y-28788152D02*
X33619047Y-29121485D01*
X33619047Y-29121485D02*
X33571428Y-29311961D01*
X33571428Y-29311961D02*
X33476190Y-29407200D01*
X33476190Y-29407200D02*
X33380952Y-29454819D01*
X33380952Y-29454819D02*
X33190476Y-29454819D01*
X33190476Y-29454819D02*
X33095238Y-29407200D01*
X33095238Y-29407200D02*
X33000000Y-29311961D01*
X33000000Y-29311961D02*
X32952381Y-29121485D01*
X32952381Y-29121485D02*
X32952381Y-28788152D01*
X32952381Y-28788152D02*
X33000000Y-28597676D01*
X33000000Y-28597676D02*
X33095238Y-28502438D01*
X33095238Y-28502438D02*
X33190476Y-28454819D01*
X33952381Y-28454819D02*
X34190476Y-29454819D01*
X34190476Y-29454819D02*
X34380952Y-28740533D01*
X34380952Y-28740533D02*
X34571428Y-29454819D01*
X34571428Y-29454819D02*
X34809524Y-28454819D01*
X36666666Y-28407200D02*
X35809524Y-29692914D01*
X38285714Y-29454819D02*
X37714286Y-29454819D01*
X38000000Y-29454819D02*
X38000000Y-28454819D01*
X38000000Y-28454819D02*
X37904762Y-28597676D01*
X37904762Y-28597676D02*
X37809524Y-28692914D01*
X37809524Y-28692914D02*
X37714286Y-28740533D01*
X39142857Y-28454819D02*
X38952381Y-28454819D01*
X38952381Y-28454819D02*
X38857143Y-28502438D01*
X38857143Y-28502438D02*
X38809524Y-28550057D01*
X38809524Y-28550057D02*
X38714286Y-28692914D01*
X38714286Y-28692914D02*
X38666667Y-28883390D01*
X38666667Y-28883390D02*
X38666667Y-29264342D01*
X38666667Y-29264342D02*
X38714286Y-29359580D01*
X38714286Y-29359580D02*
X38761905Y-29407200D01*
X38761905Y-29407200D02*
X38857143Y-29454819D01*
X38857143Y-29454819D02*
X39047619Y-29454819D01*
X39047619Y-29454819D02*
X39142857Y-29407200D01*
X39142857Y-29407200D02*
X39190476Y-29359580D01*
X39190476Y-29359580D02*
X39238095Y-29264342D01*
X39238095Y-29264342D02*
X39238095Y-29026247D01*
X39238095Y-29026247D02*
X39190476Y-28931009D01*
X39190476Y-28931009D02*
X39142857Y-28883390D01*
X39142857Y-28883390D02*
X39047619Y-28835771D01*
X39047619Y-28835771D02*
X38857143Y-28835771D01*
X38857143Y-28835771D02*
X38761905Y-28883390D01*
X38761905Y-28883390D02*
X38714286Y-28931009D01*
X38714286Y-28931009D02*
X38666667Y-29026247D01*
X39666667Y-29359580D02*
X39714286Y-29407200D01*
X39714286Y-29407200D02*
X39666667Y-29454819D01*
X39666667Y-29454819D02*
X39619048Y-29407200D01*
X39619048Y-29407200D02*
X39666667Y-29359580D01*
X39666667Y-29359580D02*
X39666667Y-29454819D01*
X40619047Y-28454819D02*
X40142857Y-28454819D01*
X40142857Y-28454819D02*
X40095238Y-28931009D01*
X40095238Y-28931009D02*
X40142857Y-28883390D01*
X40142857Y-28883390D02*
X40238095Y-28835771D01*
X40238095Y-28835771D02*
X40476190Y-28835771D01*
X40476190Y-28835771D02*
X40571428Y-28883390D01*
X40571428Y-28883390D02*
X40619047Y-28931009D01*
X40619047Y-28931009D02*
X40666666Y-29026247D01*
X40666666Y-29026247D02*
X40666666Y-29264342D01*
X40666666Y-29264342D02*
X40619047Y-29359580D01*
X40619047Y-29359580D02*
X40571428Y-29407200D01*
X40571428Y-29407200D02*
X40476190Y-29454819D01*
X40476190Y-29454819D02*
X40238095Y-29454819D01*
X40238095Y-29454819D02*
X40142857Y-29407200D01*
X40142857Y-29407200D02*
X40095238Y-29359580D01*
X41857143Y-29454819D02*
X41857143Y-28788152D01*
X41857143Y-28883390D02*
X41904762Y-28835771D01*
X41904762Y-28835771D02*
X42000000Y-28788152D01*
X42000000Y-28788152D02*
X42142857Y-28788152D01*
X42142857Y-28788152D02*
X42238095Y-28835771D01*
X42238095Y-28835771D02*
X42285714Y-28931009D01*
X42285714Y-28931009D02*
X42285714Y-29454819D01*
X42285714Y-28931009D02*
X42333333Y-28835771D01*
X42333333Y-28835771D02*
X42428571Y-28788152D01*
X42428571Y-28788152D02*
X42571428Y-28788152D01*
X42571428Y-28788152D02*
X42666667Y-28835771D01*
X42666667Y-28835771D02*
X42714286Y-28931009D01*
X42714286Y-28931009D02*
X42714286Y-29454819D01*
X43190476Y-29454819D02*
X43190476Y-28788152D01*
X43190476Y-28883390D02*
X43238095Y-28835771D01*
X43238095Y-28835771D02*
X43333333Y-28788152D01*
X43333333Y-28788152D02*
X43476190Y-28788152D01*
X43476190Y-28788152D02*
X43571428Y-28835771D01*
X43571428Y-28835771D02*
X43619047Y-28931009D01*
X43619047Y-28931009D02*
X43619047Y-29454819D01*
X43619047Y-28931009D02*
X43666666Y-28835771D01*
X43666666Y-28835771D02*
X43761904Y-28788152D01*
X43761904Y-28788152D02*
X43904761Y-28788152D01*
X43904761Y-28788152D02*
X44000000Y-28835771D01*
X44000000Y-28835771D02*
X44047619Y-28931009D01*
X44047619Y-28931009D02*
X44047619Y-29454819D01*
X45809523Y-28502438D02*
X45714285Y-28454819D01*
X45714285Y-28454819D02*
X45571428Y-28454819D01*
X45571428Y-28454819D02*
X45428571Y-28502438D01*
X45428571Y-28502438D02*
X45333333Y-28597676D01*
X45333333Y-28597676D02*
X45285714Y-28692914D01*
X45285714Y-28692914D02*
X45238095Y-28883390D01*
X45238095Y-28883390D02*
X45238095Y-29026247D01*
X45238095Y-29026247D02*
X45285714Y-29216723D01*
X45285714Y-29216723D02*
X45333333Y-29311961D01*
X45333333Y-29311961D02*
X45428571Y-29407200D01*
X45428571Y-29407200D02*
X45571428Y-29454819D01*
X45571428Y-29454819D02*
X45666666Y-29454819D01*
X45666666Y-29454819D02*
X45809523Y-29407200D01*
X45809523Y-29407200D02*
X45857142Y-29359580D01*
X45857142Y-29359580D02*
X45857142Y-29026247D01*
X45857142Y-29026247D02*
X45666666Y-29026247D01*
X46238095Y-29169104D02*
X46714285Y-29169104D01*
X46142857Y-29454819D02*
X46476190Y-28454819D01*
X46476190Y-28454819D02*
X46809523Y-29454819D01*
X47142857Y-29454819D02*
X47142857Y-28454819D01*
X47142857Y-28454819D02*
X47523809Y-28454819D01*
X47523809Y-28454819D02*
X47619047Y-28502438D01*
X47619047Y-28502438D02*
X47666666Y-28550057D01*
X47666666Y-28550057D02*
X47714285Y-28645295D01*
X47714285Y-28645295D02*
X47714285Y-28788152D01*
X47714285Y-28788152D02*
X47666666Y-28883390D01*
X47666666Y-28883390D02*
X47619047Y-28931009D01*
X47619047Y-28931009D02*
X47523809Y-28978628D01*
X47523809Y-28978628D02*
X47142857Y-28978628D01*
X30261904Y-87454819D02*
X29928571Y-86978628D01*
X29690476Y-87454819D02*
X29690476Y-86454819D01*
X29690476Y-86454819D02*
X30071428Y-86454819D01*
X30071428Y-86454819D02*
X30166666Y-86502438D01*
X30166666Y-86502438D02*
X30214285Y-86550057D01*
X30214285Y-86550057D02*
X30261904Y-86645295D01*
X30261904Y-86645295D02*
X30261904Y-86788152D01*
X30261904Y-86788152D02*
X30214285Y-86883390D01*
X30214285Y-86883390D02*
X30166666Y-86931009D01*
X30166666Y-86931009D02*
X30071428Y-86978628D01*
X30071428Y-86978628D02*
X29690476Y-86978628D01*
X30690476Y-86931009D02*
X31023809Y-86931009D01*
X31166666Y-87454819D02*
X30690476Y-87454819D01*
X30690476Y-87454819D02*
X30690476Y-86454819D01*
X30690476Y-86454819D02*
X31166666Y-86454819D01*
X31452381Y-86454819D02*
X31785714Y-87454819D01*
X31785714Y-87454819D02*
X32119047Y-86454819D01*
X33547619Y-86931009D02*
X33690476Y-86978628D01*
X33690476Y-86978628D02*
X33738095Y-87026247D01*
X33738095Y-87026247D02*
X33785714Y-87121485D01*
X33785714Y-87121485D02*
X33785714Y-87264342D01*
X33785714Y-87264342D02*
X33738095Y-87359580D01*
X33738095Y-87359580D02*
X33690476Y-87407200D01*
X33690476Y-87407200D02*
X33595238Y-87454819D01*
X33595238Y-87454819D02*
X33214286Y-87454819D01*
X33214286Y-87454819D02*
X33214286Y-86454819D01*
X33214286Y-86454819D02*
X33547619Y-86454819D01*
X33547619Y-86454819D02*
X33642857Y-86502438D01*
X33642857Y-86502438D02*
X33690476Y-86550057D01*
X33690476Y-86550057D02*
X33738095Y-86645295D01*
X33738095Y-86645295D02*
X33738095Y-86740533D01*
X33738095Y-86740533D02*
X33690476Y-86835771D01*
X33690476Y-86835771D02*
X33642857Y-86883390D01*
X33642857Y-86883390D02*
X33547619Y-86931009D01*
X33547619Y-86931009D02*
X33214286Y-86931009D01*
X34976191Y-87073866D02*
X35738096Y-87073866D01*
X37547619Y-87454819D02*
X37214286Y-86978628D01*
X36976191Y-87454819D02*
X36976191Y-86454819D01*
X36976191Y-86454819D02*
X37357143Y-86454819D01*
X37357143Y-86454819D02*
X37452381Y-86502438D01*
X37452381Y-86502438D02*
X37500000Y-86550057D01*
X37500000Y-86550057D02*
X37547619Y-86645295D01*
X37547619Y-86645295D02*
X37547619Y-86788152D01*
X37547619Y-86788152D02*
X37500000Y-86883390D01*
X37500000Y-86883390D02*
X37452381Y-86931009D01*
X37452381Y-86931009D02*
X37357143Y-86978628D01*
X37357143Y-86978628D02*
X36976191Y-86978628D01*
X37976191Y-86931009D02*
X38309524Y-86931009D01*
X38452381Y-87454819D02*
X37976191Y-87454819D01*
X37976191Y-87454819D02*
X37976191Y-86454819D01*
X37976191Y-86454819D02*
X38452381Y-86454819D01*
X38738096Y-86454819D02*
X39071429Y-87454819D01*
X39071429Y-87454819D02*
X39404762Y-86454819D01*
X39738096Y-87454819D02*
X39738096Y-86454819D01*
X40214286Y-86931009D02*
X40547619Y-86931009D01*
X40690476Y-87454819D02*
X40214286Y-87454819D01*
X40214286Y-87454819D02*
X40214286Y-86454819D01*
X40214286Y-86454819D02*
X40690476Y-86454819D01*
X41023810Y-86454819D02*
X41261905Y-87454819D01*
X41261905Y-87454819D02*
X41452381Y-86740533D01*
X41452381Y-86740533D02*
X41642857Y-87454819D01*
X41642857Y-87454819D02*
X41880953Y-86454819D01*
X43214286Y-86454819D02*
X43404762Y-86454819D01*
X43404762Y-86454819D02*
X43500000Y-86502438D01*
X43500000Y-86502438D02*
X43595238Y-86597676D01*
X43595238Y-86597676D02*
X43642857Y-86788152D01*
X43642857Y-86788152D02*
X43642857Y-87121485D01*
X43642857Y-87121485D02*
X43595238Y-87311961D01*
X43595238Y-87311961D02*
X43500000Y-87407200D01*
X43500000Y-87407200D02*
X43404762Y-87454819D01*
X43404762Y-87454819D02*
X43214286Y-87454819D01*
X43214286Y-87454819D02*
X43119048Y-87407200D01*
X43119048Y-87407200D02*
X43023810Y-87311961D01*
X43023810Y-87311961D02*
X42976191Y-87121485D01*
X42976191Y-87121485D02*
X42976191Y-86788152D01*
X42976191Y-86788152D02*
X43023810Y-86597676D01*
X43023810Y-86597676D02*
X43119048Y-86502438D01*
X43119048Y-86502438D02*
X43214286Y-86454819D01*
X44071429Y-87454819D02*
X44071429Y-86454819D01*
X44071429Y-86454819D02*
X44642857Y-87454819D01*
X44642857Y-87454819D02*
X44642857Y-86454819D01*
X45595238Y-87454819D02*
X45119048Y-87454819D01*
X45119048Y-87454819D02*
X45119048Y-86454819D01*
X46119048Y-86978628D02*
X46119048Y-87454819D01*
X45785715Y-86454819D02*
X46119048Y-86978628D01*
X46119048Y-86978628D02*
X46452381Y-86454819D01*
X30285714Y-91454819D02*
X30285714Y-90454819D01*
X30285714Y-90454819D02*
X30666666Y-90454819D01*
X30666666Y-90454819D02*
X30761904Y-90502438D01*
X30761904Y-90502438D02*
X30809523Y-90550057D01*
X30809523Y-90550057D02*
X30857142Y-90645295D01*
X30857142Y-90645295D02*
X30857142Y-90788152D01*
X30857142Y-90788152D02*
X30809523Y-90883390D01*
X30809523Y-90883390D02*
X30761904Y-90931009D01*
X30761904Y-90931009D02*
X30666666Y-90978628D01*
X30666666Y-90978628D02*
X30285714Y-90978628D01*
X31476190Y-90454819D02*
X31666666Y-90454819D01*
X31666666Y-90454819D02*
X31761904Y-90502438D01*
X31761904Y-90502438D02*
X31857142Y-90597676D01*
X31857142Y-90597676D02*
X31904761Y-90788152D01*
X31904761Y-90788152D02*
X31904761Y-91121485D01*
X31904761Y-91121485D02*
X31857142Y-91311961D01*
X31857142Y-91311961D02*
X31761904Y-91407200D01*
X31761904Y-91407200D02*
X31666666Y-91454819D01*
X31666666Y-91454819D02*
X31476190Y-91454819D01*
X31476190Y-91454819D02*
X31380952Y-91407200D01*
X31380952Y-91407200D02*
X31285714Y-91311961D01*
X31285714Y-91311961D02*
X31238095Y-91121485D01*
X31238095Y-91121485D02*
X31238095Y-90788152D01*
X31238095Y-90788152D02*
X31285714Y-90597676D01*
X31285714Y-90597676D02*
X31380952Y-90502438D01*
X31380952Y-90502438D02*
X31476190Y-90454819D01*
X32238095Y-90454819D02*
X32476190Y-91454819D01*
X32476190Y-91454819D02*
X32666666Y-90740533D01*
X32666666Y-90740533D02*
X32857142Y-91454819D01*
X32857142Y-91454819D02*
X33095238Y-90454819D01*
X33476190Y-90931009D02*
X33809523Y-90931009D01*
X33952380Y-91454819D02*
X33476190Y-91454819D01*
X33476190Y-91454819D02*
X33476190Y-90454819D01*
X33476190Y-90454819D02*
X33952380Y-90454819D01*
X34952380Y-91454819D02*
X34619047Y-90978628D01*
X34380952Y-91454819D02*
X34380952Y-90454819D01*
X34380952Y-90454819D02*
X34761904Y-90454819D01*
X34761904Y-90454819D02*
X34857142Y-90502438D01*
X34857142Y-90502438D02*
X34904761Y-90550057D01*
X34904761Y-90550057D02*
X34952380Y-90645295D01*
X34952380Y-90645295D02*
X34952380Y-90788152D01*
X34952380Y-90788152D02*
X34904761Y-90883390D01*
X34904761Y-90883390D02*
X34857142Y-90931009D01*
X34857142Y-90931009D02*
X34761904Y-90978628D01*
X34761904Y-90978628D02*
X34380952Y-90978628D01*
X36333333Y-90454819D02*
X36523809Y-90454819D01*
X36523809Y-90454819D02*
X36619047Y-90502438D01*
X36619047Y-90502438D02*
X36714285Y-90597676D01*
X36714285Y-90597676D02*
X36761904Y-90788152D01*
X36761904Y-90788152D02*
X36761904Y-91121485D01*
X36761904Y-91121485D02*
X36714285Y-91311961D01*
X36714285Y-91311961D02*
X36619047Y-91407200D01*
X36619047Y-91407200D02*
X36523809Y-91454819D01*
X36523809Y-91454819D02*
X36333333Y-91454819D01*
X36333333Y-91454819D02*
X36238095Y-91407200D01*
X36238095Y-91407200D02*
X36142857Y-91311961D01*
X36142857Y-91311961D02*
X36095238Y-91121485D01*
X36095238Y-91121485D02*
X36095238Y-90788152D01*
X36095238Y-90788152D02*
X36142857Y-90597676D01*
X36142857Y-90597676D02*
X36238095Y-90502438D01*
X36238095Y-90502438D02*
X36333333Y-90454819D01*
X37523809Y-90931009D02*
X37190476Y-90931009D01*
X37190476Y-91454819D02*
X37190476Y-90454819D01*
X37190476Y-90454819D02*
X37666666Y-90454819D01*
X38380952Y-90931009D02*
X38047619Y-90931009D01*
X38047619Y-91454819D02*
X38047619Y-90454819D01*
X38047619Y-90454819D02*
X38523809Y-90454819D01*
X39523810Y-90454819D02*
X40095238Y-90454819D01*
X39809524Y-91454819D02*
X39809524Y-90454819D01*
X40619048Y-90454819D02*
X40809524Y-90454819D01*
X40809524Y-90454819D02*
X40904762Y-90502438D01*
X40904762Y-90502438D02*
X41000000Y-90597676D01*
X41000000Y-90597676D02*
X41047619Y-90788152D01*
X41047619Y-90788152D02*
X41047619Y-91121485D01*
X41047619Y-91121485D02*
X41000000Y-91311961D01*
X41000000Y-91311961D02*
X40904762Y-91407200D01*
X40904762Y-91407200D02*
X40809524Y-91454819D01*
X40809524Y-91454819D02*
X40619048Y-91454819D01*
X40619048Y-91454819D02*
X40523810Y-91407200D01*
X40523810Y-91407200D02*
X40428572Y-91311961D01*
X40428572Y-91311961D02*
X40380953Y-91121485D01*
X40380953Y-91121485D02*
X40380953Y-90788152D01*
X40380953Y-90788152D02*
X40428572Y-90597676D01*
X40428572Y-90597676D02*
X40523810Y-90502438D01*
X40523810Y-90502438D02*
X40619048Y-90454819D01*
X42190477Y-91407200D02*
X42333334Y-91454819D01*
X42333334Y-91454819D02*
X42571429Y-91454819D01*
X42571429Y-91454819D02*
X42666667Y-91407200D01*
X42666667Y-91407200D02*
X42714286Y-91359580D01*
X42714286Y-91359580D02*
X42761905Y-91264342D01*
X42761905Y-91264342D02*
X42761905Y-91169104D01*
X42761905Y-91169104D02*
X42714286Y-91073866D01*
X42714286Y-91073866D02*
X42666667Y-91026247D01*
X42666667Y-91026247D02*
X42571429Y-90978628D01*
X42571429Y-90978628D02*
X42380953Y-90931009D01*
X42380953Y-90931009D02*
X42285715Y-90883390D01*
X42285715Y-90883390D02*
X42238096Y-90835771D01*
X42238096Y-90835771D02*
X42190477Y-90740533D01*
X42190477Y-90740533D02*
X42190477Y-90645295D01*
X42190477Y-90645295D02*
X42238096Y-90550057D01*
X42238096Y-90550057D02*
X42285715Y-90502438D01*
X42285715Y-90502438D02*
X42380953Y-90454819D01*
X42380953Y-90454819D02*
X42619048Y-90454819D01*
X42619048Y-90454819D02*
X42761905Y-90502438D01*
X43095239Y-90454819D02*
X43333334Y-91454819D01*
X43333334Y-91454819D02*
X43523810Y-90740533D01*
X43523810Y-90740533D02*
X43714286Y-91454819D01*
X43714286Y-91454819D02*
X43952382Y-90454819D01*
X44285715Y-91169104D02*
X44761905Y-91169104D01*
X44190477Y-91454819D02*
X44523810Y-90454819D01*
X44523810Y-90454819D02*
X44857143Y-91454819D01*
X45190477Y-91454819D02*
X45190477Y-90454819D01*
X45190477Y-90454819D02*
X45571429Y-90454819D01*
X45571429Y-90454819D02*
X45666667Y-90502438D01*
X45666667Y-90502438D02*
X45714286Y-90550057D01*
X45714286Y-90550057D02*
X45761905Y-90645295D01*
X45761905Y-90645295D02*
X45761905Y-90788152D01*
X45761905Y-90788152D02*
X45714286Y-90883390D01*
X45714286Y-90883390D02*
X45666667Y-90931009D01*
X45666667Y-90931009D02*
X45571429Y-90978628D01*
X45571429Y-90978628D02*
X45190477Y-90978628D01*
X51619047Y-10454819D02*
X51619047Y-9454819D01*
X52047618Y-10407200D02*
X52190475Y-10454819D01*
X52190475Y-10454819D02*
X52428570Y-10454819D01*
X52428570Y-10454819D02*
X52523808Y-10407200D01*
X52523808Y-10407200D02*
X52571427Y-10359580D01*
X52571427Y-10359580D02*
X52619046Y-10264342D01*
X52619046Y-10264342D02*
X52619046Y-10169104D01*
X52619046Y-10169104D02*
X52571427Y-10073866D01*
X52571427Y-10073866D02*
X52523808Y-10026247D01*
X52523808Y-10026247D02*
X52428570Y-9978628D01*
X52428570Y-9978628D02*
X52238094Y-9931009D01*
X52238094Y-9931009D02*
X52142856Y-9883390D01*
X52142856Y-9883390D02*
X52095237Y-9835771D01*
X52095237Y-9835771D02*
X52047618Y-9740533D01*
X52047618Y-9740533D02*
X52047618Y-9645295D01*
X52047618Y-9645295D02*
X52095237Y-9550057D01*
X52095237Y-9550057D02*
X52142856Y-9502438D01*
X52142856Y-9502438D02*
X52238094Y-9454819D01*
X52238094Y-9454819D02*
X52476189Y-9454819D01*
X52476189Y-9454819D02*
X52619046Y-9502438D01*
X53238094Y-9454819D02*
X53428570Y-9454819D01*
X53428570Y-9454819D02*
X53523808Y-9502438D01*
X53523808Y-9502438D02*
X53619046Y-9597676D01*
X53619046Y-9597676D02*
X53666665Y-9788152D01*
X53666665Y-9788152D02*
X53666665Y-10121485D01*
X53666665Y-10121485D02*
X53619046Y-10311961D01*
X53619046Y-10311961D02*
X53523808Y-10407200D01*
X53523808Y-10407200D02*
X53428570Y-10454819D01*
X53428570Y-10454819D02*
X53238094Y-10454819D01*
X53238094Y-10454819D02*
X53142856Y-10407200D01*
X53142856Y-10407200D02*
X53047618Y-10311961D01*
X53047618Y-10311961D02*
X52999999Y-10121485D01*
X52999999Y-10121485D02*
X52999999Y-9788152D01*
X52999999Y-9788152D02*
X53047618Y-9597676D01*
X53047618Y-9597676D02*
X53142856Y-9502438D01*
X53142856Y-9502438D02*
X53238094Y-9454819D01*
X54571427Y-10454819D02*
X54095237Y-10454819D01*
X54095237Y-10454819D02*
X54095237Y-9454819D01*
X54857142Y-10169104D02*
X55333332Y-10169104D01*
X54761904Y-10454819D02*
X55095237Y-9454819D01*
X55095237Y-9454819D02*
X55428570Y-10454819D01*
X55619047Y-9454819D02*
X56190475Y-9454819D01*
X55904761Y-10454819D02*
X55904761Y-9454819D01*
X56523809Y-9931009D02*
X56857142Y-9931009D01*
X56999999Y-10454819D02*
X56523809Y-10454819D01*
X56523809Y-10454819D02*
X56523809Y-9454819D01*
X56523809Y-9454819D02*
X56999999Y-9454819D01*
X57428571Y-10454819D02*
X57428571Y-9454819D01*
X57428571Y-9454819D02*
X57666666Y-9454819D01*
X57666666Y-9454819D02*
X57809523Y-9502438D01*
X57809523Y-9502438D02*
X57904761Y-9597676D01*
X57904761Y-9597676D02*
X57952380Y-9692914D01*
X57952380Y-9692914D02*
X57999999Y-9883390D01*
X57999999Y-9883390D02*
X57999999Y-10026247D01*
X57999999Y-10026247D02*
X57952380Y-10216723D01*
X57952380Y-10216723D02*
X57904761Y-10311961D01*
X57904761Y-10311961D02*
X57809523Y-10407200D01*
X57809523Y-10407200D02*
X57666666Y-10454819D01*
X57666666Y-10454819D02*
X57428571Y-10454819D01*
X59190476Y-9454819D02*
X59190476Y-10264342D01*
X59190476Y-10264342D02*
X59238095Y-10359580D01*
X59238095Y-10359580D02*
X59285714Y-10407200D01*
X59285714Y-10407200D02*
X59380952Y-10454819D01*
X59380952Y-10454819D02*
X59571428Y-10454819D01*
X59571428Y-10454819D02*
X59666666Y-10407200D01*
X59666666Y-10407200D02*
X59714285Y-10359580D01*
X59714285Y-10359580D02*
X59761904Y-10264342D01*
X59761904Y-10264342D02*
X59761904Y-9454819D01*
X60190476Y-10169104D02*
X60666666Y-10169104D01*
X60095238Y-10454819D02*
X60428571Y-9454819D01*
X60428571Y-9454819D02*
X60761904Y-10454819D01*
X61666666Y-10454819D02*
X61333333Y-9978628D01*
X61095238Y-10454819D02*
X61095238Y-9454819D01*
X61095238Y-9454819D02*
X61476190Y-9454819D01*
X61476190Y-9454819D02*
X61571428Y-9502438D01*
X61571428Y-9502438D02*
X61619047Y-9550057D01*
X61619047Y-9550057D02*
X61666666Y-9645295D01*
X61666666Y-9645295D02*
X61666666Y-9788152D01*
X61666666Y-9788152D02*
X61619047Y-9883390D01*
X61619047Y-9883390D02*
X61571428Y-9931009D01*
X61571428Y-9931009D02*
X61476190Y-9978628D01*
X61476190Y-9978628D02*
X61095238Y-9978628D01*
X61952381Y-9454819D02*
X62523809Y-9454819D01*
X62238095Y-10454819D02*
X62238095Y-9454819D01*
X81904762Y-3407200D02*
X82047619Y-3454819D01*
X82047619Y-3454819D02*
X82285714Y-3454819D01*
X82285714Y-3454819D02*
X82380952Y-3407200D01*
X82380952Y-3407200D02*
X82428571Y-3359580D01*
X82428571Y-3359580D02*
X82476190Y-3264342D01*
X82476190Y-3264342D02*
X82476190Y-3169104D01*
X82476190Y-3169104D02*
X82428571Y-3073866D01*
X82428571Y-3073866D02*
X82380952Y-3026247D01*
X82380952Y-3026247D02*
X82285714Y-2978628D01*
X82285714Y-2978628D02*
X82095238Y-2931009D01*
X82095238Y-2931009D02*
X82000000Y-2883390D01*
X82000000Y-2883390D02*
X81952381Y-2835771D01*
X81952381Y-2835771D02*
X81904762Y-2740533D01*
X81904762Y-2740533D02*
X81904762Y-2645295D01*
X81904762Y-2645295D02*
X81952381Y-2550057D01*
X81952381Y-2550057D02*
X82000000Y-2502438D01*
X82000000Y-2502438D02*
X82095238Y-2454819D01*
X82095238Y-2454819D02*
X82333333Y-2454819D01*
X82333333Y-2454819D02*
X82476190Y-2502438D01*
X82761905Y-2454819D02*
X83333333Y-2454819D01*
X83047619Y-3454819D02*
X83047619Y-2454819D01*
X83857143Y-2454819D02*
X84047619Y-2454819D01*
X84047619Y-2454819D02*
X84142857Y-2502438D01*
X84142857Y-2502438D02*
X84238095Y-2597676D01*
X84238095Y-2597676D02*
X84285714Y-2788152D01*
X84285714Y-2788152D02*
X84285714Y-3121485D01*
X84285714Y-3121485D02*
X84238095Y-3311961D01*
X84238095Y-3311961D02*
X84142857Y-3407200D01*
X84142857Y-3407200D02*
X84047619Y-3454819D01*
X84047619Y-3454819D02*
X83857143Y-3454819D01*
X83857143Y-3454819D02*
X83761905Y-3407200D01*
X83761905Y-3407200D02*
X83666667Y-3311961D01*
X83666667Y-3311961D02*
X83619048Y-3121485D01*
X83619048Y-3121485D02*
X83619048Y-2788152D01*
X83619048Y-2788152D02*
X83666667Y-2597676D01*
X83666667Y-2597676D02*
X83761905Y-2502438D01*
X83761905Y-2502438D02*
X83857143Y-2454819D01*
X84714286Y-3454819D02*
X84714286Y-2454819D01*
X84714286Y-2454819D02*
X85095238Y-2454819D01*
X85095238Y-2454819D02*
X85190476Y-2502438D01*
X85190476Y-2502438D02*
X85238095Y-2550057D01*
X85238095Y-2550057D02*
X85285714Y-2645295D01*
X85285714Y-2645295D02*
X85285714Y-2788152D01*
X85285714Y-2788152D02*
X85238095Y-2883390D01*
X85238095Y-2883390D02*
X85190476Y-2931009D01*
X85190476Y-2931009D02*
X85095238Y-2978628D01*
X85095238Y-2978628D02*
X84714286Y-2978628D01*
X86476191Y-3454819D02*
X86476191Y-2454819D01*
X86476191Y-2454819D02*
X87047619Y-3454819D01*
X87047619Y-3454819D02*
X87047619Y-2454819D01*
X88095238Y-3359580D02*
X88047619Y-3407200D01*
X88047619Y-3407200D02*
X87904762Y-3454819D01*
X87904762Y-3454819D02*
X87809524Y-3454819D01*
X87809524Y-3454819D02*
X87666667Y-3407200D01*
X87666667Y-3407200D02*
X87571429Y-3311961D01*
X87571429Y-3311961D02*
X87523810Y-3216723D01*
X87523810Y-3216723D02*
X87476191Y-3026247D01*
X87476191Y-3026247D02*
X87476191Y-2883390D01*
X87476191Y-2883390D02*
X87523810Y-2692914D01*
X87523810Y-2692914D02*
X87571429Y-2597676D01*
X87571429Y-2597676D02*
X87666667Y-2502438D01*
X87666667Y-2502438D02*
X87809524Y-2454819D01*
X87809524Y-2454819D02*
X87904762Y-2454819D01*
X87904762Y-2454819D02*
X88047619Y-2502438D01*
X88047619Y-2502438D02*
X88095238Y-2550057D01*
X83666667Y-86454819D02*
X83666667Y-85454819D01*
X83666667Y-85931009D02*
X84238095Y-85931009D01*
X84238095Y-86454819D02*
X84238095Y-85454819D01*
X85285714Y-86359580D02*
X85238095Y-86407200D01*
X85238095Y-86407200D02*
X85095238Y-86454819D01*
X85095238Y-86454819D02*
X85000000Y-86454819D01*
X85000000Y-86454819D02*
X84857143Y-86407200D01*
X84857143Y-86407200D02*
X84761905Y-86311961D01*
X84761905Y-86311961D02*
X84714286Y-86216723D01*
X84714286Y-86216723D02*
X84666667Y-86026247D01*
X84666667Y-86026247D02*
X84666667Y-85883390D01*
X84666667Y-85883390D02*
X84714286Y-85692914D01*
X84714286Y-85692914D02*
X84761905Y-85597676D01*
X84761905Y-85597676D02*
X84857143Y-85502438D01*
X84857143Y-85502438D02*
X85000000Y-85454819D01*
X85000000Y-85454819D02*
X85095238Y-85454819D01*
X85095238Y-85454819D02*
X85238095Y-85502438D01*
X85238095Y-85502438D02*
X85285714Y-85550057D01*
X85714286Y-86073866D02*
X86476191Y-86073866D01*
X86904762Y-86407200D02*
X87047619Y-86454819D01*
X87047619Y-86454819D02*
X87285714Y-86454819D01*
X87285714Y-86454819D02*
X87380952Y-86407200D01*
X87380952Y-86407200D02*
X87428571Y-86359580D01*
X87428571Y-86359580D02*
X87476190Y-86264342D01*
X87476190Y-86264342D02*
X87476190Y-86169104D01*
X87476190Y-86169104D02*
X87428571Y-86073866D01*
X87428571Y-86073866D02*
X87380952Y-86026247D01*
X87380952Y-86026247D02*
X87285714Y-85978628D01*
X87285714Y-85978628D02*
X87095238Y-85931009D01*
X87095238Y-85931009D02*
X87000000Y-85883390D01*
X87000000Y-85883390D02*
X86952381Y-85835771D01*
X86952381Y-85835771D02*
X86904762Y-85740533D01*
X86904762Y-85740533D02*
X86904762Y-85645295D01*
X86904762Y-85645295D02*
X86952381Y-85550057D01*
X86952381Y-85550057D02*
X87000000Y-85502438D01*
X87000000Y-85502438D02*
X87095238Y-85454819D01*
X87095238Y-85454819D02*
X87333333Y-85454819D01*
X87333333Y-85454819D02*
X87476190Y-85502438D01*
X88476190Y-86454819D02*
X88142857Y-85978628D01*
X87904762Y-86454819D02*
X87904762Y-85454819D01*
X87904762Y-85454819D02*
X88285714Y-85454819D01*
X88285714Y-85454819D02*
X88380952Y-85502438D01*
X88380952Y-85502438D02*
X88428571Y-85550057D01*
X88428571Y-85550057D02*
X88476190Y-85645295D01*
X88476190Y-85645295D02*
X88476190Y-85788152D01*
X88476190Y-85788152D02*
X88428571Y-85883390D01*
X88428571Y-85883390D02*
X88380952Y-85931009D01*
X88380952Y-85931009D02*
X88285714Y-85978628D01*
X88285714Y-85978628D02*
X87904762Y-85978628D01*
X89095238Y-85454819D02*
X89190476Y-85454819D01*
X89190476Y-85454819D02*
X89285714Y-85502438D01*
X89285714Y-85502438D02*
X89333333Y-85550057D01*
X89333333Y-85550057D02*
X89380952Y-85645295D01*
X89380952Y-85645295D02*
X89428571Y-85835771D01*
X89428571Y-85835771D02*
X89428571Y-86073866D01*
X89428571Y-86073866D02*
X89380952Y-86264342D01*
X89380952Y-86264342D02*
X89333333Y-86359580D01*
X89333333Y-86359580D02*
X89285714Y-86407200D01*
X89285714Y-86407200D02*
X89190476Y-86454819D01*
X89190476Y-86454819D02*
X89095238Y-86454819D01*
X89095238Y-86454819D02*
X89000000Y-86407200D01*
X89000000Y-86407200D02*
X88952381Y-86359580D01*
X88952381Y-86359580D02*
X88904762Y-86264342D01*
X88904762Y-86264342D02*
X88857143Y-86073866D01*
X88857143Y-86073866D02*
X88857143Y-85835771D01*
X88857143Y-85835771D02*
X88904762Y-85645295D01*
X88904762Y-85645295D02*
X88952381Y-85550057D01*
X88952381Y-85550057D02*
X89000000Y-85502438D01*
X89000000Y-85502438D02*
X89095238Y-85454819D01*
X90285714Y-85788152D02*
X90285714Y-86454819D01*
X90047619Y-85407200D02*
X89809524Y-86121485D01*
X89809524Y-86121485D02*
X90428571Y-86121485D01*
X97285714Y-20454819D02*
X96714286Y-20454819D01*
X97000000Y-20454819D02*
X97000000Y-19454819D01*
X97000000Y-19454819D02*
X96904762Y-19597676D01*
X96904762Y-19597676D02*
X96809524Y-19692914D01*
X96809524Y-19692914D02*
X96714286Y-19740533D01*
X105952381Y-98407200D02*
X106095238Y-98454819D01*
X106095238Y-98454819D02*
X106333333Y-98454819D01*
X106333333Y-98454819D02*
X106428571Y-98407200D01*
X106428571Y-98407200D02*
X106476190Y-98359580D01*
X106476190Y-98359580D02*
X106523809Y-98264342D01*
X106523809Y-98264342D02*
X106523809Y-98169104D01*
X106523809Y-98169104D02*
X106476190Y-98073866D01*
X106476190Y-98073866D02*
X106428571Y-98026247D01*
X106428571Y-98026247D02*
X106333333Y-97978628D01*
X106333333Y-97978628D02*
X106142857Y-97931009D01*
X106142857Y-97931009D02*
X106047619Y-97883390D01*
X106047619Y-97883390D02*
X106000000Y-97835771D01*
X106000000Y-97835771D02*
X105952381Y-97740533D01*
X105952381Y-97740533D02*
X105952381Y-97645295D01*
X105952381Y-97645295D02*
X106000000Y-97550057D01*
X106000000Y-97550057D02*
X106047619Y-97502438D01*
X106047619Y-97502438D02*
X106142857Y-97454819D01*
X106142857Y-97454819D02*
X106380952Y-97454819D01*
X106380952Y-97454819D02*
X106523809Y-97502438D01*
X106952381Y-97931009D02*
X107285714Y-97931009D01*
X107428571Y-98454819D02*
X106952381Y-98454819D01*
X106952381Y-98454819D02*
X106952381Y-97454819D01*
X106952381Y-97454819D02*
X107428571Y-97454819D01*
X107857143Y-98454819D02*
X107857143Y-97454819D01*
X107857143Y-97454819D02*
X108428571Y-98454819D01*
X108428571Y-98454819D02*
X108428571Y-97454819D01*
X108857143Y-98407200D02*
X109000000Y-98454819D01*
X109000000Y-98454819D02*
X109238095Y-98454819D01*
X109238095Y-98454819D02*
X109333333Y-98407200D01*
X109333333Y-98407200D02*
X109380952Y-98359580D01*
X109380952Y-98359580D02*
X109428571Y-98264342D01*
X109428571Y-98264342D02*
X109428571Y-98169104D01*
X109428571Y-98169104D02*
X109380952Y-98073866D01*
X109380952Y-98073866D02*
X109333333Y-98026247D01*
X109333333Y-98026247D02*
X109238095Y-97978628D01*
X109238095Y-97978628D02*
X109047619Y-97931009D01*
X109047619Y-97931009D02*
X108952381Y-97883390D01*
X108952381Y-97883390D02*
X108904762Y-97835771D01*
X108904762Y-97835771D02*
X108857143Y-97740533D01*
X108857143Y-97740533D02*
X108857143Y-97645295D01*
X108857143Y-97645295D02*
X108904762Y-97550057D01*
X108904762Y-97550057D02*
X108952381Y-97502438D01*
X108952381Y-97502438D02*
X109047619Y-97454819D01*
X109047619Y-97454819D02*
X109285714Y-97454819D01*
X109285714Y-97454819D02*
X109428571Y-97502438D01*
X110047619Y-97454819D02*
X110238095Y-97454819D01*
X110238095Y-97454819D02*
X110333333Y-97502438D01*
X110333333Y-97502438D02*
X110428571Y-97597676D01*
X110428571Y-97597676D02*
X110476190Y-97788152D01*
X110476190Y-97788152D02*
X110476190Y-98121485D01*
X110476190Y-98121485D02*
X110428571Y-98311961D01*
X110428571Y-98311961D02*
X110333333Y-98407200D01*
X110333333Y-98407200D02*
X110238095Y-98454819D01*
X110238095Y-98454819D02*
X110047619Y-98454819D01*
X110047619Y-98454819D02*
X109952381Y-98407200D01*
X109952381Y-98407200D02*
X109857143Y-98311961D01*
X109857143Y-98311961D02*
X109809524Y-98121485D01*
X109809524Y-98121485D02*
X109809524Y-97788152D01*
X109809524Y-97788152D02*
X109857143Y-97597676D01*
X109857143Y-97597676D02*
X109952381Y-97502438D01*
X109952381Y-97502438D02*
X110047619Y-97454819D01*
X111476190Y-98454819D02*
X111142857Y-97978628D01*
X110904762Y-98454819D02*
X110904762Y-97454819D01*
X110904762Y-97454819D02*
X111285714Y-97454819D01*
X111285714Y-97454819D02*
X111380952Y-97502438D01*
X111380952Y-97502438D02*
X111428571Y-97550057D01*
X111428571Y-97550057D02*
X111476190Y-97645295D01*
X111476190Y-97645295D02*
X111476190Y-97788152D01*
X111476190Y-97788152D02*
X111428571Y-97883390D01*
X111428571Y-97883390D02*
X111380952Y-97931009D01*
X111380952Y-97931009D02*
X111285714Y-97978628D01*
X111285714Y-97978628D02*
X110904762Y-97978628D01*
X113142857Y-97454819D02*
X112666667Y-97454819D01*
X112666667Y-97454819D02*
X112619048Y-97931009D01*
X112619048Y-97931009D02*
X112666667Y-97883390D01*
X112666667Y-97883390D02*
X112761905Y-97835771D01*
X112761905Y-97835771D02*
X113000000Y-97835771D01*
X113000000Y-97835771D02*
X113095238Y-97883390D01*
X113095238Y-97883390D02*
X113142857Y-97931009D01*
X113142857Y-97931009D02*
X113190476Y-98026247D01*
X113190476Y-98026247D02*
X113190476Y-98264342D01*
X113190476Y-98264342D02*
X113142857Y-98359580D01*
X113142857Y-98359580D02*
X113095238Y-98407200D01*
X113095238Y-98407200D02*
X113000000Y-98454819D01*
X113000000Y-98454819D02*
X112761905Y-98454819D01*
X112761905Y-98454819D02*
X112666667Y-98407200D01*
X112666667Y-98407200D02*
X112619048Y-98359580D01*
X113476191Y-97454819D02*
X113809524Y-98454819D01*
X113809524Y-98454819D02*
X114142857Y-97454819D01*
X104952380Y-79454819D02*
X104380952Y-79454819D01*
X104666666Y-79454819D02*
X104666666Y-78454819D01*
X104666666Y-78454819D02*
X104571428Y-78597676D01*
X104571428Y-78597676D02*
X104476190Y-78692914D01*
X104476190Y-78692914D02*
X104380952Y-78740533D01*
X105333333Y-79169104D02*
X105809523Y-79169104D01*
X105238095Y-79454819D02*
X105571428Y-78454819D01*
X105571428Y-78454819D02*
X105904761Y-79454819D01*
X107000000Y-79454819D02*
X107000000Y-78454819D01*
X107000000Y-78454819D02*
X107571428Y-79454819D01*
X107571428Y-79454819D02*
X107571428Y-78454819D01*
X108238095Y-78454819D02*
X108428571Y-78454819D01*
X108428571Y-78454819D02*
X108523809Y-78502438D01*
X108523809Y-78502438D02*
X108619047Y-78597676D01*
X108619047Y-78597676D02*
X108666666Y-78788152D01*
X108666666Y-78788152D02*
X108666666Y-79121485D01*
X108666666Y-79121485D02*
X108619047Y-79311961D01*
X108619047Y-79311961D02*
X108523809Y-79407200D01*
X108523809Y-79407200D02*
X108428571Y-79454819D01*
X108428571Y-79454819D02*
X108238095Y-79454819D01*
X108238095Y-79454819D02*
X108142857Y-79407200D01*
X108142857Y-79407200D02*
X108047619Y-79311961D01*
X108047619Y-79311961D02*
X108000000Y-79121485D01*
X108000000Y-79121485D02*
X108000000Y-78788152D01*
X108000000Y-78788152D02*
X108047619Y-78597676D01*
X108047619Y-78597676D02*
X108142857Y-78502438D01*
X108142857Y-78502438D02*
X108238095Y-78454819D01*
X109095238Y-79454819D02*
X109095238Y-78454819D01*
X109095238Y-78454819D02*
X109428571Y-79169104D01*
X109428571Y-79169104D02*
X109761904Y-78454819D01*
X109761904Y-78454819D02*
X109761904Y-79454819D01*
X110238095Y-79454819D02*
X110238095Y-78454819D01*
X110714285Y-79454819D02*
X110714285Y-78454819D01*
X110714285Y-78454819D02*
X111285713Y-79454819D01*
X111285713Y-79454819D02*
X111285713Y-78454819D01*
X111714285Y-79169104D02*
X112190475Y-79169104D01*
X111619047Y-79454819D02*
X111952380Y-78454819D01*
X111952380Y-78454819D02*
X112285713Y-79454819D01*
X113095237Y-79454819D02*
X112619047Y-79454819D01*
X112619047Y-79454819D02*
X112619047Y-78454819D01*
X114904761Y-78407200D02*
X114047619Y-79692914D01*
X116571428Y-79359580D02*
X116523809Y-79407200D01*
X116523809Y-79407200D02*
X116380952Y-79454819D01*
X116380952Y-79454819D02*
X116285714Y-79454819D01*
X116285714Y-79454819D02*
X116142857Y-79407200D01*
X116142857Y-79407200D02*
X116047619Y-79311961D01*
X116047619Y-79311961D02*
X116000000Y-79216723D01*
X116000000Y-79216723D02*
X115952381Y-79026247D01*
X115952381Y-79026247D02*
X115952381Y-78883390D01*
X115952381Y-78883390D02*
X116000000Y-78692914D01*
X116000000Y-78692914D02*
X116047619Y-78597676D01*
X116047619Y-78597676D02*
X116142857Y-78502438D01*
X116142857Y-78502438D02*
X116285714Y-78454819D01*
X116285714Y-78454819D02*
X116380952Y-78454819D01*
X116380952Y-78454819D02*
X116523809Y-78502438D01*
X116523809Y-78502438D02*
X116571428Y-78550057D01*
X117000000Y-79454819D02*
X117000000Y-78454819D01*
X117000000Y-78931009D02*
X117571428Y-78931009D01*
X117571428Y-79454819D02*
X117571428Y-78454819D01*
X108380952Y-13454819D02*
X108380952Y-14264342D01*
X108380952Y-14264342D02*
X108428571Y-14359580D01*
X108428571Y-14359580D02*
X108476190Y-14407200D01*
X108476190Y-14407200D02*
X108571428Y-14454819D01*
X108571428Y-14454819D02*
X108761904Y-14454819D01*
X108761904Y-14454819D02*
X108857142Y-14407200D01*
X108857142Y-14407200D02*
X108904761Y-14359580D01*
X108904761Y-14359580D02*
X108952380Y-14264342D01*
X108952380Y-14264342D02*
X108952380Y-13454819D01*
X109380952Y-14407200D02*
X109523809Y-14454819D01*
X109523809Y-14454819D02*
X109761904Y-14454819D01*
X109761904Y-14454819D02*
X109857142Y-14407200D01*
X109857142Y-14407200D02*
X109904761Y-14359580D01*
X109904761Y-14359580D02*
X109952380Y-14264342D01*
X109952380Y-14264342D02*
X109952380Y-14169104D01*
X109952380Y-14169104D02*
X109904761Y-14073866D01*
X109904761Y-14073866D02*
X109857142Y-14026247D01*
X109857142Y-14026247D02*
X109761904Y-13978628D01*
X109761904Y-13978628D02*
X109571428Y-13931009D01*
X109571428Y-13931009D02*
X109476190Y-13883390D01*
X109476190Y-13883390D02*
X109428571Y-13835771D01*
X109428571Y-13835771D02*
X109380952Y-13740533D01*
X109380952Y-13740533D02*
X109380952Y-13645295D01*
X109380952Y-13645295D02*
X109428571Y-13550057D01*
X109428571Y-13550057D02*
X109476190Y-13502438D01*
X109476190Y-13502438D02*
X109571428Y-13454819D01*
X109571428Y-13454819D02*
X109809523Y-13454819D01*
X109809523Y-13454819D02*
X109952380Y-13502438D01*
X110714285Y-13931009D02*
X110857142Y-13978628D01*
X110857142Y-13978628D02*
X110904761Y-14026247D01*
X110904761Y-14026247D02*
X110952380Y-14121485D01*
X110952380Y-14121485D02*
X110952380Y-14264342D01*
X110952380Y-14264342D02*
X110904761Y-14359580D01*
X110904761Y-14359580D02*
X110857142Y-14407200D01*
X110857142Y-14407200D02*
X110761904Y-14454819D01*
X110761904Y-14454819D02*
X110380952Y-14454819D01*
X110380952Y-14454819D02*
X110380952Y-13454819D01*
X110380952Y-13454819D02*
X110714285Y-13454819D01*
X110714285Y-13454819D02*
X110809523Y-13502438D01*
X110809523Y-13502438D02*
X110857142Y-13550057D01*
X110857142Y-13550057D02*
X110904761Y-13645295D01*
X110904761Y-13645295D02*
X110904761Y-13740533D01*
X110904761Y-13740533D02*
X110857142Y-13835771D01*
X110857142Y-13835771D02*
X110809523Y-13883390D01*
X110809523Y-13883390D02*
X110714285Y-13931009D01*
X110714285Y-13931009D02*
X110380952Y-13931009D01*
X112142857Y-13931009D02*
X112476190Y-13931009D01*
X112619047Y-14454819D02*
X112142857Y-14454819D01*
X112142857Y-14454819D02*
X112142857Y-13454819D01*
X112142857Y-13454819D02*
X112619047Y-13454819D01*
X113047619Y-14454819D02*
X113047619Y-13454819D01*
X113047619Y-13454819D02*
X113619047Y-14454819D01*
X113619047Y-14454819D02*
X113619047Y-13454819D01*
X114095238Y-14454819D02*
X114095238Y-13454819D01*
X114095238Y-13454819D02*
X114333333Y-13454819D01*
X114333333Y-13454819D02*
X114476190Y-13502438D01*
X114476190Y-13502438D02*
X114571428Y-13597676D01*
X114571428Y-13597676D02*
X114619047Y-13692914D01*
X114619047Y-13692914D02*
X114666666Y-13883390D01*
X114666666Y-13883390D02*
X114666666Y-14026247D01*
X114666666Y-14026247D02*
X114619047Y-14216723D01*
X114619047Y-14216723D02*
X114571428Y-14311961D01*
X114571428Y-14311961D02*
X114476190Y-14407200D01*
X114476190Y-14407200D02*
X114333333Y-14454819D01*
X114333333Y-14454819D02*
X114095238Y-14454819D01*
X126285714Y-20454819D02*
X125714286Y-20454819D01*
X126000000Y-20454819D02*
X126000000Y-19454819D01*
X126000000Y-19454819D02*
X125904762Y-19597676D01*
X125904762Y-19597676D02*
X125809524Y-19692914D01*
X125809524Y-19692914D02*
X125714286Y-19740533D01*
X129976190Y-2931009D02*
X130309523Y-2931009D01*
X130452380Y-3454819D02*
X129976190Y-3454819D01*
X129976190Y-3454819D02*
X129976190Y-2454819D01*
X129976190Y-2454819D02*
X130452380Y-2454819D01*
X130880952Y-3454819D02*
X130880952Y-2454819D01*
X130880952Y-2454819D02*
X131452380Y-3454819D01*
X131452380Y-3454819D02*
X131452380Y-2454819D01*
X132499999Y-3359580D02*
X132452380Y-3407200D01*
X132452380Y-3407200D02*
X132309523Y-3454819D01*
X132309523Y-3454819D02*
X132214285Y-3454819D01*
X132214285Y-3454819D02*
X132071428Y-3407200D01*
X132071428Y-3407200D02*
X131976190Y-3311961D01*
X131976190Y-3311961D02*
X131928571Y-3216723D01*
X131928571Y-3216723D02*
X131880952Y-3026247D01*
X131880952Y-3026247D02*
X131880952Y-2883390D01*
X131880952Y-2883390D02*
X131928571Y-2692914D01*
X131928571Y-2692914D02*
X131976190Y-2597676D01*
X131976190Y-2597676D02*
X132071428Y-2502438D01*
X132071428Y-2502438D02*
X132214285Y-2454819D01*
X132214285Y-2454819D02*
X132309523Y-2454819D01*
X132309523Y-2454819D02*
X132452380Y-2502438D01*
X132452380Y-2502438D02*
X132499999Y-2550057D01*
X134166666Y-3454819D02*
X133690476Y-3454819D01*
X133690476Y-3454819D02*
X133690476Y-2454819D01*
X137142857Y-18454819D02*
X137142857Y-17454819D01*
X137619047Y-18454819D02*
X137619047Y-17454819D01*
X137619047Y-17454819D02*
X137952380Y-18169104D01*
X137952380Y-18169104D02*
X138285713Y-17454819D01*
X138285713Y-17454819D02*
X138285713Y-18454819D01*
X138761904Y-17454819D02*
X138761904Y-18264342D01*
X138761904Y-18264342D02*
X138809523Y-18359580D01*
X138809523Y-18359580D02*
X138857142Y-18407200D01*
X138857142Y-18407200D02*
X138952380Y-18454819D01*
X138952380Y-18454819D02*
X139142856Y-18454819D01*
X139142856Y-18454819D02*
X139238094Y-18407200D01*
X139238094Y-18407200D02*
X139285713Y-18359580D01*
X139285713Y-18359580D02*
X139333332Y-18264342D01*
X139333332Y-18264342D02*
X139333332Y-17454819D01*
X140476190Y-17454819D02*
X141095237Y-17454819D01*
X141095237Y-17454819D02*
X140761904Y-17835771D01*
X140761904Y-17835771D02*
X140904761Y-17835771D01*
X140904761Y-17835771D02*
X140999999Y-17883390D01*
X140999999Y-17883390D02*
X141047618Y-17931009D01*
X141047618Y-17931009D02*
X141095237Y-18026247D01*
X141095237Y-18026247D02*
X141095237Y-18264342D01*
X141095237Y-18264342D02*
X141047618Y-18359580D01*
X141047618Y-18359580D02*
X140999999Y-18407200D01*
X140999999Y-18407200D02*
X140904761Y-18454819D01*
X140904761Y-18454819D02*
X140619047Y-18454819D01*
X140619047Y-18454819D02*
X140523809Y-18407200D01*
X140523809Y-18407200D02*
X140476190Y-18359580D01*
X141380952Y-17454819D02*
X141714285Y-18454819D01*
X141714285Y-18454819D02*
X142047618Y-17454819D01*
X142285714Y-17454819D02*
X142904761Y-17454819D01*
X142904761Y-17454819D02*
X142571428Y-17835771D01*
X142571428Y-17835771D02*
X142714285Y-17835771D01*
X142714285Y-17835771D02*
X142809523Y-17883390D01*
X142809523Y-17883390D02*
X142857142Y-17931009D01*
X142857142Y-17931009D02*
X142904761Y-18026247D01*
X142904761Y-18026247D02*
X142904761Y-18264342D01*
X142904761Y-18264342D02*
X142857142Y-18359580D01*
X142857142Y-18359580D02*
X142809523Y-18407200D01*
X142809523Y-18407200D02*
X142714285Y-18454819D01*
X142714285Y-18454819D02*
X142428571Y-18454819D01*
X142428571Y-18454819D02*
X142333333Y-18407200D01*
X142333333Y-18407200D02*
X142285714Y-18359580D01*
X143880952Y-2931009D02*
X144214285Y-2931009D01*
X144357142Y-3454819D02*
X143880952Y-3454819D01*
X143880952Y-3454819D02*
X143880952Y-2454819D01*
X143880952Y-2454819D02*
X144357142Y-2454819D01*
X144785714Y-3454819D02*
X144785714Y-2454819D01*
X144785714Y-2454819D02*
X145357142Y-3454819D01*
X145357142Y-3454819D02*
X145357142Y-2454819D01*
X146404761Y-3359580D02*
X146357142Y-3407200D01*
X146357142Y-3407200D02*
X146214285Y-3454819D01*
X146214285Y-3454819D02*
X146119047Y-3454819D01*
X146119047Y-3454819D02*
X145976190Y-3407200D01*
X145976190Y-3407200D02*
X145880952Y-3311961D01*
X145880952Y-3311961D02*
X145833333Y-3216723D01*
X145833333Y-3216723D02*
X145785714Y-3026247D01*
X145785714Y-3026247D02*
X145785714Y-2883390D01*
X145785714Y-2883390D02*
X145833333Y-2692914D01*
X145833333Y-2692914D02*
X145880952Y-2597676D01*
X145880952Y-2597676D02*
X145976190Y-2502438D01*
X145976190Y-2502438D02*
X146119047Y-2454819D01*
X146119047Y-2454819D02*
X146214285Y-2454819D01*
X146214285Y-2454819D02*
X146357142Y-2502438D01*
X146357142Y-2502438D02*
X146404761Y-2550057D01*
X148166666Y-3454819D02*
X147833333Y-2978628D01*
X147595238Y-3454819D02*
X147595238Y-2454819D01*
X147595238Y-2454819D02*
X147976190Y-2454819D01*
X147976190Y-2454819D02*
X148071428Y-2502438D01*
X148071428Y-2502438D02*
X148119047Y-2550057D01*
X148119047Y-2550057D02*
X148166666Y-2645295D01*
X148166666Y-2645295D02*
X148166666Y-2788152D01*
X148166666Y-2788152D02*
X148119047Y-2883390D01*
X148119047Y-2883390D02*
X148071428Y-2931009D01*
X148071428Y-2931009D02*
X147976190Y-2978628D01*
X147976190Y-2978628D02*
X147595238Y-2978628D01*
X143999999Y-97454819D02*
X143809523Y-97454819D01*
X143809523Y-97454819D02*
X143714285Y-97502438D01*
X143714285Y-97502438D02*
X143666666Y-97550057D01*
X143666666Y-97550057D02*
X143571428Y-97692914D01*
X143571428Y-97692914D02*
X143523809Y-97883390D01*
X143523809Y-97883390D02*
X143523809Y-98264342D01*
X143523809Y-98264342D02*
X143571428Y-98359580D01*
X143571428Y-98359580D02*
X143619047Y-98407200D01*
X143619047Y-98407200D02*
X143714285Y-98454819D01*
X143714285Y-98454819D02*
X143904761Y-98454819D01*
X143904761Y-98454819D02*
X143999999Y-98407200D01*
X143999999Y-98407200D02*
X144047618Y-98359580D01*
X144047618Y-98359580D02*
X144095237Y-98264342D01*
X144095237Y-98264342D02*
X144095237Y-98026247D01*
X144095237Y-98026247D02*
X144047618Y-97931009D01*
X144047618Y-97931009D02*
X143999999Y-97883390D01*
X143999999Y-97883390D02*
X143904761Y-97835771D01*
X143904761Y-97835771D02*
X143714285Y-97835771D01*
X143714285Y-97835771D02*
X143619047Y-97883390D01*
X143619047Y-97883390D02*
X143571428Y-97931009D01*
X143571428Y-97931009D02*
X143523809Y-98026247D01*
X144380952Y-97454819D02*
X144714285Y-98454819D01*
X144714285Y-98454819D02*
X145047618Y-97454819D01*
X146476190Y-97931009D02*
X146142857Y-97931009D01*
X146142857Y-98454819D02*
X146142857Y-97454819D01*
X146142857Y-97454819D02*
X146619047Y-97454819D01*
X147000000Y-97454819D02*
X147000000Y-98264342D01*
X147000000Y-98264342D02*
X147047619Y-98359580D01*
X147047619Y-98359580D02*
X147095238Y-98407200D01*
X147095238Y-98407200D02*
X147190476Y-98454819D01*
X147190476Y-98454819D02*
X147380952Y-98454819D01*
X147380952Y-98454819D02*
X147476190Y-98407200D01*
X147476190Y-98407200D02*
X147523809Y-98359580D01*
X147523809Y-98359580D02*
X147571428Y-98264342D01*
X147571428Y-98264342D02*
X147571428Y-97454819D01*
X148000000Y-98407200D02*
X148142857Y-98454819D01*
X148142857Y-98454819D02*
X148380952Y-98454819D01*
X148380952Y-98454819D02*
X148476190Y-98407200D01*
X148476190Y-98407200D02*
X148523809Y-98359580D01*
X148523809Y-98359580D02*
X148571428Y-98264342D01*
X148571428Y-98264342D02*
X148571428Y-98169104D01*
X148571428Y-98169104D02*
X148523809Y-98073866D01*
X148523809Y-98073866D02*
X148476190Y-98026247D01*
X148476190Y-98026247D02*
X148380952Y-97978628D01*
X148380952Y-97978628D02*
X148190476Y-97931009D01*
X148190476Y-97931009D02*
X148095238Y-97883390D01*
X148095238Y-97883390D02*
X148047619Y-97835771D01*
X148047619Y-97835771D02*
X148000000Y-97740533D01*
X148000000Y-97740533D02*
X148000000Y-97645295D01*
X148000000Y-97645295D02*
X148047619Y-97550057D01*
X148047619Y-97550057D02*
X148095238Y-97502438D01*
X148095238Y-97502438D02*
X148190476Y-97454819D01*
X148190476Y-97454819D02*
X148428571Y-97454819D01*
X148428571Y-97454819D02*
X148571428Y-97502438D01*
X149000000Y-97931009D02*
X149333333Y-97931009D01*
X149476190Y-98454819D02*
X149000000Y-98454819D01*
X149000000Y-98454819D02*
X149000000Y-97454819D01*
X149000000Y-97454819D02*
X149476190Y-97454819D01*
X149904762Y-98454819D02*
X149904762Y-97454819D01*
X149904762Y-97454819D02*
X150142857Y-97454819D01*
X150142857Y-97454819D02*
X150285714Y-97502438D01*
X150285714Y-97502438D02*
X150380952Y-97597676D01*
X150380952Y-97597676D02*
X150428571Y-97692914D01*
X150428571Y-97692914D02*
X150476190Y-97883390D01*
X150476190Y-97883390D02*
X150476190Y-98026247D01*
X150476190Y-98026247D02*
X150428571Y-98216723D01*
X150428571Y-98216723D02*
X150380952Y-98311961D01*
X150380952Y-98311961D02*
X150285714Y-98407200D01*
X150285714Y-98407200D02*
X150142857Y-98454819D01*
X150142857Y-98454819D02*
X149904762Y-98454819D01*
X146428571Y-33454819D02*
X146095238Y-32978628D01*
X145857143Y-33454819D02*
X145857143Y-32454819D01*
X145857143Y-32454819D02*
X146238095Y-32454819D01*
X146238095Y-32454819D02*
X146333333Y-32502438D01*
X146333333Y-32502438D02*
X146380952Y-32550057D01*
X146380952Y-32550057D02*
X146428571Y-32645295D01*
X146428571Y-32645295D02*
X146428571Y-32788152D01*
X146428571Y-32788152D02*
X146380952Y-32883390D01*
X146380952Y-32883390D02*
X146333333Y-32931009D01*
X146333333Y-32931009D02*
X146238095Y-32978628D01*
X146238095Y-32978628D02*
X145857143Y-32978628D01*
X147619048Y-33454819D02*
X147619048Y-32454819D01*
X147619048Y-32454819D02*
X147952381Y-33169104D01*
X147952381Y-33169104D02*
X148285714Y-32454819D01*
X148285714Y-32454819D02*
X148285714Y-33454819D01*
X148952381Y-32454819D02*
X149142857Y-32454819D01*
X149142857Y-32454819D02*
X149238095Y-32502438D01*
X149238095Y-32502438D02*
X149333333Y-32597676D01*
X149333333Y-32597676D02*
X149380952Y-32788152D01*
X149380952Y-32788152D02*
X149380952Y-33121485D01*
X149380952Y-33121485D02*
X149333333Y-33311961D01*
X149333333Y-33311961D02*
X149238095Y-33407200D01*
X149238095Y-33407200D02*
X149142857Y-33454819D01*
X149142857Y-33454819D02*
X148952381Y-33454819D01*
X148952381Y-33454819D02*
X148857143Y-33407200D01*
X148857143Y-33407200D02*
X148761905Y-33311961D01*
X148761905Y-33311961D02*
X148714286Y-33121485D01*
X148714286Y-33121485D02*
X148714286Y-32788152D01*
X148714286Y-32788152D02*
X148761905Y-32597676D01*
X148761905Y-32597676D02*
X148857143Y-32502438D01*
X148857143Y-32502438D02*
X148952381Y-32454819D01*
X149666667Y-32454819D02*
X150238095Y-32454819D01*
X149952381Y-33454819D02*
X149952381Y-32454819D01*
X150761905Y-32454819D02*
X150952381Y-32454819D01*
X150952381Y-32454819D02*
X151047619Y-32502438D01*
X151047619Y-32502438D02*
X151142857Y-32597676D01*
X151142857Y-32597676D02*
X151190476Y-32788152D01*
X151190476Y-32788152D02*
X151190476Y-33121485D01*
X151190476Y-33121485D02*
X151142857Y-33311961D01*
X151142857Y-33311961D02*
X151047619Y-33407200D01*
X151047619Y-33407200D02*
X150952381Y-33454819D01*
X150952381Y-33454819D02*
X150761905Y-33454819D01*
X150761905Y-33454819D02*
X150666667Y-33407200D01*
X150666667Y-33407200D02*
X150571429Y-33311961D01*
X150571429Y-33311961D02*
X150523810Y-33121485D01*
X150523810Y-33121485D02*
X150523810Y-32788152D01*
X150523810Y-32788152D02*
X150571429Y-32597676D01*
X150571429Y-32597676D02*
X150666667Y-32502438D01*
X150666667Y-32502438D02*
X150761905Y-32454819D01*
X152190476Y-33454819D02*
X151857143Y-32978628D01*
X151619048Y-33454819D02*
X151619048Y-32454819D01*
X151619048Y-32454819D02*
X152000000Y-32454819D01*
X152000000Y-32454819D02*
X152095238Y-32502438D01*
X152095238Y-32502438D02*
X152142857Y-32550057D01*
X152142857Y-32550057D02*
X152190476Y-32645295D01*
X152190476Y-32645295D02*
X152190476Y-32788152D01*
X152190476Y-32788152D02*
X152142857Y-32883390D01*
X152142857Y-32883390D02*
X152095238Y-32931009D01*
X152095238Y-32931009D02*
X152000000Y-32978628D01*
X152000000Y-32978628D02*
X151619048Y-32978628D01*
X146428571Y-65454819D02*
X145952381Y-65454819D01*
X145952381Y-65454819D02*
X145952381Y-64454819D01*
X147523810Y-65454819D02*
X147523810Y-64454819D01*
X147523810Y-64454819D02*
X147857143Y-65169104D01*
X147857143Y-65169104D02*
X148190476Y-64454819D01*
X148190476Y-64454819D02*
X148190476Y-65454819D01*
X148857143Y-64454819D02*
X149047619Y-64454819D01*
X149047619Y-64454819D02*
X149142857Y-64502438D01*
X149142857Y-64502438D02*
X149238095Y-64597676D01*
X149238095Y-64597676D02*
X149285714Y-64788152D01*
X149285714Y-64788152D02*
X149285714Y-65121485D01*
X149285714Y-65121485D02*
X149238095Y-65311961D01*
X149238095Y-65311961D02*
X149142857Y-65407200D01*
X149142857Y-65407200D02*
X149047619Y-65454819D01*
X149047619Y-65454819D02*
X148857143Y-65454819D01*
X148857143Y-65454819D02*
X148761905Y-65407200D01*
X148761905Y-65407200D02*
X148666667Y-65311961D01*
X148666667Y-65311961D02*
X148619048Y-65121485D01*
X148619048Y-65121485D02*
X148619048Y-64788152D01*
X148619048Y-64788152D02*
X148666667Y-64597676D01*
X148666667Y-64597676D02*
X148761905Y-64502438D01*
X148761905Y-64502438D02*
X148857143Y-64454819D01*
X149571429Y-64454819D02*
X150142857Y-64454819D01*
X149857143Y-65454819D02*
X149857143Y-64454819D01*
X150666667Y-64454819D02*
X150857143Y-64454819D01*
X150857143Y-64454819D02*
X150952381Y-64502438D01*
X150952381Y-64502438D02*
X151047619Y-64597676D01*
X151047619Y-64597676D02*
X151095238Y-64788152D01*
X151095238Y-64788152D02*
X151095238Y-65121485D01*
X151095238Y-65121485D02*
X151047619Y-65311961D01*
X151047619Y-65311961D02*
X150952381Y-65407200D01*
X150952381Y-65407200D02*
X150857143Y-65454819D01*
X150857143Y-65454819D02*
X150666667Y-65454819D01*
X150666667Y-65454819D02*
X150571429Y-65407200D01*
X150571429Y-65407200D02*
X150476191Y-65311961D01*
X150476191Y-65311961D02*
X150428572Y-65121485D01*
X150428572Y-65121485D02*
X150428572Y-64788152D01*
X150428572Y-64788152D02*
X150476191Y-64597676D01*
X150476191Y-64597676D02*
X150571429Y-64502438D01*
X150571429Y-64502438D02*
X150666667Y-64454819D01*
X152095238Y-65454819D02*
X151761905Y-64978628D01*
X151523810Y-65454819D02*
X151523810Y-64454819D01*
X151523810Y-64454819D02*
X151904762Y-64454819D01*
X151904762Y-64454819D02*
X152000000Y-64502438D01*
X152000000Y-64502438D02*
X152047619Y-64550057D01*
X152047619Y-64550057D02*
X152095238Y-64645295D01*
X152095238Y-64645295D02*
X152095238Y-64788152D01*
X152095238Y-64788152D02*
X152047619Y-64883390D01*
X152047619Y-64883390D02*
X152000000Y-64931009D01*
X152000000Y-64931009D02*
X151904762Y-64978628D01*
X151904762Y-64978628D02*
X151523810Y-64978628D01*
X105557143Y-37531700D02*
X105742857Y-37593604D01*
X105742857Y-37593604D02*
X106052381Y-37593604D01*
X106052381Y-37593604D02*
X106176190Y-37531700D01*
X106176190Y-37531700D02*
X106238095Y-37469795D01*
X106238095Y-37469795D02*
X106300000Y-37345985D01*
X106300000Y-37345985D02*
X106300000Y-37222176D01*
X106300000Y-37222176D02*
X106238095Y-37098366D01*
X106238095Y-37098366D02*
X106176190Y-37036461D01*
X106176190Y-37036461D02*
X106052381Y-36974557D01*
X106052381Y-36974557D02*
X105804762Y-36912652D01*
X105804762Y-36912652D02*
X105680952Y-36850747D01*
X105680952Y-36850747D02*
X105619047Y-36788842D01*
X105619047Y-36788842D02*
X105557143Y-36665033D01*
X105557143Y-36665033D02*
X105557143Y-36541223D01*
X105557143Y-36541223D02*
X105619047Y-36417414D01*
X105619047Y-36417414D02*
X105680952Y-36355509D01*
X105680952Y-36355509D02*
X105804762Y-36293604D01*
X105804762Y-36293604D02*
X106114285Y-36293604D01*
X106114285Y-36293604D02*
X106300000Y-36355509D01*
X106857142Y-37593604D02*
X106857142Y-36293604D01*
X106857142Y-36912652D02*
X107599999Y-36912652D01*
X107599999Y-37593604D02*
X107599999Y-36293604D01*
X108961904Y-37593604D02*
X108528571Y-36974557D01*
X108219047Y-37593604D02*
X108219047Y-36293604D01*
X108219047Y-36293604D02*
X108714285Y-36293604D01*
X108714285Y-36293604D02*
X108838095Y-36355509D01*
X108838095Y-36355509D02*
X108900000Y-36417414D01*
X108900000Y-36417414D02*
X108961904Y-36541223D01*
X108961904Y-36541223D02*
X108961904Y-36726938D01*
X108961904Y-36726938D02*
X108900000Y-36850747D01*
X108900000Y-36850747D02*
X108838095Y-36912652D01*
X108838095Y-36912652D02*
X108714285Y-36974557D01*
X108714285Y-36974557D02*
X108219047Y-36974557D01*
X109519047Y-37593604D02*
X109519047Y-36293604D01*
X110138095Y-37593604D02*
X110138095Y-36293604D01*
X110880952Y-37593604D02*
X110323810Y-36850747D01*
X110880952Y-36293604D02*
X110138095Y-37036461D01*
X111438095Y-36912652D02*
X111871429Y-36912652D01*
X112057143Y-37593604D02*
X111438095Y-37593604D01*
X111438095Y-37593604D02*
X111438095Y-36293604D01*
X111438095Y-36293604D02*
X112057143Y-36293604D01*
X114347618Y-37593604D02*
X113914285Y-36974557D01*
X113604761Y-37593604D02*
X113604761Y-36293604D01*
X113604761Y-36293604D02*
X114099999Y-36293604D01*
X114099999Y-36293604D02*
X114223809Y-36355509D01*
X114223809Y-36355509D02*
X114285714Y-36417414D01*
X114285714Y-36417414D02*
X114347618Y-36541223D01*
X114347618Y-36541223D02*
X114347618Y-36726938D01*
X114347618Y-36726938D02*
X114285714Y-36850747D01*
X114285714Y-36850747D02*
X114223809Y-36912652D01*
X114223809Y-36912652D02*
X114099999Y-36974557D01*
X114099999Y-36974557D02*
X113604761Y-36974557D01*
X115152380Y-36293604D02*
X115276190Y-36293604D01*
X115276190Y-36293604D02*
X115399999Y-36355509D01*
X115399999Y-36355509D02*
X115461904Y-36417414D01*
X115461904Y-36417414D02*
X115523809Y-36541223D01*
X115523809Y-36541223D02*
X115585714Y-36788842D01*
X115585714Y-36788842D02*
X115585714Y-37098366D01*
X115585714Y-37098366D02*
X115523809Y-37345985D01*
X115523809Y-37345985D02*
X115461904Y-37469795D01*
X115461904Y-37469795D02*
X115399999Y-37531700D01*
X115399999Y-37531700D02*
X115276190Y-37593604D01*
X115276190Y-37593604D02*
X115152380Y-37593604D01*
X115152380Y-37593604D02*
X115028571Y-37531700D01*
X115028571Y-37531700D02*
X114966666Y-37469795D01*
X114966666Y-37469795D02*
X114904761Y-37345985D01*
X114904761Y-37345985D02*
X114842857Y-37098366D01*
X114842857Y-37098366D02*
X114842857Y-36788842D01*
X114842857Y-36788842D02*
X114904761Y-36541223D01*
X114904761Y-36541223D02*
X114966666Y-36417414D01*
X114966666Y-36417414D02*
X115028571Y-36355509D01*
X115028571Y-36355509D02*
X115152380Y-36293604D01*
X116142856Y-37469795D02*
X116204761Y-37531700D01*
X116204761Y-37531700D02*
X116142856Y-37593604D01*
X116142856Y-37593604D02*
X116080952Y-37531700D01*
X116080952Y-37531700D02*
X116142856Y-37469795D01*
X116142856Y-37469795D02*
X116142856Y-37593604D01*
X117319047Y-36726938D02*
X117319047Y-37593604D01*
X117009523Y-36231700D02*
X116700000Y-37160271D01*
X116700000Y-37160271D02*
X117504761Y-37160271D01*
X24133332Y-82239866D02*
X24599999Y-83639866D01*
X24599999Y-83639866D02*
X25066665Y-82239866D01*
X25799999Y-82239866D02*
X26066665Y-82239866D01*
X26066665Y-82239866D02*
X26199999Y-82306533D01*
X26199999Y-82306533D02*
X26333332Y-82439866D01*
X26333332Y-82439866D02*
X26399999Y-82706533D01*
X26399999Y-82706533D02*
X26399999Y-83173200D01*
X26399999Y-83173200D02*
X26333332Y-83439866D01*
X26333332Y-83439866D02*
X26199999Y-83573200D01*
X26199999Y-83573200D02*
X26066665Y-83639866D01*
X26066665Y-83639866D02*
X25799999Y-83639866D01*
X25799999Y-83639866D02*
X25666665Y-83573200D01*
X25666665Y-83573200D02*
X25533332Y-83439866D01*
X25533332Y-83439866D02*
X25466665Y-83173200D01*
X25466665Y-83173200D02*
X25466665Y-82706533D01*
X25466665Y-82706533D02*
X25533332Y-82439866D01*
X25533332Y-82439866D02*
X25666665Y-82306533D01*
X25666665Y-82306533D02*
X25799999Y-82239866D01*
X27666666Y-83639866D02*
X26999999Y-83639866D01*
X26999999Y-83639866D02*
X26999999Y-82239866D01*
X28133332Y-83639866D02*
X28133332Y-82239866D01*
X28133332Y-82239866D02*
X28933332Y-83639866D01*
X28933332Y-83639866D02*
X28933332Y-82239866D01*
X30266666Y-83639866D02*
X29599999Y-83639866D01*
X29599999Y-83639866D02*
X29599999Y-82239866D01*
X30666665Y-83239866D02*
X31333332Y-83239866D01*
X30533332Y-83639866D02*
X30999999Y-82239866D01*
X30999999Y-82239866D02*
X31466665Y-83639866D01*
X32399999Y-82906533D02*
X32599999Y-82973200D01*
X32599999Y-82973200D02*
X32666665Y-83039866D01*
X32666665Y-83039866D02*
X32733332Y-83173200D01*
X32733332Y-83173200D02*
X32733332Y-83373200D01*
X32733332Y-83373200D02*
X32666665Y-83506533D01*
X32666665Y-83506533D02*
X32599999Y-83573200D01*
X32599999Y-83573200D02*
X32466665Y-83639866D01*
X32466665Y-83639866D02*
X31933332Y-83639866D01*
X31933332Y-83639866D02*
X31933332Y-82239866D01*
X31933332Y-82239866D02*
X32399999Y-82239866D01*
X32399999Y-82239866D02*
X32533332Y-82306533D01*
X32533332Y-82306533D02*
X32599999Y-82373200D01*
X32599999Y-82373200D02*
X32666665Y-82506533D01*
X32666665Y-82506533D02*
X32666665Y-82639866D01*
X32666665Y-82639866D02*
X32599999Y-82773200D01*
X32599999Y-82773200D02*
X32533332Y-82839866D01*
X32533332Y-82839866D02*
X32399999Y-82906533D01*
X32399999Y-82906533D02*
X31933332Y-82906533D01*
X33266665Y-83573200D02*
X33466665Y-83639866D01*
X33466665Y-83639866D02*
X33799999Y-83639866D01*
X33799999Y-83639866D02*
X33933332Y-83573200D01*
X33933332Y-83573200D02*
X33999999Y-83506533D01*
X33999999Y-83506533D02*
X34066665Y-83373200D01*
X34066665Y-83373200D02*
X34066665Y-83239866D01*
X34066665Y-83239866D02*
X33999999Y-83106533D01*
X33999999Y-83106533D02*
X33933332Y-83039866D01*
X33933332Y-83039866D02*
X33799999Y-82973200D01*
X33799999Y-82973200D02*
X33533332Y-82906533D01*
X33533332Y-82906533D02*
X33399999Y-82839866D01*
X33399999Y-82839866D02*
X33333332Y-82773200D01*
X33333332Y-82773200D02*
X33266665Y-82639866D01*
X33266665Y-82639866D02*
X33266665Y-82506533D01*
X33266665Y-82506533D02*
X33333332Y-82373200D01*
X33333332Y-82373200D02*
X33399999Y-82306533D01*
X33399999Y-82306533D02*
X33533332Y-82239866D01*
X33533332Y-82239866D02*
X33866665Y-82239866D01*
X33866665Y-82239866D02*
X34066665Y-82306533D01*
X36733332Y-82173200D02*
X35533332Y-83973200D01*
X38199999Y-83239866D02*
X38866666Y-83239866D01*
X38066666Y-83639866D02*
X38533333Y-82239866D01*
X38533333Y-82239866D02*
X38999999Y-83639866D01*
X39333333Y-82239866D02*
X40266666Y-83639866D01*
X40266666Y-82239866D02*
X39333333Y-83639866D01*
X40799999Y-83639866D02*
X40799999Y-82239866D01*
X41733333Y-82239866D02*
X41999999Y-82239866D01*
X41999999Y-82239866D02*
X42133333Y-82306533D01*
X42133333Y-82306533D02*
X42266666Y-82439866D01*
X42266666Y-82439866D02*
X42333333Y-82706533D01*
X42333333Y-82706533D02*
X42333333Y-83173200D01*
X42333333Y-83173200D02*
X42266666Y-83439866D01*
X42266666Y-83439866D02*
X42133333Y-83573200D01*
X42133333Y-83573200D02*
X41999999Y-83639866D01*
X41999999Y-83639866D02*
X41733333Y-83639866D01*
X41733333Y-83639866D02*
X41599999Y-83573200D01*
X41599999Y-83573200D02*
X41466666Y-83439866D01*
X41466666Y-83439866D02*
X41399999Y-83173200D01*
X41399999Y-83173200D02*
X41399999Y-82706533D01*
X41399999Y-82706533D02*
X41466666Y-82439866D01*
X41466666Y-82439866D02*
X41599999Y-82306533D01*
X41599999Y-82306533D02*
X41733333Y-82239866D01*
X42933333Y-83639866D02*
X42933333Y-82239866D01*
X42933333Y-82239866D02*
X43400000Y-83239866D01*
X43400000Y-83239866D02*
X43866666Y-82239866D01*
X43866666Y-82239866D02*
X43866666Y-83639866D01*
X46400000Y-83639866D02*
X45933333Y-82973200D01*
X45600000Y-83639866D02*
X45600000Y-82239866D01*
X45600000Y-82239866D02*
X46133333Y-82239866D01*
X46133333Y-82239866D02*
X46266667Y-82306533D01*
X46266667Y-82306533D02*
X46333333Y-82373200D01*
X46333333Y-82373200D02*
X46400000Y-82506533D01*
X46400000Y-82506533D02*
X46400000Y-82706533D01*
X46400000Y-82706533D02*
X46333333Y-82839866D01*
X46333333Y-82839866D02*
X46266667Y-82906533D01*
X46266667Y-82906533D02*
X46133333Y-82973200D01*
X46133333Y-82973200D02*
X45600000Y-82973200D01*
X47266667Y-82239866D02*
X47533333Y-82239866D01*
X47533333Y-82239866D02*
X47666667Y-82306533D01*
X47666667Y-82306533D02*
X47800000Y-82439866D01*
X47800000Y-82439866D02*
X47866667Y-82706533D01*
X47866667Y-82706533D02*
X47866667Y-83173200D01*
X47866667Y-83173200D02*
X47800000Y-83439866D01*
X47800000Y-83439866D02*
X47666667Y-83573200D01*
X47666667Y-83573200D02*
X47533333Y-83639866D01*
X47533333Y-83639866D02*
X47266667Y-83639866D01*
X47266667Y-83639866D02*
X47133333Y-83573200D01*
X47133333Y-83573200D02*
X47000000Y-83439866D01*
X47000000Y-83439866D02*
X46933333Y-83173200D01*
X46933333Y-83173200D02*
X46933333Y-82706533D01*
X46933333Y-82706533D02*
X47000000Y-82439866D01*
X47000000Y-82439866D02*
X47133333Y-82306533D01*
X47133333Y-82306533D02*
X47266667Y-82239866D01*
X48266667Y-82239866D02*
X48733334Y-83639866D01*
X48733334Y-83639866D02*
X49200000Y-82239866D01*
X49666667Y-82906533D02*
X50133334Y-82906533D01*
X50333334Y-83639866D02*
X49666667Y-83639866D01*
X49666667Y-83639866D02*
X49666667Y-82239866D01*
X49666667Y-82239866D02*
X50333334Y-82239866D01*
X51733334Y-83639866D02*
X51266667Y-82973200D01*
X50933334Y-83639866D02*
X50933334Y-82239866D01*
X50933334Y-82239866D02*
X51466667Y-82239866D01*
X51466667Y-82239866D02*
X51600001Y-82306533D01*
X51600001Y-82306533D02*
X51666667Y-82373200D01*
X51666667Y-82373200D02*
X51733334Y-82506533D01*
X51733334Y-82506533D02*
X51733334Y-82706533D01*
X51733334Y-82706533D02*
X51666667Y-82839866D01*
X51666667Y-82839866D02*
X51600001Y-82906533D01*
X51600001Y-82906533D02*
X51466667Y-82973200D01*
X51466667Y-82973200D02*
X50933334Y-82973200D01*
X90833333Y-79804819D02*
X90500000Y-79328628D01*
X90261905Y-79804819D02*
X90261905Y-78804819D01*
X90261905Y-78804819D02*
X90642857Y-78804819D01*
X90642857Y-78804819D02*
X90738095Y-78852438D01*
X90738095Y-78852438D02*
X90785714Y-78900057D01*
X90785714Y-78900057D02*
X90833333Y-78995295D01*
X90833333Y-78995295D02*
X90833333Y-79138152D01*
X90833333Y-79138152D02*
X90785714Y-79233390D01*
X90785714Y-79233390D02*
X90738095Y-79281009D01*
X90738095Y-79281009D02*
X90642857Y-79328628D01*
X90642857Y-79328628D02*
X90261905Y-79328628D01*
X91214286Y-78900057D02*
X91261905Y-78852438D01*
X91261905Y-78852438D02*
X91357143Y-78804819D01*
X91357143Y-78804819D02*
X91595238Y-78804819D01*
X91595238Y-78804819D02*
X91690476Y-78852438D01*
X91690476Y-78852438D02*
X91738095Y-78900057D01*
X91738095Y-78900057D02*
X91785714Y-78995295D01*
X91785714Y-78995295D02*
X91785714Y-79090533D01*
X91785714Y-79090533D02*
X91738095Y-79233390D01*
X91738095Y-79233390D02*
X91166667Y-79804819D01*
X91166667Y-79804819D02*
X91785714Y-79804819D01*
X93357142Y-45804819D02*
X93023809Y-45328628D01*
X92785714Y-45804819D02*
X92785714Y-44804819D01*
X92785714Y-44804819D02*
X93166666Y-44804819D01*
X93166666Y-44804819D02*
X93261904Y-44852438D01*
X93261904Y-44852438D02*
X93309523Y-44900057D01*
X93309523Y-44900057D02*
X93357142Y-44995295D01*
X93357142Y-44995295D02*
X93357142Y-45138152D01*
X93357142Y-45138152D02*
X93309523Y-45233390D01*
X93309523Y-45233390D02*
X93261904Y-45281009D01*
X93261904Y-45281009D02*
X93166666Y-45328628D01*
X93166666Y-45328628D02*
X92785714Y-45328628D01*
X94309523Y-45804819D02*
X93738095Y-45804819D01*
X94023809Y-45804819D02*
X94023809Y-44804819D01*
X94023809Y-44804819D02*
X93928571Y-44947676D01*
X93928571Y-44947676D02*
X93833333Y-45042914D01*
X93833333Y-45042914D02*
X93738095Y-45090533D01*
X95166666Y-44804819D02*
X94976190Y-44804819D01*
X94976190Y-44804819D02*
X94880952Y-44852438D01*
X94880952Y-44852438D02*
X94833333Y-44900057D01*
X94833333Y-44900057D02*
X94738095Y-45042914D01*
X94738095Y-45042914D02*
X94690476Y-45233390D01*
X94690476Y-45233390D02*
X94690476Y-45614342D01*
X94690476Y-45614342D02*
X94738095Y-45709580D01*
X94738095Y-45709580D02*
X94785714Y-45757200D01*
X94785714Y-45757200D02*
X94880952Y-45804819D01*
X94880952Y-45804819D02*
X95071428Y-45804819D01*
X95071428Y-45804819D02*
X95166666Y-45757200D01*
X95166666Y-45757200D02*
X95214285Y-45709580D01*
X95214285Y-45709580D02*
X95261904Y-45614342D01*
X95261904Y-45614342D02*
X95261904Y-45376247D01*
X95261904Y-45376247D02*
X95214285Y-45281009D01*
X95214285Y-45281009D02*
X95166666Y-45233390D01*
X95166666Y-45233390D02*
X95071428Y-45185771D01*
X95071428Y-45185771D02*
X94880952Y-45185771D01*
X94880952Y-45185771D02*
X94785714Y-45233390D01*
X94785714Y-45233390D02*
X94738095Y-45281009D01*
X94738095Y-45281009D02*
X94690476Y-45376247D01*
X86238095Y-50174819D02*
X86238095Y-50984342D01*
X86238095Y-50984342D02*
X86285714Y-51079580D01*
X86285714Y-51079580D02*
X86333333Y-51127200D01*
X86333333Y-51127200D02*
X86428571Y-51174819D01*
X86428571Y-51174819D02*
X86619047Y-51174819D01*
X86619047Y-51174819D02*
X86714285Y-51127200D01*
X86714285Y-51127200D02*
X86761904Y-51079580D01*
X86761904Y-51079580D02*
X86809523Y-50984342D01*
X86809523Y-50984342D02*
X86809523Y-50174819D01*
X87761904Y-50174819D02*
X87285714Y-50174819D01*
X87285714Y-50174819D02*
X87238095Y-50651009D01*
X87238095Y-50651009D02*
X87285714Y-50603390D01*
X87285714Y-50603390D02*
X87380952Y-50555771D01*
X87380952Y-50555771D02*
X87619047Y-50555771D01*
X87619047Y-50555771D02*
X87714285Y-50603390D01*
X87714285Y-50603390D02*
X87761904Y-50651009D01*
X87761904Y-50651009D02*
X87809523Y-50746247D01*
X87809523Y-50746247D02*
X87809523Y-50984342D01*
X87809523Y-50984342D02*
X87761904Y-51079580D01*
X87761904Y-51079580D02*
X87714285Y-51127200D01*
X87714285Y-51127200D02*
X87619047Y-51174819D01*
X87619047Y-51174819D02*
X87380952Y-51174819D01*
X87380952Y-51174819D02*
X87285714Y-51127200D01*
X87285714Y-51127200D02*
X87238095Y-51079580D01*
X144333333Y-38359580D02*
X144285714Y-38407200D01*
X144285714Y-38407200D02*
X144142857Y-38454819D01*
X144142857Y-38454819D02*
X144047619Y-38454819D01*
X144047619Y-38454819D02*
X143904762Y-38407200D01*
X143904762Y-38407200D02*
X143809524Y-38311961D01*
X143809524Y-38311961D02*
X143761905Y-38216723D01*
X143761905Y-38216723D02*
X143714286Y-38026247D01*
X143714286Y-38026247D02*
X143714286Y-37883390D01*
X143714286Y-37883390D02*
X143761905Y-37692914D01*
X143761905Y-37692914D02*
X143809524Y-37597676D01*
X143809524Y-37597676D02*
X143904762Y-37502438D01*
X143904762Y-37502438D02*
X144047619Y-37454819D01*
X144047619Y-37454819D02*
X144142857Y-37454819D01*
X144142857Y-37454819D02*
X144285714Y-37502438D01*
X144285714Y-37502438D02*
X144333333Y-37550057D01*
X145190476Y-37788152D02*
X145190476Y-38454819D01*
X144952381Y-37407200D02*
X144714286Y-38121485D01*
X144714286Y-38121485D02*
X145333333Y-38121485D01*
X109833333Y-83624819D02*
X109500000Y-83148628D01*
X109261905Y-83624819D02*
X109261905Y-82624819D01*
X109261905Y-82624819D02*
X109642857Y-82624819D01*
X109642857Y-82624819D02*
X109738095Y-82672438D01*
X109738095Y-82672438D02*
X109785714Y-82720057D01*
X109785714Y-82720057D02*
X109833333Y-82815295D01*
X109833333Y-82815295D02*
X109833333Y-82958152D01*
X109833333Y-82958152D02*
X109785714Y-83053390D01*
X109785714Y-83053390D02*
X109738095Y-83101009D01*
X109738095Y-83101009D02*
X109642857Y-83148628D01*
X109642857Y-83148628D02*
X109261905Y-83148628D01*
X110404762Y-83053390D02*
X110309524Y-83005771D01*
X110309524Y-83005771D02*
X110261905Y-82958152D01*
X110261905Y-82958152D02*
X110214286Y-82862914D01*
X110214286Y-82862914D02*
X110214286Y-82815295D01*
X110214286Y-82815295D02*
X110261905Y-82720057D01*
X110261905Y-82720057D02*
X110309524Y-82672438D01*
X110309524Y-82672438D02*
X110404762Y-82624819D01*
X110404762Y-82624819D02*
X110595238Y-82624819D01*
X110595238Y-82624819D02*
X110690476Y-82672438D01*
X110690476Y-82672438D02*
X110738095Y-82720057D01*
X110738095Y-82720057D02*
X110785714Y-82815295D01*
X110785714Y-82815295D02*
X110785714Y-82862914D01*
X110785714Y-82862914D02*
X110738095Y-82958152D01*
X110738095Y-82958152D02*
X110690476Y-83005771D01*
X110690476Y-83005771D02*
X110595238Y-83053390D01*
X110595238Y-83053390D02*
X110404762Y-83053390D01*
X110404762Y-83053390D02*
X110309524Y-83101009D01*
X110309524Y-83101009D02*
X110261905Y-83148628D01*
X110261905Y-83148628D02*
X110214286Y-83243866D01*
X110214286Y-83243866D02*
X110214286Y-83434342D01*
X110214286Y-83434342D02*
X110261905Y-83529580D01*
X110261905Y-83529580D02*
X110309524Y-83577200D01*
X110309524Y-83577200D02*
X110404762Y-83624819D01*
X110404762Y-83624819D02*
X110595238Y-83624819D01*
X110595238Y-83624819D02*
X110690476Y-83577200D01*
X110690476Y-83577200D02*
X110738095Y-83529580D01*
X110738095Y-83529580D02*
X110785714Y-83434342D01*
X110785714Y-83434342D02*
X110785714Y-83243866D01*
X110785714Y-83243866D02*
X110738095Y-83148628D01*
X110738095Y-83148628D02*
X110690476Y-83101009D01*
X110690476Y-83101009D02*
X110595238Y-83053390D01*
X93357142Y-59804819D02*
X93023809Y-59328628D01*
X92785714Y-59804819D02*
X92785714Y-58804819D01*
X92785714Y-58804819D02*
X93166666Y-58804819D01*
X93166666Y-58804819D02*
X93261904Y-58852438D01*
X93261904Y-58852438D02*
X93309523Y-58900057D01*
X93309523Y-58900057D02*
X93357142Y-58995295D01*
X93357142Y-58995295D02*
X93357142Y-59138152D01*
X93357142Y-59138152D02*
X93309523Y-59233390D01*
X93309523Y-59233390D02*
X93261904Y-59281009D01*
X93261904Y-59281009D02*
X93166666Y-59328628D01*
X93166666Y-59328628D02*
X92785714Y-59328628D01*
X94309523Y-59804819D02*
X93738095Y-59804819D01*
X94023809Y-59804819D02*
X94023809Y-58804819D01*
X94023809Y-58804819D02*
X93928571Y-58947676D01*
X93928571Y-58947676D02*
X93833333Y-59042914D01*
X93833333Y-59042914D02*
X93738095Y-59090533D01*
X94880952Y-59233390D02*
X94785714Y-59185771D01*
X94785714Y-59185771D02*
X94738095Y-59138152D01*
X94738095Y-59138152D02*
X94690476Y-59042914D01*
X94690476Y-59042914D02*
X94690476Y-58995295D01*
X94690476Y-58995295D02*
X94738095Y-58900057D01*
X94738095Y-58900057D02*
X94785714Y-58852438D01*
X94785714Y-58852438D02*
X94880952Y-58804819D01*
X94880952Y-58804819D02*
X95071428Y-58804819D01*
X95071428Y-58804819D02*
X95166666Y-58852438D01*
X95166666Y-58852438D02*
X95214285Y-58900057D01*
X95214285Y-58900057D02*
X95261904Y-58995295D01*
X95261904Y-58995295D02*
X95261904Y-59042914D01*
X95261904Y-59042914D02*
X95214285Y-59138152D01*
X95214285Y-59138152D02*
X95166666Y-59185771D01*
X95166666Y-59185771D02*
X95071428Y-59233390D01*
X95071428Y-59233390D02*
X94880952Y-59233390D01*
X94880952Y-59233390D02*
X94785714Y-59281009D01*
X94785714Y-59281009D02*
X94738095Y-59328628D01*
X94738095Y-59328628D02*
X94690476Y-59423866D01*
X94690476Y-59423866D02*
X94690476Y-59614342D01*
X94690476Y-59614342D02*
X94738095Y-59709580D01*
X94738095Y-59709580D02*
X94785714Y-59757200D01*
X94785714Y-59757200D02*
X94880952Y-59804819D01*
X94880952Y-59804819D02*
X95071428Y-59804819D01*
X95071428Y-59804819D02*
X95166666Y-59757200D01*
X95166666Y-59757200D02*
X95214285Y-59709580D01*
X95214285Y-59709580D02*
X95261904Y-59614342D01*
X95261904Y-59614342D02*
X95261904Y-59423866D01*
X95261904Y-59423866D02*
X95214285Y-59328628D01*
X95214285Y-59328628D02*
X95166666Y-59281009D01*
X95166666Y-59281009D02*
X95071428Y-59233390D01*
X83357142Y-35454819D02*
X83023809Y-34978628D01*
X82785714Y-35454819D02*
X82785714Y-34454819D01*
X82785714Y-34454819D02*
X83166666Y-34454819D01*
X83166666Y-34454819D02*
X83261904Y-34502438D01*
X83261904Y-34502438D02*
X83309523Y-34550057D01*
X83309523Y-34550057D02*
X83357142Y-34645295D01*
X83357142Y-34645295D02*
X83357142Y-34788152D01*
X83357142Y-34788152D02*
X83309523Y-34883390D01*
X83309523Y-34883390D02*
X83261904Y-34931009D01*
X83261904Y-34931009D02*
X83166666Y-34978628D01*
X83166666Y-34978628D02*
X82785714Y-34978628D01*
X84309523Y-35454819D02*
X83738095Y-35454819D01*
X84023809Y-35454819D02*
X84023809Y-34454819D01*
X84023809Y-34454819D02*
X83928571Y-34597676D01*
X83928571Y-34597676D02*
X83833333Y-34692914D01*
X83833333Y-34692914D02*
X83738095Y-34740533D01*
X85261904Y-35454819D02*
X84690476Y-35454819D01*
X84976190Y-35454819D02*
X84976190Y-34454819D01*
X84976190Y-34454819D02*
X84880952Y-34597676D01*
X84880952Y-34597676D02*
X84785714Y-34692914D01*
X84785714Y-34692914D02*
X84690476Y-34740533D01*
X93357142Y-49804819D02*
X93023809Y-49328628D01*
X92785714Y-49804819D02*
X92785714Y-48804819D01*
X92785714Y-48804819D02*
X93166666Y-48804819D01*
X93166666Y-48804819D02*
X93261904Y-48852438D01*
X93261904Y-48852438D02*
X93309523Y-48900057D01*
X93309523Y-48900057D02*
X93357142Y-48995295D01*
X93357142Y-48995295D02*
X93357142Y-49138152D01*
X93357142Y-49138152D02*
X93309523Y-49233390D01*
X93309523Y-49233390D02*
X93261904Y-49281009D01*
X93261904Y-49281009D02*
X93166666Y-49328628D01*
X93166666Y-49328628D02*
X92785714Y-49328628D01*
X94309523Y-49804819D02*
X93738095Y-49804819D01*
X94023809Y-49804819D02*
X94023809Y-48804819D01*
X94023809Y-48804819D02*
X93928571Y-48947676D01*
X93928571Y-48947676D02*
X93833333Y-49042914D01*
X93833333Y-49042914D02*
X93738095Y-49090533D01*
X94642857Y-48804819D02*
X95309523Y-48804819D01*
X95309523Y-48804819D02*
X94880952Y-49804819D01*
X74238095Y-11054819D02*
X74238095Y-11864342D01*
X74238095Y-11864342D02*
X74285714Y-11959580D01*
X74285714Y-11959580D02*
X74333333Y-12007200D01*
X74333333Y-12007200D02*
X74428571Y-12054819D01*
X74428571Y-12054819D02*
X74619047Y-12054819D01*
X74619047Y-12054819D02*
X74714285Y-12007200D01*
X74714285Y-12007200D02*
X74761904Y-11959580D01*
X74761904Y-11959580D02*
X74809523Y-11864342D01*
X74809523Y-11864342D02*
X74809523Y-11054819D01*
X75809523Y-12054819D02*
X75238095Y-12054819D01*
X75523809Y-12054819D02*
X75523809Y-11054819D01*
X75523809Y-11054819D02*
X75428571Y-11197676D01*
X75428571Y-11197676D02*
X75333333Y-11292914D01*
X75333333Y-11292914D02*
X75238095Y-11340533D01*
X93833333Y-54679580D02*
X93785714Y-54727200D01*
X93785714Y-54727200D02*
X93642857Y-54774819D01*
X93642857Y-54774819D02*
X93547619Y-54774819D01*
X93547619Y-54774819D02*
X93404762Y-54727200D01*
X93404762Y-54727200D02*
X93309524Y-54631961D01*
X93309524Y-54631961D02*
X93261905Y-54536723D01*
X93261905Y-54536723D02*
X93214286Y-54346247D01*
X93214286Y-54346247D02*
X93214286Y-54203390D01*
X93214286Y-54203390D02*
X93261905Y-54012914D01*
X93261905Y-54012914D02*
X93309524Y-53917676D01*
X93309524Y-53917676D02*
X93404762Y-53822438D01*
X93404762Y-53822438D02*
X93547619Y-53774819D01*
X93547619Y-53774819D02*
X93642857Y-53774819D01*
X93642857Y-53774819D02*
X93785714Y-53822438D01*
X93785714Y-53822438D02*
X93833333Y-53870057D01*
X94309524Y-54774819D02*
X94500000Y-54774819D01*
X94500000Y-54774819D02*
X94595238Y-54727200D01*
X94595238Y-54727200D02*
X94642857Y-54679580D01*
X94642857Y-54679580D02*
X94738095Y-54536723D01*
X94738095Y-54536723D02*
X94785714Y-54346247D01*
X94785714Y-54346247D02*
X94785714Y-53965295D01*
X94785714Y-53965295D02*
X94738095Y-53870057D01*
X94738095Y-53870057D02*
X94690476Y-53822438D01*
X94690476Y-53822438D02*
X94595238Y-53774819D01*
X94595238Y-53774819D02*
X94404762Y-53774819D01*
X94404762Y-53774819D02*
X94309524Y-53822438D01*
X94309524Y-53822438D02*
X94261905Y-53870057D01*
X94261905Y-53870057D02*
X94214286Y-53965295D01*
X94214286Y-53965295D02*
X94214286Y-54203390D01*
X94214286Y-54203390D02*
X94261905Y-54298628D01*
X94261905Y-54298628D02*
X94309524Y-54346247D01*
X94309524Y-54346247D02*
X94404762Y-54393866D01*
X94404762Y-54393866D02*
X94595238Y-54393866D01*
X94595238Y-54393866D02*
X94690476Y-54346247D01*
X94690476Y-54346247D02*
X94738095Y-54298628D01*
X94738095Y-54298628D02*
X94785714Y-54203390D01*
X132833333Y-62804819D02*
X132500000Y-62328628D01*
X132261905Y-62804819D02*
X132261905Y-61804819D01*
X132261905Y-61804819D02*
X132642857Y-61804819D01*
X132642857Y-61804819D02*
X132738095Y-61852438D01*
X132738095Y-61852438D02*
X132785714Y-61900057D01*
X132785714Y-61900057D02*
X132833333Y-61995295D01*
X132833333Y-61995295D02*
X132833333Y-62138152D01*
X132833333Y-62138152D02*
X132785714Y-62233390D01*
X132785714Y-62233390D02*
X132738095Y-62281009D01*
X132738095Y-62281009D02*
X132642857Y-62328628D01*
X132642857Y-62328628D02*
X132261905Y-62328628D01*
X133309524Y-62804819D02*
X133500000Y-62804819D01*
X133500000Y-62804819D02*
X133595238Y-62757200D01*
X133595238Y-62757200D02*
X133642857Y-62709580D01*
X133642857Y-62709580D02*
X133738095Y-62566723D01*
X133738095Y-62566723D02*
X133785714Y-62376247D01*
X133785714Y-62376247D02*
X133785714Y-61995295D01*
X133785714Y-61995295D02*
X133738095Y-61900057D01*
X133738095Y-61900057D02*
X133690476Y-61852438D01*
X133690476Y-61852438D02*
X133595238Y-61804819D01*
X133595238Y-61804819D02*
X133404762Y-61804819D01*
X133404762Y-61804819D02*
X133309524Y-61852438D01*
X133309524Y-61852438D02*
X133261905Y-61900057D01*
X133261905Y-61900057D02*
X133214286Y-61995295D01*
X133214286Y-61995295D02*
X133214286Y-62233390D01*
X133214286Y-62233390D02*
X133261905Y-62328628D01*
X133261905Y-62328628D02*
X133309524Y-62376247D01*
X133309524Y-62376247D02*
X133404762Y-62423866D01*
X133404762Y-62423866D02*
X133595238Y-62423866D01*
X133595238Y-62423866D02*
X133690476Y-62376247D01*
X133690476Y-62376247D02*
X133738095Y-62328628D01*
X133738095Y-62328628D02*
X133785714Y-62233390D01*
X93804819Y-14166666D02*
X93328628Y-14499999D01*
X93804819Y-14738094D02*
X92804819Y-14738094D01*
X92804819Y-14738094D02*
X92804819Y-14357142D01*
X92804819Y-14357142D02*
X92852438Y-14261904D01*
X92852438Y-14261904D02*
X92900057Y-14214285D01*
X92900057Y-14214285D02*
X92995295Y-14166666D01*
X92995295Y-14166666D02*
X93138152Y-14166666D01*
X93138152Y-14166666D02*
X93233390Y-14214285D01*
X93233390Y-14214285D02*
X93281009Y-14261904D01*
X93281009Y-14261904D02*
X93328628Y-14357142D01*
X93328628Y-14357142D02*
X93328628Y-14738094D01*
X93138152Y-13309523D02*
X93804819Y-13309523D01*
X92757200Y-13547618D02*
X93471485Y-13785713D01*
X93471485Y-13785713D02*
X93471485Y-13166666D01*
X93357142Y-63804819D02*
X93023809Y-63328628D01*
X92785714Y-63804819D02*
X92785714Y-62804819D01*
X92785714Y-62804819D02*
X93166666Y-62804819D01*
X93166666Y-62804819D02*
X93261904Y-62852438D01*
X93261904Y-62852438D02*
X93309523Y-62900057D01*
X93309523Y-62900057D02*
X93357142Y-62995295D01*
X93357142Y-62995295D02*
X93357142Y-63138152D01*
X93357142Y-63138152D02*
X93309523Y-63233390D01*
X93309523Y-63233390D02*
X93261904Y-63281009D01*
X93261904Y-63281009D02*
X93166666Y-63328628D01*
X93166666Y-63328628D02*
X92785714Y-63328628D01*
X94309523Y-63804819D02*
X93738095Y-63804819D01*
X94023809Y-63804819D02*
X94023809Y-62804819D01*
X94023809Y-62804819D02*
X93928571Y-62947676D01*
X93928571Y-62947676D02*
X93833333Y-63042914D01*
X93833333Y-63042914D02*
X93738095Y-63090533D01*
X94785714Y-63804819D02*
X94976190Y-63804819D01*
X94976190Y-63804819D02*
X95071428Y-63757200D01*
X95071428Y-63757200D02*
X95119047Y-63709580D01*
X95119047Y-63709580D02*
X95214285Y-63566723D01*
X95214285Y-63566723D02*
X95261904Y-63376247D01*
X95261904Y-63376247D02*
X95261904Y-62995295D01*
X95261904Y-62995295D02*
X95214285Y-62900057D01*
X95214285Y-62900057D02*
X95166666Y-62852438D01*
X95166666Y-62852438D02*
X95071428Y-62804819D01*
X95071428Y-62804819D02*
X94880952Y-62804819D01*
X94880952Y-62804819D02*
X94785714Y-62852438D01*
X94785714Y-62852438D02*
X94738095Y-62900057D01*
X94738095Y-62900057D02*
X94690476Y-62995295D01*
X94690476Y-62995295D02*
X94690476Y-63233390D01*
X94690476Y-63233390D02*
X94738095Y-63328628D01*
X94738095Y-63328628D02*
X94785714Y-63376247D01*
X94785714Y-63376247D02*
X94880952Y-63423866D01*
X94880952Y-63423866D02*
X95071428Y-63423866D01*
X95071428Y-63423866D02*
X95166666Y-63376247D01*
X95166666Y-63376247D02*
X95214285Y-63328628D01*
X95214285Y-63328628D02*
X95261904Y-63233390D01*
X120833333Y-89359580D02*
X120785714Y-89407200D01*
X120785714Y-89407200D02*
X120642857Y-89454819D01*
X120642857Y-89454819D02*
X120547619Y-89454819D01*
X120547619Y-89454819D02*
X120404762Y-89407200D01*
X120404762Y-89407200D02*
X120309524Y-89311961D01*
X120309524Y-89311961D02*
X120261905Y-89216723D01*
X120261905Y-89216723D02*
X120214286Y-89026247D01*
X120214286Y-89026247D02*
X120214286Y-88883390D01*
X120214286Y-88883390D02*
X120261905Y-88692914D01*
X120261905Y-88692914D02*
X120309524Y-88597676D01*
X120309524Y-88597676D02*
X120404762Y-88502438D01*
X120404762Y-88502438D02*
X120547619Y-88454819D01*
X120547619Y-88454819D02*
X120642857Y-88454819D01*
X120642857Y-88454819D02*
X120785714Y-88502438D01*
X120785714Y-88502438D02*
X120833333Y-88550057D01*
X121404762Y-88883390D02*
X121309524Y-88835771D01*
X121309524Y-88835771D02*
X121261905Y-88788152D01*
X121261905Y-88788152D02*
X121214286Y-88692914D01*
X121214286Y-88692914D02*
X121214286Y-88645295D01*
X121214286Y-88645295D02*
X121261905Y-88550057D01*
X121261905Y-88550057D02*
X121309524Y-88502438D01*
X121309524Y-88502438D02*
X121404762Y-88454819D01*
X121404762Y-88454819D02*
X121595238Y-88454819D01*
X121595238Y-88454819D02*
X121690476Y-88502438D01*
X121690476Y-88502438D02*
X121738095Y-88550057D01*
X121738095Y-88550057D02*
X121785714Y-88645295D01*
X121785714Y-88645295D02*
X121785714Y-88692914D01*
X121785714Y-88692914D02*
X121738095Y-88788152D01*
X121738095Y-88788152D02*
X121690476Y-88835771D01*
X121690476Y-88835771D02*
X121595238Y-88883390D01*
X121595238Y-88883390D02*
X121404762Y-88883390D01*
X121404762Y-88883390D02*
X121309524Y-88931009D01*
X121309524Y-88931009D02*
X121261905Y-88978628D01*
X121261905Y-88978628D02*
X121214286Y-89073866D01*
X121214286Y-89073866D02*
X121214286Y-89264342D01*
X121214286Y-89264342D02*
X121261905Y-89359580D01*
X121261905Y-89359580D02*
X121309524Y-89407200D01*
X121309524Y-89407200D02*
X121404762Y-89454819D01*
X121404762Y-89454819D02*
X121595238Y-89454819D01*
X121595238Y-89454819D02*
X121690476Y-89407200D01*
X121690476Y-89407200D02*
X121738095Y-89359580D01*
X121738095Y-89359580D02*
X121785714Y-89264342D01*
X121785714Y-89264342D02*
X121785714Y-89073866D01*
X121785714Y-89073866D02*
X121738095Y-88978628D01*
X121738095Y-88978628D02*
X121690476Y-88931009D01*
X121690476Y-88931009D02*
X121595238Y-88883390D01*
X137261905Y-87454819D02*
X137261905Y-86454819D01*
X137261905Y-86454819D02*
X137500000Y-86454819D01*
X137500000Y-86454819D02*
X137642857Y-86502438D01*
X137642857Y-86502438D02*
X137738095Y-86597676D01*
X137738095Y-86597676D02*
X137785714Y-86692914D01*
X137785714Y-86692914D02*
X137833333Y-86883390D01*
X137833333Y-86883390D02*
X137833333Y-87026247D01*
X137833333Y-87026247D02*
X137785714Y-87216723D01*
X137785714Y-87216723D02*
X137738095Y-87311961D01*
X137738095Y-87311961D02*
X137642857Y-87407200D01*
X137642857Y-87407200D02*
X137500000Y-87454819D01*
X137500000Y-87454819D02*
X137261905Y-87454819D01*
X138785714Y-87454819D02*
X138214286Y-87454819D01*
X138500000Y-87454819D02*
X138500000Y-86454819D01*
X138500000Y-86454819D02*
X138404762Y-86597676D01*
X138404762Y-86597676D02*
X138309524Y-86692914D01*
X138309524Y-86692914D02*
X138214286Y-86740533D01*
X131833333Y-55454819D02*
X131500000Y-54978628D01*
X131261905Y-55454819D02*
X131261905Y-54454819D01*
X131261905Y-54454819D02*
X131642857Y-54454819D01*
X131642857Y-54454819D02*
X131738095Y-54502438D01*
X131738095Y-54502438D02*
X131785714Y-54550057D01*
X131785714Y-54550057D02*
X131833333Y-54645295D01*
X131833333Y-54645295D02*
X131833333Y-54788152D01*
X131833333Y-54788152D02*
X131785714Y-54883390D01*
X131785714Y-54883390D02*
X131738095Y-54931009D01*
X131738095Y-54931009D02*
X131642857Y-54978628D01*
X131642857Y-54978628D02*
X131261905Y-54978628D01*
X132738095Y-54454819D02*
X132261905Y-54454819D01*
X132261905Y-54454819D02*
X132214286Y-54931009D01*
X132214286Y-54931009D02*
X132261905Y-54883390D01*
X132261905Y-54883390D02*
X132357143Y-54835771D01*
X132357143Y-54835771D02*
X132595238Y-54835771D01*
X132595238Y-54835771D02*
X132690476Y-54883390D01*
X132690476Y-54883390D02*
X132738095Y-54931009D01*
X132738095Y-54931009D02*
X132785714Y-55026247D01*
X132785714Y-55026247D02*
X132785714Y-55264342D01*
X132785714Y-55264342D02*
X132738095Y-55359580D01*
X132738095Y-55359580D02*
X132690476Y-55407200D01*
X132690476Y-55407200D02*
X132595238Y-55454819D01*
X132595238Y-55454819D02*
X132357143Y-55454819D01*
X132357143Y-55454819D02*
X132261905Y-55407200D01*
X132261905Y-55407200D02*
X132214286Y-55359580D01*
X131833333Y-58454819D02*
X131500000Y-57978628D01*
X131261905Y-58454819D02*
X131261905Y-57454819D01*
X131261905Y-57454819D02*
X131642857Y-57454819D01*
X131642857Y-57454819D02*
X131738095Y-57502438D01*
X131738095Y-57502438D02*
X131785714Y-57550057D01*
X131785714Y-57550057D02*
X131833333Y-57645295D01*
X131833333Y-57645295D02*
X131833333Y-57788152D01*
X131833333Y-57788152D02*
X131785714Y-57883390D01*
X131785714Y-57883390D02*
X131738095Y-57931009D01*
X131738095Y-57931009D02*
X131642857Y-57978628D01*
X131642857Y-57978628D02*
X131261905Y-57978628D01*
X132690476Y-57454819D02*
X132500000Y-57454819D01*
X132500000Y-57454819D02*
X132404762Y-57502438D01*
X132404762Y-57502438D02*
X132357143Y-57550057D01*
X132357143Y-57550057D02*
X132261905Y-57692914D01*
X132261905Y-57692914D02*
X132214286Y-57883390D01*
X132214286Y-57883390D02*
X132214286Y-58264342D01*
X132214286Y-58264342D02*
X132261905Y-58359580D01*
X132261905Y-58359580D02*
X132309524Y-58407200D01*
X132309524Y-58407200D02*
X132404762Y-58454819D01*
X132404762Y-58454819D02*
X132595238Y-58454819D01*
X132595238Y-58454819D02*
X132690476Y-58407200D01*
X132690476Y-58407200D02*
X132738095Y-58359580D01*
X132738095Y-58359580D02*
X132785714Y-58264342D01*
X132785714Y-58264342D02*
X132785714Y-58026247D01*
X132785714Y-58026247D02*
X132738095Y-57931009D01*
X132738095Y-57931009D02*
X132690476Y-57883390D01*
X132690476Y-57883390D02*
X132595238Y-57835771D01*
X132595238Y-57835771D02*
X132404762Y-57835771D01*
X132404762Y-57835771D02*
X132309524Y-57883390D01*
X132309524Y-57883390D02*
X132261905Y-57931009D01*
X132261905Y-57931009D02*
X132214286Y-58026247D01*
X132357142Y-28804819D02*
X132023809Y-28328628D01*
X131785714Y-28804819D02*
X131785714Y-27804819D01*
X131785714Y-27804819D02*
X132166666Y-27804819D01*
X132166666Y-27804819D02*
X132261904Y-27852438D01*
X132261904Y-27852438D02*
X132309523Y-27900057D01*
X132309523Y-27900057D02*
X132357142Y-27995295D01*
X132357142Y-27995295D02*
X132357142Y-28138152D01*
X132357142Y-28138152D02*
X132309523Y-28233390D01*
X132309523Y-28233390D02*
X132261904Y-28281009D01*
X132261904Y-28281009D02*
X132166666Y-28328628D01*
X132166666Y-28328628D02*
X131785714Y-28328628D01*
X133309523Y-28804819D02*
X132738095Y-28804819D01*
X133023809Y-28804819D02*
X133023809Y-27804819D01*
X133023809Y-27804819D02*
X132928571Y-27947676D01*
X132928571Y-27947676D02*
X132833333Y-28042914D01*
X132833333Y-28042914D02*
X132738095Y-28090533D01*
X134166666Y-28138152D02*
X134166666Y-28804819D01*
X133928571Y-27757200D02*
X133690476Y-28471485D01*
X133690476Y-28471485D02*
X134309523Y-28471485D01*
X71039580Y-15166666D02*
X71087200Y-15214285D01*
X71087200Y-15214285D02*
X71134819Y-15357142D01*
X71134819Y-15357142D02*
X71134819Y-15452380D01*
X71134819Y-15452380D02*
X71087200Y-15595237D01*
X71087200Y-15595237D02*
X70991961Y-15690475D01*
X70991961Y-15690475D02*
X70896723Y-15738094D01*
X70896723Y-15738094D02*
X70706247Y-15785713D01*
X70706247Y-15785713D02*
X70563390Y-15785713D01*
X70563390Y-15785713D02*
X70372914Y-15738094D01*
X70372914Y-15738094D02*
X70277676Y-15690475D01*
X70277676Y-15690475D02*
X70182438Y-15595237D01*
X70182438Y-15595237D02*
X70134819Y-15452380D01*
X70134819Y-15452380D02*
X70134819Y-15357142D01*
X70134819Y-15357142D02*
X70182438Y-15214285D01*
X70182438Y-15214285D02*
X70230057Y-15166666D01*
X71134819Y-14214285D02*
X71134819Y-14785713D01*
X71134819Y-14499999D02*
X70134819Y-14499999D01*
X70134819Y-14499999D02*
X70277676Y-14595237D01*
X70277676Y-14595237D02*
X70372914Y-14690475D01*
X70372914Y-14690475D02*
X70420533Y-14785713D01*
X90238095Y-72054819D02*
X90238095Y-72864342D01*
X90238095Y-72864342D02*
X90285714Y-72959580D01*
X90285714Y-72959580D02*
X90333333Y-73007200D01*
X90333333Y-73007200D02*
X90428571Y-73054819D01*
X90428571Y-73054819D02*
X90619047Y-73054819D01*
X90619047Y-73054819D02*
X90714285Y-73007200D01*
X90714285Y-73007200D02*
X90761904Y-72959580D01*
X90761904Y-72959580D02*
X90809523Y-72864342D01*
X90809523Y-72864342D02*
X90809523Y-72054819D01*
X91238095Y-72150057D02*
X91285714Y-72102438D01*
X91285714Y-72102438D02*
X91380952Y-72054819D01*
X91380952Y-72054819D02*
X91619047Y-72054819D01*
X91619047Y-72054819D02*
X91714285Y-72102438D01*
X91714285Y-72102438D02*
X91761904Y-72150057D01*
X91761904Y-72150057D02*
X91809523Y-72245295D01*
X91809523Y-72245295D02*
X91809523Y-72340533D01*
X91809523Y-72340533D02*
X91761904Y-72483390D01*
X91761904Y-72483390D02*
X91190476Y-73054819D01*
X91190476Y-73054819D02*
X91809523Y-73054819D01*
X109833333Y-71624819D02*
X109500000Y-71148628D01*
X109261905Y-71624819D02*
X109261905Y-70624819D01*
X109261905Y-70624819D02*
X109642857Y-70624819D01*
X109642857Y-70624819D02*
X109738095Y-70672438D01*
X109738095Y-70672438D02*
X109785714Y-70720057D01*
X109785714Y-70720057D02*
X109833333Y-70815295D01*
X109833333Y-70815295D02*
X109833333Y-70958152D01*
X109833333Y-70958152D02*
X109785714Y-71053390D01*
X109785714Y-71053390D02*
X109738095Y-71101009D01*
X109738095Y-71101009D02*
X109642857Y-71148628D01*
X109642857Y-71148628D02*
X109261905Y-71148628D01*
X110166667Y-70624819D02*
X110833333Y-70624819D01*
X110833333Y-70624819D02*
X110404762Y-71624819D01*
X134333333Y-80359580D02*
X134285714Y-80407200D01*
X134285714Y-80407200D02*
X134142857Y-80454819D01*
X134142857Y-80454819D02*
X134047619Y-80454819D01*
X134047619Y-80454819D02*
X133904762Y-80407200D01*
X133904762Y-80407200D02*
X133809524Y-80311961D01*
X133809524Y-80311961D02*
X133761905Y-80216723D01*
X133761905Y-80216723D02*
X133714286Y-80026247D01*
X133714286Y-80026247D02*
X133714286Y-79883390D01*
X133714286Y-79883390D02*
X133761905Y-79692914D01*
X133761905Y-79692914D02*
X133809524Y-79597676D01*
X133809524Y-79597676D02*
X133904762Y-79502438D01*
X133904762Y-79502438D02*
X134047619Y-79454819D01*
X134047619Y-79454819D02*
X134142857Y-79454819D01*
X134142857Y-79454819D02*
X134285714Y-79502438D01*
X134285714Y-79502438D02*
X134333333Y-79550057D01*
X135190476Y-79454819D02*
X135000000Y-79454819D01*
X135000000Y-79454819D02*
X134904762Y-79502438D01*
X134904762Y-79502438D02*
X134857143Y-79550057D01*
X134857143Y-79550057D02*
X134761905Y-79692914D01*
X134761905Y-79692914D02*
X134714286Y-79883390D01*
X134714286Y-79883390D02*
X134714286Y-80264342D01*
X134714286Y-80264342D02*
X134761905Y-80359580D01*
X134761905Y-80359580D02*
X134809524Y-80407200D01*
X134809524Y-80407200D02*
X134904762Y-80454819D01*
X134904762Y-80454819D02*
X135095238Y-80454819D01*
X135095238Y-80454819D02*
X135190476Y-80407200D01*
X135190476Y-80407200D02*
X135238095Y-80359580D01*
X135238095Y-80359580D02*
X135285714Y-80264342D01*
X135285714Y-80264342D02*
X135285714Y-80026247D01*
X135285714Y-80026247D02*
X135238095Y-79931009D01*
X135238095Y-79931009D02*
X135190476Y-79883390D01*
X135190476Y-79883390D02*
X135095238Y-79835771D01*
X135095238Y-79835771D02*
X134904762Y-79835771D01*
X134904762Y-79835771D02*
X134809524Y-79883390D01*
X134809524Y-79883390D02*
X134761905Y-79931009D01*
X134761905Y-79931009D02*
X134714286Y-80026247D01*
X122238095Y-73954819D02*
X122238095Y-74764342D01*
X122238095Y-74764342D02*
X122285714Y-74859580D01*
X122285714Y-74859580D02*
X122333333Y-74907200D01*
X122333333Y-74907200D02*
X122428571Y-74954819D01*
X122428571Y-74954819D02*
X122619047Y-74954819D01*
X122619047Y-74954819D02*
X122714285Y-74907200D01*
X122714285Y-74907200D02*
X122761904Y-74859580D01*
X122761904Y-74859580D02*
X122809523Y-74764342D01*
X122809523Y-74764342D02*
X122809523Y-73954819D01*
X123190476Y-73954819D02*
X123809523Y-73954819D01*
X123809523Y-73954819D02*
X123476190Y-74335771D01*
X123476190Y-74335771D02*
X123619047Y-74335771D01*
X123619047Y-74335771D02*
X123714285Y-74383390D01*
X123714285Y-74383390D02*
X123761904Y-74431009D01*
X123761904Y-74431009D02*
X123809523Y-74526247D01*
X123809523Y-74526247D02*
X123809523Y-74764342D01*
X123809523Y-74764342D02*
X123761904Y-74859580D01*
X123761904Y-74859580D02*
X123714285Y-74907200D01*
X123714285Y-74907200D02*
X123619047Y-74954819D01*
X123619047Y-74954819D02*
X123333333Y-74954819D01*
X123333333Y-74954819D02*
X123238095Y-74907200D01*
X123238095Y-74907200D02*
X123190476Y-74859580D01*
X83357142Y-38454819D02*
X83023809Y-37978628D01*
X82785714Y-38454819D02*
X82785714Y-37454819D01*
X82785714Y-37454819D02*
X83166666Y-37454819D01*
X83166666Y-37454819D02*
X83261904Y-37502438D01*
X83261904Y-37502438D02*
X83309523Y-37550057D01*
X83309523Y-37550057D02*
X83357142Y-37645295D01*
X83357142Y-37645295D02*
X83357142Y-37788152D01*
X83357142Y-37788152D02*
X83309523Y-37883390D01*
X83309523Y-37883390D02*
X83261904Y-37931009D01*
X83261904Y-37931009D02*
X83166666Y-37978628D01*
X83166666Y-37978628D02*
X82785714Y-37978628D01*
X84309523Y-38454819D02*
X83738095Y-38454819D01*
X84023809Y-38454819D02*
X84023809Y-37454819D01*
X84023809Y-37454819D02*
X83928571Y-37597676D01*
X83928571Y-37597676D02*
X83833333Y-37692914D01*
X83833333Y-37692914D02*
X83738095Y-37740533D01*
X84690476Y-37550057D02*
X84738095Y-37502438D01*
X84738095Y-37502438D02*
X84833333Y-37454819D01*
X84833333Y-37454819D02*
X85071428Y-37454819D01*
X85071428Y-37454819D02*
X85166666Y-37502438D01*
X85166666Y-37502438D02*
X85214285Y-37550057D01*
X85214285Y-37550057D02*
X85261904Y-37645295D01*
X85261904Y-37645295D02*
X85261904Y-37740533D01*
X85261904Y-37740533D02*
X85214285Y-37883390D01*
X85214285Y-37883390D02*
X84642857Y-38454819D01*
X84642857Y-38454819D02*
X85261904Y-38454819D01*
X132333333Y-74359580D02*
X132285714Y-74407200D01*
X132285714Y-74407200D02*
X132142857Y-74454819D01*
X132142857Y-74454819D02*
X132047619Y-74454819D01*
X132047619Y-74454819D02*
X131904762Y-74407200D01*
X131904762Y-74407200D02*
X131809524Y-74311961D01*
X131809524Y-74311961D02*
X131761905Y-74216723D01*
X131761905Y-74216723D02*
X131714286Y-74026247D01*
X131714286Y-74026247D02*
X131714286Y-73883390D01*
X131714286Y-73883390D02*
X131761905Y-73692914D01*
X131761905Y-73692914D02*
X131809524Y-73597676D01*
X131809524Y-73597676D02*
X131904762Y-73502438D01*
X131904762Y-73502438D02*
X132047619Y-73454819D01*
X132047619Y-73454819D02*
X132142857Y-73454819D01*
X132142857Y-73454819D02*
X132285714Y-73502438D01*
X132285714Y-73502438D02*
X132333333Y-73550057D01*
X132666667Y-73454819D02*
X133333333Y-73454819D01*
X133333333Y-73454819D02*
X132904762Y-74454819D01*
X85833333Y-74804819D02*
X85500000Y-74328628D01*
X85261905Y-74804819D02*
X85261905Y-73804819D01*
X85261905Y-73804819D02*
X85642857Y-73804819D01*
X85642857Y-73804819D02*
X85738095Y-73852438D01*
X85738095Y-73852438D02*
X85785714Y-73900057D01*
X85785714Y-73900057D02*
X85833333Y-73995295D01*
X85833333Y-73995295D02*
X85833333Y-74138152D01*
X85833333Y-74138152D02*
X85785714Y-74233390D01*
X85785714Y-74233390D02*
X85738095Y-74281009D01*
X85738095Y-74281009D02*
X85642857Y-74328628D01*
X85642857Y-74328628D02*
X85261905Y-74328628D01*
X86785714Y-74804819D02*
X86214286Y-74804819D01*
X86500000Y-74804819D02*
X86500000Y-73804819D01*
X86500000Y-73804819D02*
X86404762Y-73947676D01*
X86404762Y-73947676D02*
X86309524Y-74042914D01*
X86309524Y-74042914D02*
X86214286Y-74090533D01*
X139357142Y-28804819D02*
X139023809Y-28328628D01*
X138785714Y-28804819D02*
X138785714Y-27804819D01*
X138785714Y-27804819D02*
X139166666Y-27804819D01*
X139166666Y-27804819D02*
X139261904Y-27852438D01*
X139261904Y-27852438D02*
X139309523Y-27900057D01*
X139309523Y-27900057D02*
X139357142Y-27995295D01*
X139357142Y-27995295D02*
X139357142Y-28138152D01*
X139357142Y-28138152D02*
X139309523Y-28233390D01*
X139309523Y-28233390D02*
X139261904Y-28281009D01*
X139261904Y-28281009D02*
X139166666Y-28328628D01*
X139166666Y-28328628D02*
X138785714Y-28328628D01*
X140309523Y-28804819D02*
X139738095Y-28804819D01*
X140023809Y-28804819D02*
X140023809Y-27804819D01*
X140023809Y-27804819D02*
X139928571Y-27947676D01*
X139928571Y-27947676D02*
X139833333Y-28042914D01*
X139833333Y-28042914D02*
X139738095Y-28090533D01*
X141214285Y-27804819D02*
X140738095Y-27804819D01*
X140738095Y-27804819D02*
X140690476Y-28281009D01*
X140690476Y-28281009D02*
X140738095Y-28233390D01*
X140738095Y-28233390D02*
X140833333Y-28185771D01*
X140833333Y-28185771D02*
X141071428Y-28185771D01*
X141071428Y-28185771D02*
X141166666Y-28233390D01*
X141166666Y-28233390D02*
X141214285Y-28281009D01*
X141214285Y-28281009D02*
X141261904Y-28376247D01*
X141261904Y-28376247D02*
X141261904Y-28614342D01*
X141261904Y-28614342D02*
X141214285Y-28709580D01*
X141214285Y-28709580D02*
X141166666Y-28757200D01*
X141166666Y-28757200D02*
X141071428Y-28804819D01*
X141071428Y-28804819D02*
X140833333Y-28804819D01*
X140833333Y-28804819D02*
X140738095Y-28757200D01*
X140738095Y-28757200D02*
X140690476Y-28709580D01*
X98333333Y-75359580D02*
X98285714Y-75407200D01*
X98285714Y-75407200D02*
X98142857Y-75454819D01*
X98142857Y-75454819D02*
X98047619Y-75454819D01*
X98047619Y-75454819D02*
X97904762Y-75407200D01*
X97904762Y-75407200D02*
X97809524Y-75311961D01*
X97809524Y-75311961D02*
X97761905Y-75216723D01*
X97761905Y-75216723D02*
X97714286Y-75026247D01*
X97714286Y-75026247D02*
X97714286Y-74883390D01*
X97714286Y-74883390D02*
X97761905Y-74692914D01*
X97761905Y-74692914D02*
X97809524Y-74597676D01*
X97809524Y-74597676D02*
X97904762Y-74502438D01*
X97904762Y-74502438D02*
X98047619Y-74454819D01*
X98047619Y-74454819D02*
X98142857Y-74454819D01*
X98142857Y-74454819D02*
X98285714Y-74502438D01*
X98285714Y-74502438D02*
X98333333Y-74550057D01*
X98666667Y-74454819D02*
X99285714Y-74454819D01*
X99285714Y-74454819D02*
X98952381Y-74835771D01*
X98952381Y-74835771D02*
X99095238Y-74835771D01*
X99095238Y-74835771D02*
X99190476Y-74883390D01*
X99190476Y-74883390D02*
X99238095Y-74931009D01*
X99238095Y-74931009D02*
X99285714Y-75026247D01*
X99285714Y-75026247D02*
X99285714Y-75264342D01*
X99285714Y-75264342D02*
X99238095Y-75359580D01*
X99238095Y-75359580D02*
X99190476Y-75407200D01*
X99190476Y-75407200D02*
X99095238Y-75454819D01*
X99095238Y-75454819D02*
X98809524Y-75454819D01*
X98809524Y-75454819D02*
X98714286Y-75407200D01*
X98714286Y-75407200D02*
X98666667Y-75359580D01*
X136238095Y-39174819D02*
X136238095Y-39984342D01*
X136238095Y-39984342D02*
X136285714Y-40079580D01*
X136285714Y-40079580D02*
X136333333Y-40127200D01*
X136333333Y-40127200D02*
X136428571Y-40174819D01*
X136428571Y-40174819D02*
X136619047Y-40174819D01*
X136619047Y-40174819D02*
X136714285Y-40127200D01*
X136714285Y-40127200D02*
X136761904Y-40079580D01*
X136761904Y-40079580D02*
X136809523Y-39984342D01*
X136809523Y-39984342D02*
X136809523Y-39174819D01*
X137714285Y-39508152D02*
X137714285Y-40174819D01*
X137476190Y-39127200D02*
X137238095Y-39841485D01*
X137238095Y-39841485D02*
X137857142Y-39841485D01*
X84833333Y-79804819D02*
X84500000Y-79328628D01*
X84261905Y-79804819D02*
X84261905Y-78804819D01*
X84261905Y-78804819D02*
X84642857Y-78804819D01*
X84642857Y-78804819D02*
X84738095Y-78852438D01*
X84738095Y-78852438D02*
X84785714Y-78900057D01*
X84785714Y-78900057D02*
X84833333Y-78995295D01*
X84833333Y-78995295D02*
X84833333Y-79138152D01*
X84833333Y-79138152D02*
X84785714Y-79233390D01*
X84785714Y-79233390D02*
X84738095Y-79281009D01*
X84738095Y-79281009D02*
X84642857Y-79328628D01*
X84642857Y-79328628D02*
X84261905Y-79328628D01*
X85166667Y-78804819D02*
X85785714Y-78804819D01*
X85785714Y-78804819D02*
X85452381Y-79185771D01*
X85452381Y-79185771D02*
X85595238Y-79185771D01*
X85595238Y-79185771D02*
X85690476Y-79233390D01*
X85690476Y-79233390D02*
X85738095Y-79281009D01*
X85738095Y-79281009D02*
X85785714Y-79376247D01*
X85785714Y-79376247D02*
X85785714Y-79614342D01*
X85785714Y-79614342D02*
X85738095Y-79709580D01*
X85738095Y-79709580D02*
X85690476Y-79757200D01*
X85690476Y-79757200D02*
X85595238Y-79804819D01*
X85595238Y-79804819D02*
X85309524Y-79804819D01*
X85309524Y-79804819D02*
X85214286Y-79757200D01*
X85214286Y-79757200D02*
X85166667Y-79709580D01*
X83357142Y-41454819D02*
X83023809Y-40978628D01*
X82785714Y-41454819D02*
X82785714Y-40454819D01*
X82785714Y-40454819D02*
X83166666Y-40454819D01*
X83166666Y-40454819D02*
X83261904Y-40502438D01*
X83261904Y-40502438D02*
X83309523Y-40550057D01*
X83309523Y-40550057D02*
X83357142Y-40645295D01*
X83357142Y-40645295D02*
X83357142Y-40788152D01*
X83357142Y-40788152D02*
X83309523Y-40883390D01*
X83309523Y-40883390D02*
X83261904Y-40931009D01*
X83261904Y-40931009D02*
X83166666Y-40978628D01*
X83166666Y-40978628D02*
X82785714Y-40978628D01*
X84309523Y-41454819D02*
X83738095Y-41454819D01*
X84023809Y-41454819D02*
X84023809Y-40454819D01*
X84023809Y-40454819D02*
X83928571Y-40597676D01*
X83928571Y-40597676D02*
X83833333Y-40692914D01*
X83833333Y-40692914D02*
X83738095Y-40740533D01*
X84642857Y-40454819D02*
X85261904Y-40454819D01*
X85261904Y-40454819D02*
X84928571Y-40835771D01*
X84928571Y-40835771D02*
X85071428Y-40835771D01*
X85071428Y-40835771D02*
X85166666Y-40883390D01*
X85166666Y-40883390D02*
X85214285Y-40931009D01*
X85214285Y-40931009D02*
X85261904Y-41026247D01*
X85261904Y-41026247D02*
X85261904Y-41264342D01*
X85261904Y-41264342D02*
X85214285Y-41359580D01*
X85214285Y-41359580D02*
X85166666Y-41407200D01*
X85166666Y-41407200D02*
X85071428Y-41454819D01*
X85071428Y-41454819D02*
X84785714Y-41454819D01*
X84785714Y-41454819D02*
X84690476Y-41407200D01*
X84690476Y-41407200D02*
X84642857Y-41359580D01*
X134333333Y-77359580D02*
X134285714Y-77407200D01*
X134285714Y-77407200D02*
X134142857Y-77454819D01*
X134142857Y-77454819D02*
X134047619Y-77454819D01*
X134047619Y-77454819D02*
X133904762Y-77407200D01*
X133904762Y-77407200D02*
X133809524Y-77311961D01*
X133809524Y-77311961D02*
X133761905Y-77216723D01*
X133761905Y-77216723D02*
X133714286Y-77026247D01*
X133714286Y-77026247D02*
X133714286Y-76883390D01*
X133714286Y-76883390D02*
X133761905Y-76692914D01*
X133761905Y-76692914D02*
X133809524Y-76597676D01*
X133809524Y-76597676D02*
X133904762Y-76502438D01*
X133904762Y-76502438D02*
X134047619Y-76454819D01*
X134047619Y-76454819D02*
X134142857Y-76454819D01*
X134142857Y-76454819D02*
X134285714Y-76502438D01*
X134285714Y-76502438D02*
X134333333Y-76550057D01*
X135238095Y-76454819D02*
X134761905Y-76454819D01*
X134761905Y-76454819D02*
X134714286Y-76931009D01*
X134714286Y-76931009D02*
X134761905Y-76883390D01*
X134761905Y-76883390D02*
X134857143Y-76835771D01*
X134857143Y-76835771D02*
X135095238Y-76835771D01*
X135095238Y-76835771D02*
X135190476Y-76883390D01*
X135190476Y-76883390D02*
X135238095Y-76931009D01*
X135238095Y-76931009D02*
X135285714Y-77026247D01*
X135285714Y-77026247D02*
X135285714Y-77264342D01*
X135285714Y-77264342D02*
X135238095Y-77359580D01*
X135238095Y-77359580D02*
X135190476Y-77407200D01*
X135190476Y-77407200D02*
X135095238Y-77454819D01*
X135095238Y-77454819D02*
X134857143Y-77454819D01*
X134857143Y-77454819D02*
X134761905Y-77407200D01*
X134761905Y-77407200D02*
X134714286Y-77359580D01*
X83039580Y-15166666D02*
X83087200Y-15214285D01*
X83087200Y-15214285D02*
X83134819Y-15357142D01*
X83134819Y-15357142D02*
X83134819Y-15452380D01*
X83134819Y-15452380D02*
X83087200Y-15595237D01*
X83087200Y-15595237D02*
X82991961Y-15690475D01*
X82991961Y-15690475D02*
X82896723Y-15738094D01*
X82896723Y-15738094D02*
X82706247Y-15785713D01*
X82706247Y-15785713D02*
X82563390Y-15785713D01*
X82563390Y-15785713D02*
X82372914Y-15738094D01*
X82372914Y-15738094D02*
X82277676Y-15690475D01*
X82277676Y-15690475D02*
X82182438Y-15595237D01*
X82182438Y-15595237D02*
X82134819Y-15452380D01*
X82134819Y-15452380D02*
X82134819Y-15357142D01*
X82134819Y-15357142D02*
X82182438Y-15214285D01*
X82182438Y-15214285D02*
X82230057Y-15166666D01*
X82230057Y-14785713D02*
X82182438Y-14738094D01*
X82182438Y-14738094D02*
X82134819Y-14642856D01*
X82134819Y-14642856D02*
X82134819Y-14404761D01*
X82134819Y-14404761D02*
X82182438Y-14309523D01*
X82182438Y-14309523D02*
X82230057Y-14261904D01*
X82230057Y-14261904D02*
X82325295Y-14214285D01*
X82325295Y-14214285D02*
X82420533Y-14214285D01*
X82420533Y-14214285D02*
X82563390Y-14261904D01*
X82563390Y-14261904D02*
X83134819Y-14833332D01*
X83134819Y-14833332D02*
X83134819Y-14214285D01*
X83357142Y-32454819D02*
X83023809Y-31978628D01*
X82785714Y-32454819D02*
X82785714Y-31454819D01*
X82785714Y-31454819D02*
X83166666Y-31454819D01*
X83166666Y-31454819D02*
X83261904Y-31502438D01*
X83261904Y-31502438D02*
X83309523Y-31550057D01*
X83309523Y-31550057D02*
X83357142Y-31645295D01*
X83357142Y-31645295D02*
X83357142Y-31788152D01*
X83357142Y-31788152D02*
X83309523Y-31883390D01*
X83309523Y-31883390D02*
X83261904Y-31931009D01*
X83261904Y-31931009D02*
X83166666Y-31978628D01*
X83166666Y-31978628D02*
X82785714Y-31978628D01*
X84309523Y-32454819D02*
X83738095Y-32454819D01*
X84023809Y-32454819D02*
X84023809Y-31454819D01*
X84023809Y-31454819D02*
X83928571Y-31597676D01*
X83928571Y-31597676D02*
X83833333Y-31692914D01*
X83833333Y-31692914D02*
X83738095Y-31740533D01*
X84928571Y-31454819D02*
X85023809Y-31454819D01*
X85023809Y-31454819D02*
X85119047Y-31502438D01*
X85119047Y-31502438D02*
X85166666Y-31550057D01*
X85166666Y-31550057D02*
X85214285Y-31645295D01*
X85214285Y-31645295D02*
X85261904Y-31835771D01*
X85261904Y-31835771D02*
X85261904Y-32073866D01*
X85261904Y-32073866D02*
X85214285Y-32264342D01*
X85214285Y-32264342D02*
X85166666Y-32359580D01*
X85166666Y-32359580D02*
X85119047Y-32407200D01*
X85119047Y-32407200D02*
X85023809Y-32454819D01*
X85023809Y-32454819D02*
X84928571Y-32454819D01*
X84928571Y-32454819D02*
X84833333Y-32407200D01*
X84833333Y-32407200D02*
X84785714Y-32359580D01*
X84785714Y-32359580D02*
X84738095Y-32264342D01*
X84738095Y-32264342D02*
X84690476Y-32073866D01*
X84690476Y-32073866D02*
X84690476Y-31835771D01*
X84690476Y-31835771D02*
X84738095Y-31645295D01*
X84738095Y-31645295D02*
X84785714Y-31550057D01*
X84785714Y-31550057D02*
X84833333Y-31502438D01*
X84833333Y-31502438D02*
X84928571Y-31454819D01*
%TO.C,J9*%
D11*
X147190000Y-38180000D02*
X148890000Y-38180000D01*
X147190000Y-43860000D02*
X147190000Y-38180000D01*
X148890000Y-36980000D02*
X155910000Y-36980000D01*
X148890000Y-38180000D02*
X148890000Y-36980000D01*
X148890000Y-43860000D02*
X147190000Y-43860000D01*
X148890000Y-45060000D02*
X148890000Y-43860000D01*
X150700000Y-45860000D02*
X151000000Y-45260000D01*
X151000000Y-45260000D02*
X151300000Y-45860000D01*
X151300000Y-45860000D02*
X150700000Y-45860000D01*
X155910000Y-36980000D02*
X155910000Y-45060000D01*
X155910000Y-45060000D02*
X148890000Y-45060000D01*
%TO.C,R2*%
X90772936Y-80265000D02*
X91227064Y-80265000D01*
X90772936Y-81735000D02*
X91227064Y-81735000D01*
%TO.C,R16*%
X93772936Y-46265000D02*
X94227064Y-46265000D01*
X93772936Y-47735000D02*
X94227064Y-47735000D01*
%TO.C,U5*%
X84940000Y-51565000D02*
X89060000Y-51565000D01*
X84940000Y-51630000D02*
X84940000Y-51565000D01*
X84940000Y-60435000D02*
X84940000Y-60370000D01*
X89060000Y-51565000D02*
X89060000Y-51630000D01*
X89060000Y-60370000D02*
X89060000Y-60435000D01*
X89060000Y-60435000D02*
X84940000Y-60435000D01*
X84400000Y-51630000D02*
X84160000Y-51300000D01*
X84640000Y-51300000D01*
X84400000Y-51630000D01*
G36*
X84400000Y-51630000D02*
G01*
X84160000Y-51300000D01*
X84640000Y-51300000D01*
X84400000Y-51630000D01*
G37*
%TO.C,C4*%
X140738748Y-37265000D02*
X141261252Y-37265000D01*
X140738748Y-38735000D02*
X141261252Y-38735000D01*
%TO.C,R8*%
X109272936Y-84090000D02*
X110727064Y-84090000D01*
X109272936Y-85910000D02*
X110727064Y-85910000D01*
%TO.C,R18*%
X93772936Y-60265000D02*
X94227064Y-60265000D01*
X93772936Y-61735000D02*
X94227064Y-61735000D01*
%TO.C,R11*%
X87772936Y-34265000D02*
X88227064Y-34265000D01*
X87772936Y-35735000D02*
X88227064Y-35735000D01*
%TO.C,J8*%
X147190000Y-54180000D02*
X148890000Y-54180000D01*
X147190000Y-59860000D02*
X147190000Y-54180000D01*
X148890000Y-52980000D02*
X155910000Y-52980000D01*
X148890000Y-54180000D02*
X148890000Y-52980000D01*
X148890000Y-59860000D02*
X147190000Y-59860000D01*
X148890000Y-61060000D02*
X148890000Y-59860000D01*
X150700000Y-61860000D02*
X151000000Y-61260000D01*
X151000000Y-61260000D02*
X151300000Y-61860000D01*
X151300000Y-61860000D02*
X150700000Y-61860000D01*
X155910000Y-52980000D02*
X155910000Y-61060000D01*
X155910000Y-61060000D02*
X148890000Y-61060000D01*
%TO.C,J12*%
X15150000Y-8250000D02*
X15150000Y-9500000D01*
X15450000Y-10800000D02*
X16200000Y-10800000D01*
X16200000Y-10800000D02*
X16200000Y-13750000D01*
X16200000Y-13750000D02*
X21750000Y-13750000D01*
X16400000Y-8250000D02*
X15150000Y-8250000D01*
X27300000Y-10800000D02*
X27300000Y-13750000D01*
X27300000Y-13750000D02*
X21750000Y-13750000D01*
X28050000Y-10800000D02*
X27300000Y-10800000D01*
X15440000Y-8540000D02*
X28060000Y-8540000D01*
X28060000Y-14510000D01*
X15440000Y-14510000D01*
X15440000Y-8540000D01*
X15450000Y-8550000D02*
X17250000Y-8550000D01*
X17250000Y-9300000D01*
X15450000Y-9300000D01*
X15450000Y-8550000D01*
X18750000Y-8550000D02*
X24750000Y-8550000D01*
X24750000Y-9300000D01*
X18750000Y-9300000D01*
X18750000Y-8550000D01*
X26250000Y-8550000D02*
X28050000Y-8550000D01*
X28050000Y-9300000D01*
X26250000Y-9300000D01*
X26250000Y-8550000D01*
%TO.C,R17*%
X93772936Y-50265000D02*
X94227064Y-50265000D01*
X93772936Y-51735000D02*
X94227064Y-51735000D01*
%TO.C,U1*%
X72940000Y-12440000D02*
X77060000Y-12440000D01*
X72940000Y-12535000D02*
X72940000Y-12440000D01*
X72940000Y-17560000D02*
X72940000Y-17465000D01*
X77060000Y-12440000D02*
X77060000Y-12535000D01*
X77060000Y-17465000D02*
X77060000Y-17560000D01*
X77060000Y-17560000D02*
X72940000Y-17560000D01*
X72400000Y-12530000D02*
X72160000Y-12200000D01*
X72640000Y-12200000D01*
X72400000Y-12530000D01*
G36*
X72400000Y-12530000D02*
G01*
X72160000Y-12200000D01*
X72640000Y-12200000D01*
X72400000Y-12530000D01*
G37*
%TO.C,J7*%
X146140000Y-85700000D02*
X146740000Y-86000000D01*
X146140000Y-86300000D02*
X146140000Y-85700000D01*
X146740000Y-86000000D02*
X146140000Y-86300000D01*
X146940000Y-83890000D02*
X148140000Y-83890000D01*
X146940000Y-90910000D02*
X146940000Y-83890000D01*
X148140000Y-82190000D02*
X153820000Y-82190000D01*
X148140000Y-83890000D02*
X148140000Y-82190000D01*
X153820000Y-82190000D02*
X153820000Y-83890000D01*
X153820000Y-83890000D02*
X155020000Y-83890000D01*
X155020000Y-83890000D02*
X155020000Y-90910000D01*
X155020000Y-90910000D02*
X146940000Y-90910000D01*
%TO.C,C9*%
X93738748Y-55265000D02*
X94261252Y-55265000D01*
X93738748Y-56735000D02*
X94261252Y-56735000D01*
%TO.C,R9*%
X132772936Y-63265000D02*
X133227064Y-63265000D01*
X132772936Y-64735000D02*
X133227064Y-64735000D01*
%TO.C,R4*%
X94265000Y-14227064D02*
X94265000Y-13772936D01*
X95735000Y-14227064D02*
X95735000Y-13772936D01*
%TO.C,R19*%
X93772936Y-64265000D02*
X94227064Y-64265000D01*
X93772936Y-65735000D02*
X94227064Y-65735000D01*
%TO.C,C8*%
X123340302Y-86685000D02*
X124140302Y-86685000D01*
X123740302Y-86285000D02*
X123740302Y-87085000D01*
X127750000Y-84920000D02*
X127750000Y-93080000D01*
X127790000Y-84920000D02*
X127790000Y-93080000D01*
X127830000Y-84921000D02*
X127830000Y-93079000D01*
X127870000Y-84922000D02*
X127870000Y-93078000D01*
X127910000Y-84923000D02*
X127910000Y-93077000D01*
X127950000Y-84925000D02*
X127950000Y-93075000D01*
X127990000Y-84927000D02*
X127990000Y-93073000D01*
X128030000Y-84930000D02*
X128030000Y-93070000D01*
X128070000Y-84932000D02*
X128070000Y-93068000D01*
X128110000Y-84936000D02*
X128110000Y-93064000D01*
X128150000Y-84939000D02*
X128150000Y-93061000D01*
X128190000Y-84944000D02*
X128190000Y-93056000D01*
X128230000Y-84948000D02*
X128230000Y-93052000D01*
X128270000Y-84953000D02*
X128270000Y-93047000D01*
X128310000Y-84958000D02*
X128310000Y-93042000D01*
X128350000Y-84964000D02*
X128350000Y-93036000D01*
X128390000Y-84970000D02*
X128390000Y-93030000D01*
X128430000Y-84977000D02*
X128430000Y-93023000D01*
X128470000Y-84983000D02*
X128470000Y-87960000D01*
X128470000Y-90040000D02*
X128470000Y-93017000D01*
X128510000Y-84991000D02*
X128510000Y-87960000D01*
X128510000Y-90040000D02*
X128510000Y-93009000D01*
X128550000Y-84998000D02*
X128550000Y-87960000D01*
X128550000Y-90040000D02*
X128550000Y-93002000D01*
X128590000Y-85007000D02*
X128590000Y-87960000D01*
X128590000Y-90040000D02*
X128590000Y-92993000D01*
X128630000Y-85015000D02*
X128630000Y-87960000D01*
X128630000Y-90040000D02*
X128630000Y-92985000D01*
X128670000Y-85024000D02*
X128670000Y-87960000D01*
X128670000Y-90040000D02*
X128670000Y-92976000D01*
X128710000Y-85033000D02*
X128710000Y-87960000D01*
X128710000Y-90040000D02*
X128710000Y-92967000D01*
X128750000Y-85043000D02*
X128750000Y-87960000D01*
X128750000Y-90040000D02*
X128750000Y-92957000D01*
X128790000Y-85053000D02*
X128790000Y-87960000D01*
X128790000Y-90040000D02*
X128790000Y-92947000D01*
X128830000Y-85064000D02*
X128830000Y-87960000D01*
X128830000Y-90040000D02*
X128830000Y-92936000D01*
X128870000Y-85075000D02*
X128870000Y-87960000D01*
X128870000Y-90040000D02*
X128870000Y-92925000D01*
X128910000Y-85087000D02*
X128910000Y-87960000D01*
X128910000Y-90040000D02*
X128910000Y-92913000D01*
X128950000Y-85099000D02*
X128950000Y-87960000D01*
X128950000Y-90040000D02*
X128950000Y-92901000D01*
X128990000Y-85111000D02*
X128990000Y-87960000D01*
X128990000Y-90040000D02*
X128990000Y-92889000D01*
X129030000Y-85124000D02*
X129030000Y-87960000D01*
X129030000Y-90040000D02*
X129030000Y-92876000D01*
X129070000Y-85137000D02*
X129070000Y-87960000D01*
X129070000Y-90040000D02*
X129070000Y-92863000D01*
X129110000Y-85151000D02*
X129110000Y-87960000D01*
X129110000Y-90040000D02*
X129110000Y-92849000D01*
X129150000Y-85165000D02*
X129150000Y-87960000D01*
X129150000Y-90040000D02*
X129150000Y-92835000D01*
X129190000Y-85180000D02*
X129190000Y-87960000D01*
X129190000Y-90040000D02*
X129190000Y-92820000D01*
X129230000Y-85195000D02*
X129230000Y-87960000D01*
X129230000Y-90040000D02*
X129230000Y-92805000D01*
X129270000Y-85211000D02*
X129270000Y-87960000D01*
X129270000Y-90040000D02*
X129270000Y-92789000D01*
X129310000Y-85227000D02*
X129310000Y-87960000D01*
X129310000Y-90040000D02*
X129310000Y-92773000D01*
X129350000Y-85243000D02*
X129350000Y-87960000D01*
X129350000Y-90040000D02*
X129350000Y-92757000D01*
X129390000Y-85260000D02*
X129390000Y-87960000D01*
X129390000Y-90040000D02*
X129390000Y-92740000D01*
X129430000Y-85278000D02*
X129430000Y-87960000D01*
X129430000Y-90040000D02*
X129430000Y-92722000D01*
X129470000Y-85296000D02*
X129470000Y-87960000D01*
X129470000Y-90040000D02*
X129470000Y-92704000D01*
X129510000Y-85315000D02*
X129510000Y-87960000D01*
X129510000Y-90040000D02*
X129510000Y-92685000D01*
X129550000Y-85334000D02*
X129550000Y-87960000D01*
X129550000Y-90040000D02*
X129550000Y-92666000D01*
X129590000Y-85354000D02*
X129590000Y-87960000D01*
X129590000Y-90040000D02*
X129590000Y-92646000D01*
X129630000Y-85374000D02*
X129630000Y-87960000D01*
X129630000Y-90040000D02*
X129630000Y-92626000D01*
X129670000Y-85395000D02*
X129670000Y-87960000D01*
X129670000Y-90040000D02*
X129670000Y-92605000D01*
X129710000Y-85416000D02*
X129710000Y-87960000D01*
X129710000Y-90040000D02*
X129710000Y-92584000D01*
X129750000Y-85438000D02*
X129750000Y-87960000D01*
X129750000Y-90040000D02*
X129750000Y-92562000D01*
X129790000Y-85461000D02*
X129790000Y-87960000D01*
X129790000Y-90040000D02*
X129790000Y-92539000D01*
X129830000Y-85484000D02*
X129830000Y-87960000D01*
X129830000Y-90040000D02*
X129830000Y-92516000D01*
X129870000Y-85507000D02*
X129870000Y-87960000D01*
X129870000Y-90040000D02*
X129870000Y-92493000D01*
X129910000Y-85532000D02*
X129910000Y-87960000D01*
X129910000Y-90040000D02*
X129910000Y-92468000D01*
X129950000Y-85557000D02*
X129950000Y-87960000D01*
X129950000Y-90040000D02*
X129950000Y-92443000D01*
X129990000Y-85582000D02*
X129990000Y-87960000D01*
X129990000Y-90040000D02*
X129990000Y-92418000D01*
X130030000Y-85608000D02*
X130030000Y-87960000D01*
X130030000Y-90040000D02*
X130030000Y-92392000D01*
X130070000Y-85635000D02*
X130070000Y-87960000D01*
X130070000Y-90040000D02*
X130070000Y-92365000D01*
X130110000Y-85663000D02*
X130110000Y-87960000D01*
X130110000Y-90040000D02*
X130110000Y-92337000D01*
X130150000Y-85691000D02*
X130150000Y-87960000D01*
X130150000Y-90040000D02*
X130150000Y-92309000D01*
X130190000Y-85720000D02*
X130190000Y-87960000D01*
X130190000Y-90040000D02*
X130190000Y-92280000D01*
X130230000Y-85750000D02*
X130230000Y-87960000D01*
X130230000Y-90040000D02*
X130230000Y-92250000D01*
X130270000Y-85781000D02*
X130270000Y-87960000D01*
X130270000Y-90040000D02*
X130270000Y-92219000D01*
X130310000Y-85812000D02*
X130310000Y-87960000D01*
X130310000Y-90040000D02*
X130310000Y-92188000D01*
X130350000Y-85844000D02*
X130350000Y-87960000D01*
X130350000Y-90040000D02*
X130350000Y-92156000D01*
X130390000Y-85877000D02*
X130390000Y-87960000D01*
X130390000Y-90040000D02*
X130390000Y-92123000D01*
X130430000Y-85911000D02*
X130430000Y-87960000D01*
X130430000Y-90040000D02*
X130430000Y-92089000D01*
X130470000Y-85945000D02*
X130470000Y-87960000D01*
X130470000Y-90040000D02*
X130470000Y-92055000D01*
X130510000Y-85981000D02*
X130510000Y-87960000D01*
X130510000Y-90040000D02*
X130510000Y-92019000D01*
X130550000Y-86018000D02*
X130550000Y-91982000D01*
X130590000Y-86055000D02*
X130590000Y-91945000D01*
X130630000Y-86094000D02*
X130630000Y-91906000D01*
X130670000Y-86133000D02*
X130670000Y-91867000D01*
X130710000Y-86174000D02*
X130710000Y-91826000D01*
X130750000Y-86216000D02*
X130750000Y-91784000D01*
X130790000Y-86259000D02*
X130790000Y-91741000D01*
X130830000Y-86304000D02*
X130830000Y-91696000D01*
X130870000Y-86349000D02*
X130870000Y-91651000D01*
X130910000Y-86396000D02*
X130910000Y-91604000D01*
X130950000Y-86445000D02*
X130950000Y-91555000D01*
X130990000Y-86495000D02*
X130990000Y-91505000D01*
X131030000Y-86547000D02*
X131030000Y-91453000D01*
X131070000Y-86600000D02*
X131070000Y-91400000D01*
X131110000Y-86656000D02*
X131110000Y-91344000D01*
X131150000Y-86713000D02*
X131150000Y-91287000D01*
X131190000Y-86773000D02*
X131190000Y-91227000D01*
X131230000Y-86835000D02*
X131230000Y-91165000D01*
X131270000Y-86899000D02*
X131270000Y-91101000D01*
X131310000Y-86966000D02*
X131310000Y-91034000D01*
X131350000Y-87036000D02*
X131350000Y-90964000D01*
X131390000Y-87110000D02*
X131390000Y-90890000D01*
X131430000Y-87187000D02*
X131430000Y-90813000D01*
X131470000Y-87269000D02*
X131470000Y-90731000D01*
X131510000Y-87356000D02*
X131510000Y-90644000D01*
X131550000Y-87448000D02*
X131550000Y-90552000D01*
X131590000Y-87547000D02*
X131590000Y-90453000D01*
X131630000Y-87654000D02*
X131630000Y-90346000D01*
X131670000Y-87772000D02*
X131670000Y-90228000D01*
X131710000Y-87903000D02*
X131710000Y-90097000D01*
X131750000Y-88053000D02*
X131750000Y-89947000D01*
X131790000Y-88232000D02*
X131790000Y-89768000D01*
X131830000Y-88467000D02*
X131830000Y-89533000D01*
X131870000Y-89000000D02*
G75*
G02*
X123630000Y-89000000I-4120000J0D01*
G01*
X123630000Y-89000000D02*
G75*
G02*
X131870000Y-89000000I4120000J0D01*
G01*
%TO.C,J5*%
X83150000Y-5250000D02*
X83150000Y-6500000D01*
X83450000Y-7800000D02*
X84200000Y-7800000D01*
X84200000Y-7800000D02*
X84200000Y-10750000D01*
X84200000Y-10750000D02*
X87250000Y-10750000D01*
X84400000Y-5250000D02*
X83150000Y-5250000D01*
X90300000Y-7800000D02*
X90300000Y-10750000D01*
X90300000Y-10750000D02*
X87250000Y-10750000D01*
X91050000Y-7800000D02*
X90300000Y-7800000D01*
X83440000Y-5540000D02*
X91060000Y-5540000D01*
X91060000Y-11510000D01*
X83440000Y-11510000D01*
X83440000Y-5540000D01*
X83450000Y-5550000D02*
X85250000Y-5550000D01*
X85250000Y-6300000D01*
X83450000Y-6300000D01*
X83450000Y-5550000D01*
X86750000Y-5550000D02*
X87750000Y-5550000D01*
X87750000Y-6300000D01*
X86750000Y-6300000D01*
X86750000Y-5550000D01*
X89250000Y-5550000D02*
X91050000Y-5550000D01*
X91050000Y-6300000D01*
X89250000Y-6300000D01*
X89250000Y-5550000D01*
%TO.C,J10*%
X125150000Y-5250000D02*
X125150000Y-6500000D01*
X125450000Y-7800000D02*
X126200000Y-7800000D01*
X126200000Y-7800000D02*
X126200000Y-10750000D01*
X126200000Y-10750000D02*
X131750000Y-10750000D01*
X126400000Y-5250000D02*
X125150000Y-5250000D01*
X137300000Y-7800000D02*
X137300000Y-10750000D01*
X137300000Y-10750000D02*
X131750000Y-10750000D01*
X138050000Y-7800000D02*
X137300000Y-7800000D01*
X125440000Y-5540000D02*
X138060000Y-5540000D01*
X138060000Y-11510000D01*
X125440000Y-11510000D01*
X125440000Y-5540000D01*
X125450000Y-5550000D02*
X127250000Y-5550000D01*
X127250000Y-6300000D01*
X125450000Y-6300000D01*
X125450000Y-5550000D01*
X128750000Y-5550000D02*
X134750000Y-5550000D01*
X134750000Y-6300000D01*
X128750000Y-6300000D01*
X128750000Y-5550000D01*
X136250000Y-5550000D02*
X138050000Y-5550000D01*
X138050000Y-6300000D01*
X136250000Y-6300000D01*
X136250000Y-5550000D01*
%TO.C,D1*%
X134340000Y-87850000D02*
X134340000Y-92150000D01*
X134340000Y-87850000D02*
X140150000Y-87850000D01*
X134340000Y-92150000D02*
X140150000Y-92150000D01*
%TO.C,R5*%
X135772936Y-54265000D02*
X136227064Y-54265000D01*
X135772936Y-55735000D02*
X136227064Y-55735000D01*
%TO.C,R6*%
X135772936Y-57265000D02*
X136227064Y-57265000D01*
X135772936Y-58735000D02*
X136227064Y-58735000D01*
%TO.C,R14*%
X132772936Y-29265000D02*
X133227064Y-29265000D01*
X132772936Y-30735000D02*
X133227064Y-30735000D01*
%TO.C,C1*%
X68265000Y-14738748D02*
X68265000Y-15261252D01*
X69735000Y-14738748D02*
X69735000Y-15261252D01*
%TO.C,U2*%
X90090000Y-73440000D02*
X91910000Y-73440000D01*
X90090000Y-73490000D02*
X90090000Y-73440000D01*
X90090000Y-76560000D02*
X90090000Y-76510000D01*
X91910000Y-73440000D02*
X91910000Y-73490000D01*
X91910000Y-74610000D02*
X91910000Y-75390000D01*
X91910000Y-76510000D02*
X91910000Y-76560000D01*
X91910000Y-76560000D02*
X90090000Y-76560000D01*
X89550000Y-73490000D02*
X89310000Y-73160000D01*
X89790000Y-73160000D01*
X89550000Y-73490000D01*
G36*
X89550000Y-73490000D02*
G01*
X89310000Y-73160000D01*
X89790000Y-73160000D01*
X89550000Y-73490000D01*
G37*
%TO.C,R7*%
X109272936Y-72090000D02*
X110727064Y-72090000D01*
X109272936Y-73910000D02*
X110727064Y-73910000D01*
%TO.C,C6*%
X130738748Y-79265000D02*
X131261252Y-79265000D01*
X130738748Y-80735000D02*
X131261252Y-80735000D01*
%TO.C,U3*%
X120690000Y-76265000D02*
X121040000Y-76265000D01*
X121040000Y-81735000D02*
X120690000Y-81735000D01*
X124960000Y-76265000D02*
X125310000Y-76265000D01*
X125310000Y-81735000D02*
X124960000Y-81735000D01*
X119090000Y-76720000D02*
X118760000Y-76960000D01*
X118760000Y-76480000D01*
X119090000Y-76720000D01*
G36*
X119090000Y-76720000D02*
G01*
X118760000Y-76960000D01*
X118760000Y-76480000D01*
X119090000Y-76720000D01*
G37*
%TO.C,R12*%
X87772936Y-37265000D02*
X88227064Y-37265000D01*
X87772936Y-38735000D02*
X88227064Y-38735000D01*
%TO.C,C7*%
X128738748Y-73265000D02*
X129261252Y-73265000D01*
X128738748Y-74735000D02*
X129261252Y-74735000D01*
%TO.C,J3*%
X81150000Y-88250000D02*
X81150000Y-89500000D01*
X81450000Y-90800000D02*
X82200000Y-90800000D01*
X82200000Y-90800000D02*
X82200000Y-93750000D01*
X82200000Y-93750000D02*
X87750000Y-93750000D01*
X82400000Y-88250000D02*
X81150000Y-88250000D01*
X93300000Y-90800000D02*
X93300000Y-93750000D01*
X93300000Y-93750000D02*
X87750000Y-93750000D01*
X94050000Y-90800000D02*
X93300000Y-90800000D01*
X81440000Y-88540000D02*
X94060000Y-88540000D01*
X94060000Y-94510000D01*
X81440000Y-94510000D01*
X81440000Y-88540000D01*
X81450000Y-88550000D02*
X83250000Y-88550000D01*
X83250000Y-89300000D01*
X81450000Y-89300000D01*
X81450000Y-88550000D01*
X84750000Y-88550000D02*
X90750000Y-88550000D01*
X90750000Y-89300000D01*
X84750000Y-89300000D01*
X84750000Y-88550000D01*
X92250000Y-88550000D02*
X94050000Y-88550000D01*
X94050000Y-89300000D01*
X92250000Y-89300000D01*
X92250000Y-88550000D01*
%TO.C,R1*%
X85772936Y-75265000D02*
X86227064Y-75265000D01*
X85772936Y-76735000D02*
X86227064Y-76735000D01*
%TO.C,R15*%
X139772936Y-29265000D02*
X140227064Y-29265000D01*
X139772936Y-30735000D02*
X140227064Y-30735000D01*
%TO.C,J6*%
X107150000Y-88250000D02*
X107150000Y-89500000D01*
X107450000Y-90800000D02*
X108200000Y-90800000D01*
X108200000Y-90800000D02*
X108200000Y-93750000D01*
X108200000Y-93750000D02*
X111250000Y-93750000D01*
X108400000Y-88250000D02*
X107150000Y-88250000D01*
X114300000Y-90800000D02*
X114300000Y-93750000D01*
X114300000Y-93750000D02*
X111250000Y-93750000D01*
X115050000Y-90800000D02*
X114300000Y-90800000D01*
X107440000Y-88540000D02*
X115060000Y-88540000D01*
X115060000Y-94510000D01*
X107440000Y-94510000D01*
X107440000Y-88540000D01*
X107450000Y-88550000D02*
X109250000Y-88550000D01*
X109250000Y-89300000D01*
X107450000Y-89300000D01*
X107450000Y-88550000D01*
X110750000Y-88550000D02*
X111750000Y-88550000D01*
X111750000Y-89300000D01*
X110750000Y-89300000D01*
X110750000Y-88550000D01*
X113250000Y-88550000D02*
X115050000Y-88550000D01*
X115050000Y-89300000D01*
X113250000Y-89300000D01*
X113250000Y-88550000D01*
%TO.C,C3*%
X94265000Y-75261252D02*
X94265000Y-74738748D01*
X95735000Y-75261252D02*
X95735000Y-74738748D01*
%TO.C,U4*%
X134940000Y-40565000D02*
X139060000Y-40565000D01*
X134940000Y-40630000D02*
X134940000Y-40565000D01*
X134940000Y-49435000D02*
X134940000Y-49370000D01*
X139060000Y-40565000D02*
X139060000Y-40630000D01*
X139060000Y-49370000D02*
X139060000Y-49435000D01*
X139060000Y-49435000D02*
X134940000Y-49435000D01*
X134400000Y-40630000D02*
X134160000Y-40300000D01*
X134640000Y-40300000D01*
X134400000Y-40630000D01*
G36*
X134400000Y-40630000D02*
G01*
X134160000Y-40300000D01*
X134640000Y-40300000D01*
X134400000Y-40630000D01*
G37*
%TO.C,R3*%
X84772936Y-80265000D02*
X85227064Y-80265000D01*
X84772936Y-81735000D02*
X85227064Y-81735000D01*
%TO.C,J13*%
X132150000Y-19250000D02*
X132150000Y-20500000D01*
X132450000Y-21800000D02*
X133200000Y-21800000D01*
X133200000Y-21800000D02*
X133200000Y-24750000D01*
X133200000Y-24750000D02*
X140000000Y-24750000D01*
X133400000Y-19250000D02*
X132150000Y-19250000D01*
X146800000Y-21800000D02*
X146800000Y-24750000D01*
X146800000Y-24750000D02*
X140000000Y-24750000D01*
X147550000Y-21800000D02*
X146800000Y-21800000D01*
X132440000Y-19540000D02*
X147560000Y-19540000D01*
X147560000Y-25510000D01*
X132440000Y-25510000D01*
X132440000Y-19540000D01*
X132450000Y-19550000D02*
X134250000Y-19550000D01*
X134250000Y-20300000D01*
X132450000Y-20300000D01*
X132450000Y-19550000D01*
X135750000Y-19550000D02*
X144250000Y-19550000D01*
X144250000Y-20300000D01*
X135750000Y-20300000D01*
X135750000Y-19550000D01*
X145750000Y-19550000D02*
X147550000Y-19550000D01*
X147550000Y-20300000D01*
X145750000Y-20300000D01*
X145750000Y-19550000D01*
%TO.C,R13*%
X87772936Y-40265000D02*
X88227064Y-40265000D01*
X87772936Y-41735000D02*
X88227064Y-41735000D01*
%TO.C,C5*%
X130288748Y-76090000D02*
X131711252Y-76090000D01*
X130288748Y-77910000D02*
X131711252Y-77910000D01*
%TO.C,C2*%
X80265000Y-14738748D02*
X80265000Y-15261252D01*
X81735000Y-14738748D02*
X81735000Y-15261252D01*
%TO.C,J11*%
X140150000Y-10250000D02*
X140150000Y-11500000D01*
X140450000Y-12800000D02*
X141200000Y-12800000D01*
X141200000Y-12800000D02*
X141200000Y-15750000D01*
X141200000Y-15750000D02*
X146750000Y-15750000D01*
X141400000Y-10250000D02*
X140150000Y-10250000D01*
X152300000Y-12800000D02*
X152300000Y-15750000D01*
X152300000Y-15750000D02*
X146750000Y-15750000D01*
X153050000Y-12800000D02*
X152300000Y-12800000D01*
X140440000Y-10540000D02*
X153060000Y-10540000D01*
X153060000Y-16510000D01*
X140440000Y-16510000D01*
X140440000Y-10540000D01*
X140450000Y-10550000D02*
X142250000Y-10550000D01*
X142250000Y-11300000D01*
X140450000Y-11300000D01*
X140450000Y-10550000D01*
X143750000Y-10550000D02*
X149750000Y-10550000D01*
X149750000Y-11300000D01*
X143750000Y-11300000D01*
X143750000Y-10550000D01*
X151250000Y-10550000D02*
X153050000Y-10550000D01*
X153050000Y-11300000D01*
X151250000Y-11300000D01*
X151250000Y-10550000D01*
%TO.C,R10*%
X87772936Y-31265000D02*
X88227064Y-31265000D01*
X87772936Y-32735000D02*
X88227064Y-32735000D01*
%TD*%
M02*
