%TF.GenerationSoftware,KiCad,Pcbnew,10.0.6*%
%TF.CreationDate,2026-09-09T21:17:34+05:30*%
%TF.ProjectId,carrier,63617272-6965-4722-9e6b-696361645f70,rev?*%
%TF.SameCoordinates,Original*%
%TF.FileFunction,Legend,Top*%
%TF.FilePolarity,Positive*%
%FSLAX46Y46*%
G04 Gerber Fmt 4.6, Leading zero omitted, Abs format (unit mm)*
G04 Created by KiCad (PCBNEW 10.0.6) date 2026-09-09 21:17:34*
%MOMM*%
%LPD*%
G01*
G04 APERTURE LIST*
%ADD10C,0.150000*%
%ADD11C,0.120000*%
G04 APERTURE END LIST*
D10*
X10833333Y-47454819D02*
X10833333Y-46454819D01*
X11261904Y-47407200D02*
X11404761Y-47454819D01*
X11404761Y-47454819D02*
X11642856Y-47454819D01*
X11642856Y-47454819D02*
X11738094Y-47407200D01*
X11738094Y-47407200D02*
X11785713Y-47359580D01*
X11785713Y-47359580D02*
X11833332Y-47264342D01*
X11833332Y-47264342D02*
X11833332Y-47169104D01*
X11833332Y-47169104D02*
X11785713Y-47073866D01*
X11785713Y-47073866D02*
X11738094Y-47026247D01*
X11738094Y-47026247D02*
X11642856Y-46978628D01*
X11642856Y-46978628D02*
X11452380Y-46931009D01*
X11452380Y-46931009D02*
X11357142Y-46883390D01*
X11357142Y-46883390D02*
X11309523Y-46835771D01*
X11309523Y-46835771D02*
X11261904Y-46740533D01*
X11261904Y-46740533D02*
X11261904Y-46645295D01*
X11261904Y-46645295D02*
X11309523Y-46550057D01*
X11309523Y-46550057D02*
X11357142Y-46502438D01*
X11357142Y-46502438D02*
X11452380Y-46454819D01*
X11452380Y-46454819D02*
X11690475Y-46454819D01*
X11690475Y-46454819D02*
X11833332Y-46502438D01*
X12452380Y-46454819D02*
X12642856Y-46454819D01*
X12642856Y-46454819D02*
X12738094Y-46502438D01*
X12738094Y-46502438D02*
X12833332Y-46597676D01*
X12833332Y-46597676D02*
X12880951Y-46788152D01*
X12880951Y-46788152D02*
X12880951Y-47121485D01*
X12880951Y-47121485D02*
X12833332Y-47311961D01*
X12833332Y-47311961D02*
X12738094Y-47407200D01*
X12738094Y-47407200D02*
X12642856Y-47454819D01*
X12642856Y-47454819D02*
X12452380Y-47454819D01*
X12452380Y-47454819D02*
X12357142Y-47407200D01*
X12357142Y-47407200D02*
X12261904Y-47311961D01*
X12261904Y-47311961D02*
X12214285Y-47121485D01*
X12214285Y-47121485D02*
X12214285Y-46788152D01*
X12214285Y-46788152D02*
X12261904Y-46597676D01*
X12261904Y-46597676D02*
X12357142Y-46502438D01*
X12357142Y-46502438D02*
X12452380Y-46454819D01*
X13785713Y-47454819D02*
X13309523Y-47454819D01*
X13309523Y-47454819D02*
X13309523Y-46454819D01*
X14071428Y-47169104D02*
X14547618Y-47169104D01*
X13976190Y-47454819D02*
X14309523Y-46454819D01*
X14309523Y-46454819D02*
X14642856Y-47454819D01*
X14833333Y-46454819D02*
X15404761Y-46454819D01*
X15119047Y-47454819D02*
X15119047Y-46454819D01*
X15738095Y-46931009D02*
X16071428Y-46931009D01*
X16214285Y-47454819D02*
X15738095Y-47454819D01*
X15738095Y-47454819D02*
X15738095Y-46454819D01*
X15738095Y-46454819D02*
X16214285Y-46454819D01*
X16642857Y-47454819D02*
X16642857Y-46454819D01*
X16642857Y-46454819D02*
X16880952Y-46454819D01*
X16880952Y-46454819D02*
X17023809Y-46502438D01*
X17023809Y-46502438D02*
X17119047Y-46597676D01*
X17119047Y-46597676D02*
X17166666Y-46692914D01*
X17166666Y-46692914D02*
X17214285Y-46883390D01*
X17214285Y-46883390D02*
X17214285Y-47026247D01*
X17214285Y-47026247D02*
X17166666Y-47216723D01*
X17166666Y-47216723D02*
X17119047Y-47311961D01*
X17119047Y-47311961D02*
X17023809Y-47407200D01*
X17023809Y-47407200D02*
X16880952Y-47454819D01*
X16880952Y-47454819D02*
X16642857Y-47454819D01*
X9928571Y-52454819D02*
X9928571Y-51454819D01*
X9928571Y-51454819D02*
X10309523Y-51454819D01*
X10309523Y-51454819D02*
X10404761Y-51502438D01*
X10404761Y-51502438D02*
X10452380Y-51550057D01*
X10452380Y-51550057D02*
X10499999Y-51645295D01*
X10499999Y-51645295D02*
X10499999Y-51788152D01*
X10499999Y-51788152D02*
X10452380Y-51883390D01*
X10452380Y-51883390D02*
X10404761Y-51931009D01*
X10404761Y-51931009D02*
X10309523Y-51978628D01*
X10309523Y-51978628D02*
X9928571Y-51978628D01*
X11119047Y-51454819D02*
X11309523Y-51454819D01*
X11309523Y-51454819D02*
X11404761Y-51502438D01*
X11404761Y-51502438D02*
X11499999Y-51597676D01*
X11499999Y-51597676D02*
X11547618Y-51788152D01*
X11547618Y-51788152D02*
X11547618Y-52121485D01*
X11547618Y-52121485D02*
X11499999Y-52311961D01*
X11499999Y-52311961D02*
X11404761Y-52407200D01*
X11404761Y-52407200D02*
X11309523Y-52454819D01*
X11309523Y-52454819D02*
X11119047Y-52454819D01*
X11119047Y-52454819D02*
X11023809Y-52407200D01*
X11023809Y-52407200D02*
X10928571Y-52311961D01*
X10928571Y-52311961D02*
X10880952Y-52121485D01*
X10880952Y-52121485D02*
X10880952Y-51788152D01*
X10880952Y-51788152D02*
X10928571Y-51597676D01*
X10928571Y-51597676D02*
X11023809Y-51502438D01*
X11023809Y-51502438D02*
X11119047Y-51454819D01*
X11880952Y-51454819D02*
X12119047Y-52454819D01*
X12119047Y-52454819D02*
X12309523Y-51740533D01*
X12309523Y-51740533D02*
X12499999Y-52454819D01*
X12499999Y-52454819D02*
X12738095Y-51454819D01*
X13119047Y-51931009D02*
X13452380Y-51931009D01*
X13595237Y-52454819D02*
X13119047Y-52454819D01*
X13119047Y-52454819D02*
X13119047Y-51454819D01*
X13119047Y-51454819D02*
X13595237Y-51454819D01*
X14595237Y-52454819D02*
X14261904Y-51978628D01*
X14023809Y-52454819D02*
X14023809Y-51454819D01*
X14023809Y-51454819D02*
X14404761Y-51454819D01*
X14404761Y-51454819D02*
X14499999Y-51502438D01*
X14499999Y-51502438D02*
X14547618Y-51550057D01*
X14547618Y-51550057D02*
X14595237Y-51645295D01*
X14595237Y-51645295D02*
X14595237Y-51788152D01*
X14595237Y-51788152D02*
X14547618Y-51883390D01*
X14547618Y-51883390D02*
X14499999Y-51931009D01*
X14499999Y-51931009D02*
X14404761Y-51978628D01*
X14404761Y-51978628D02*
X14023809Y-51978628D01*
X15976190Y-51454819D02*
X16166666Y-51454819D01*
X16166666Y-51454819D02*
X16261904Y-51502438D01*
X16261904Y-51502438D02*
X16357142Y-51597676D01*
X16357142Y-51597676D02*
X16404761Y-51788152D01*
X16404761Y-51788152D02*
X16404761Y-52121485D01*
X16404761Y-52121485D02*
X16357142Y-52311961D01*
X16357142Y-52311961D02*
X16261904Y-52407200D01*
X16261904Y-52407200D02*
X16166666Y-52454819D01*
X16166666Y-52454819D02*
X15976190Y-52454819D01*
X15976190Y-52454819D02*
X15880952Y-52407200D01*
X15880952Y-52407200D02*
X15785714Y-52311961D01*
X15785714Y-52311961D02*
X15738095Y-52121485D01*
X15738095Y-52121485D02*
X15738095Y-51788152D01*
X15738095Y-51788152D02*
X15785714Y-51597676D01*
X15785714Y-51597676D02*
X15880952Y-51502438D01*
X15880952Y-51502438D02*
X15976190Y-51454819D01*
X17166666Y-51931009D02*
X16833333Y-51931009D01*
X16833333Y-52454819D02*
X16833333Y-51454819D01*
X16833333Y-51454819D02*
X17309523Y-51454819D01*
X18023809Y-51931009D02*
X17690476Y-51931009D01*
X17690476Y-52454819D02*
X17690476Y-51454819D01*
X17690476Y-51454819D02*
X18166666Y-51454819D01*
X10833333Y-54454819D02*
X11404761Y-54454819D01*
X11119047Y-55454819D02*
X11119047Y-54454819D01*
X11928571Y-54454819D02*
X12119047Y-54454819D01*
X12119047Y-54454819D02*
X12214285Y-54502438D01*
X12214285Y-54502438D02*
X12309523Y-54597676D01*
X12309523Y-54597676D02*
X12357142Y-54788152D01*
X12357142Y-54788152D02*
X12357142Y-55121485D01*
X12357142Y-55121485D02*
X12309523Y-55311961D01*
X12309523Y-55311961D02*
X12214285Y-55407200D01*
X12214285Y-55407200D02*
X12119047Y-55454819D01*
X12119047Y-55454819D02*
X11928571Y-55454819D01*
X11928571Y-55454819D02*
X11833333Y-55407200D01*
X11833333Y-55407200D02*
X11738095Y-55311961D01*
X11738095Y-55311961D02*
X11690476Y-55121485D01*
X11690476Y-55121485D02*
X11690476Y-54788152D01*
X11690476Y-54788152D02*
X11738095Y-54597676D01*
X11738095Y-54597676D02*
X11833333Y-54502438D01*
X11833333Y-54502438D02*
X11928571Y-54454819D01*
X13500000Y-55407200D02*
X13642857Y-55454819D01*
X13642857Y-55454819D02*
X13880952Y-55454819D01*
X13880952Y-55454819D02*
X13976190Y-55407200D01*
X13976190Y-55407200D02*
X14023809Y-55359580D01*
X14023809Y-55359580D02*
X14071428Y-55264342D01*
X14071428Y-55264342D02*
X14071428Y-55169104D01*
X14071428Y-55169104D02*
X14023809Y-55073866D01*
X14023809Y-55073866D02*
X13976190Y-55026247D01*
X13976190Y-55026247D02*
X13880952Y-54978628D01*
X13880952Y-54978628D02*
X13690476Y-54931009D01*
X13690476Y-54931009D02*
X13595238Y-54883390D01*
X13595238Y-54883390D02*
X13547619Y-54835771D01*
X13547619Y-54835771D02*
X13500000Y-54740533D01*
X13500000Y-54740533D02*
X13500000Y-54645295D01*
X13500000Y-54645295D02*
X13547619Y-54550057D01*
X13547619Y-54550057D02*
X13595238Y-54502438D01*
X13595238Y-54502438D02*
X13690476Y-54454819D01*
X13690476Y-54454819D02*
X13928571Y-54454819D01*
X13928571Y-54454819D02*
X14071428Y-54502438D01*
X14404762Y-54454819D02*
X14642857Y-55454819D01*
X14642857Y-55454819D02*
X14833333Y-54740533D01*
X14833333Y-54740533D02*
X15023809Y-55454819D01*
X15023809Y-55454819D02*
X15261905Y-54454819D01*
X15595238Y-55169104D02*
X16071428Y-55169104D01*
X15500000Y-55454819D02*
X15833333Y-54454819D01*
X15833333Y-54454819D02*
X16166666Y-55454819D01*
X16500000Y-55454819D02*
X16500000Y-54454819D01*
X16500000Y-54454819D02*
X16880952Y-54454819D01*
X16880952Y-54454819D02*
X16976190Y-54502438D01*
X16976190Y-54502438D02*
X17023809Y-54550057D01*
X17023809Y-54550057D02*
X17071428Y-54645295D01*
X17071428Y-54645295D02*
X17071428Y-54788152D01*
X17071428Y-54788152D02*
X17023809Y-54883390D01*
X17023809Y-54883390D02*
X16976190Y-54931009D01*
X16976190Y-54931009D02*
X16880952Y-54978628D01*
X16880952Y-54978628D02*
X16500000Y-54978628D01*
X63904762Y-59907200D02*
X64047619Y-59954819D01*
X64047619Y-59954819D02*
X64285714Y-59954819D01*
X64285714Y-59954819D02*
X64380952Y-59907200D01*
X64380952Y-59907200D02*
X64428571Y-59859580D01*
X64428571Y-59859580D02*
X64476190Y-59764342D01*
X64476190Y-59764342D02*
X64476190Y-59669104D01*
X64476190Y-59669104D02*
X64428571Y-59573866D01*
X64428571Y-59573866D02*
X64380952Y-59526247D01*
X64380952Y-59526247D02*
X64285714Y-59478628D01*
X64285714Y-59478628D02*
X64095238Y-59431009D01*
X64095238Y-59431009D02*
X64000000Y-59383390D01*
X64000000Y-59383390D02*
X63952381Y-59335771D01*
X63952381Y-59335771D02*
X63904762Y-59240533D01*
X63904762Y-59240533D02*
X63904762Y-59145295D01*
X63904762Y-59145295D02*
X63952381Y-59050057D01*
X63952381Y-59050057D02*
X64000000Y-59002438D01*
X64000000Y-59002438D02*
X64095238Y-58954819D01*
X64095238Y-58954819D02*
X64333333Y-58954819D01*
X64333333Y-58954819D02*
X64476190Y-59002438D01*
X64761905Y-58954819D02*
X65333333Y-58954819D01*
X65047619Y-59954819D02*
X65047619Y-58954819D01*
X65857143Y-58954819D02*
X66047619Y-58954819D01*
X66047619Y-58954819D02*
X66142857Y-59002438D01*
X66142857Y-59002438D02*
X66238095Y-59097676D01*
X66238095Y-59097676D02*
X66285714Y-59288152D01*
X66285714Y-59288152D02*
X66285714Y-59621485D01*
X66285714Y-59621485D02*
X66238095Y-59811961D01*
X66238095Y-59811961D02*
X66142857Y-59907200D01*
X66142857Y-59907200D02*
X66047619Y-59954819D01*
X66047619Y-59954819D02*
X65857143Y-59954819D01*
X65857143Y-59954819D02*
X65761905Y-59907200D01*
X65761905Y-59907200D02*
X65666667Y-59811961D01*
X65666667Y-59811961D02*
X65619048Y-59621485D01*
X65619048Y-59621485D02*
X65619048Y-59288152D01*
X65619048Y-59288152D02*
X65666667Y-59097676D01*
X65666667Y-59097676D02*
X65761905Y-59002438D01*
X65761905Y-59002438D02*
X65857143Y-58954819D01*
X66714286Y-59954819D02*
X66714286Y-58954819D01*
X66714286Y-58954819D02*
X67095238Y-58954819D01*
X67095238Y-58954819D02*
X67190476Y-59002438D01*
X67190476Y-59002438D02*
X67238095Y-59050057D01*
X67238095Y-59050057D02*
X67285714Y-59145295D01*
X67285714Y-59145295D02*
X67285714Y-59288152D01*
X67285714Y-59288152D02*
X67238095Y-59383390D01*
X67238095Y-59383390D02*
X67190476Y-59431009D01*
X67190476Y-59431009D02*
X67095238Y-59478628D01*
X67095238Y-59478628D02*
X66714286Y-59478628D01*
X68476191Y-59954819D02*
X68476191Y-58954819D01*
X68476191Y-58954819D02*
X69047619Y-59954819D01*
X69047619Y-59954819D02*
X69047619Y-58954819D01*
X70095238Y-59859580D02*
X70047619Y-59907200D01*
X70047619Y-59907200D02*
X69904762Y-59954819D01*
X69904762Y-59954819D02*
X69809524Y-59954819D01*
X69809524Y-59954819D02*
X69666667Y-59907200D01*
X69666667Y-59907200D02*
X69571429Y-59811961D01*
X69571429Y-59811961D02*
X69523810Y-59716723D01*
X69523810Y-59716723D02*
X69476191Y-59526247D01*
X69476191Y-59526247D02*
X69476191Y-59383390D01*
X69476191Y-59383390D02*
X69523810Y-59192914D01*
X69523810Y-59192914D02*
X69571429Y-59097676D01*
X69571429Y-59097676D02*
X69666667Y-59002438D01*
X69666667Y-59002438D02*
X69809524Y-58954819D01*
X69809524Y-58954819D02*
X69904762Y-58954819D01*
X69904762Y-58954819D02*
X70047619Y-59002438D01*
X70047619Y-59002438D02*
X70095238Y-59050057D01*
X67333332Y-10454819D02*
X66999999Y-9978628D01*
X66761904Y-10454819D02*
X66761904Y-9454819D01*
X66761904Y-9454819D02*
X67142856Y-9454819D01*
X67142856Y-9454819D02*
X67238094Y-9502438D01*
X67238094Y-9502438D02*
X67285713Y-9550057D01*
X67285713Y-9550057D02*
X67333332Y-9645295D01*
X67333332Y-9645295D02*
X67333332Y-9788152D01*
X67333332Y-9788152D02*
X67285713Y-9883390D01*
X67285713Y-9883390D02*
X67238094Y-9931009D01*
X67238094Y-9931009D02*
X67142856Y-9978628D01*
X67142856Y-9978628D02*
X66761904Y-9978628D01*
X67761904Y-9931009D02*
X68095237Y-9931009D01*
X68238094Y-10454819D02*
X67761904Y-10454819D01*
X67761904Y-10454819D02*
X67761904Y-9454819D01*
X67761904Y-9454819D02*
X68238094Y-9454819D01*
X68523809Y-9454819D02*
X68857142Y-10454819D01*
X68857142Y-10454819D02*
X69190475Y-9454819D01*
X70238095Y-10169104D02*
X70714285Y-10169104D01*
X70142857Y-10454819D02*
X70476190Y-9454819D01*
X70476190Y-9454819D02*
X70809523Y-10454819D01*
X71904762Y-10073866D02*
X72666667Y-10073866D01*
X74476190Y-10454819D02*
X74142857Y-9978628D01*
X73904762Y-10454819D02*
X73904762Y-9454819D01*
X73904762Y-9454819D02*
X74285714Y-9454819D01*
X74285714Y-9454819D02*
X74380952Y-9502438D01*
X74380952Y-9502438D02*
X74428571Y-9550057D01*
X74428571Y-9550057D02*
X74476190Y-9645295D01*
X74476190Y-9645295D02*
X74476190Y-9788152D01*
X74476190Y-9788152D02*
X74428571Y-9883390D01*
X74428571Y-9883390D02*
X74380952Y-9931009D01*
X74380952Y-9931009D02*
X74285714Y-9978628D01*
X74285714Y-9978628D02*
X73904762Y-9978628D01*
X74904762Y-9931009D02*
X75238095Y-9931009D01*
X75380952Y-10454819D02*
X74904762Y-10454819D01*
X74904762Y-10454819D02*
X74904762Y-9454819D01*
X74904762Y-9454819D02*
X75380952Y-9454819D01*
X75666667Y-9454819D02*
X76000000Y-10454819D01*
X76000000Y-10454819D02*
X76333333Y-9454819D01*
X76666667Y-10454819D02*
X76666667Y-9454819D01*
X77142857Y-9931009D02*
X77476190Y-9931009D01*
X77619047Y-10454819D02*
X77142857Y-10454819D01*
X77142857Y-10454819D02*
X77142857Y-9454819D01*
X77142857Y-9454819D02*
X77619047Y-9454819D01*
X77952381Y-9454819D02*
X78190476Y-10454819D01*
X78190476Y-10454819D02*
X78380952Y-9740533D01*
X78380952Y-9740533D02*
X78571428Y-10454819D01*
X78571428Y-10454819D02*
X78809524Y-9454819D01*
X80142857Y-9454819D02*
X80333333Y-9454819D01*
X80333333Y-9454819D02*
X80428571Y-9502438D01*
X80428571Y-9502438D02*
X80523809Y-9597676D01*
X80523809Y-9597676D02*
X80571428Y-9788152D01*
X80571428Y-9788152D02*
X80571428Y-10121485D01*
X80571428Y-10121485D02*
X80523809Y-10311961D01*
X80523809Y-10311961D02*
X80428571Y-10407200D01*
X80428571Y-10407200D02*
X80333333Y-10454819D01*
X80333333Y-10454819D02*
X80142857Y-10454819D01*
X80142857Y-10454819D02*
X80047619Y-10407200D01*
X80047619Y-10407200D02*
X79952381Y-10311961D01*
X79952381Y-10311961D02*
X79904762Y-10121485D01*
X79904762Y-10121485D02*
X79904762Y-9788152D01*
X79904762Y-9788152D02*
X79952381Y-9597676D01*
X79952381Y-9597676D02*
X80047619Y-9502438D01*
X80047619Y-9502438D02*
X80142857Y-9454819D01*
X81000000Y-10454819D02*
X81000000Y-9454819D01*
X81000000Y-9454819D02*
X81571428Y-10454819D01*
X81571428Y-10454819D02*
X81571428Y-9454819D01*
X82523809Y-10454819D02*
X82047619Y-10454819D01*
X82047619Y-10454819D02*
X82047619Y-9454819D01*
X83047619Y-9978628D02*
X83047619Y-10454819D01*
X82714286Y-9454819D02*
X83047619Y-9978628D01*
X83047619Y-9978628D02*
X83380952Y-9454819D01*
X67238095Y-76454819D02*
X67238095Y-75454819D01*
X67238095Y-75454819D02*
X67809523Y-76454819D01*
X67809523Y-76454819D02*
X67809523Y-75454819D01*
X68476190Y-75454819D02*
X68666666Y-75454819D01*
X68666666Y-75454819D02*
X68761904Y-75502438D01*
X68761904Y-75502438D02*
X68857142Y-75597676D01*
X68857142Y-75597676D02*
X68904761Y-75788152D01*
X68904761Y-75788152D02*
X68904761Y-76121485D01*
X68904761Y-76121485D02*
X68857142Y-76311961D01*
X68857142Y-76311961D02*
X68761904Y-76407200D01*
X68761904Y-76407200D02*
X68666666Y-76454819D01*
X68666666Y-76454819D02*
X68476190Y-76454819D01*
X68476190Y-76454819D02*
X68380952Y-76407200D01*
X68380952Y-76407200D02*
X68285714Y-76311961D01*
X68285714Y-76311961D02*
X68238095Y-76121485D01*
X68238095Y-76121485D02*
X68238095Y-75788152D01*
X68238095Y-75788152D02*
X68285714Y-75597676D01*
X68285714Y-75597676D02*
X68380952Y-75502438D01*
X68380952Y-75502438D02*
X68476190Y-75454819D01*
X70095238Y-76454819D02*
X70095238Y-75454819D01*
X70095238Y-75454819D02*
X70428571Y-76169104D01*
X70428571Y-76169104D02*
X70761904Y-75454819D01*
X70761904Y-75454819D02*
X70761904Y-76454819D01*
X71428571Y-75454819D02*
X71619047Y-75454819D01*
X71619047Y-75454819D02*
X71714285Y-75502438D01*
X71714285Y-75502438D02*
X71809523Y-75597676D01*
X71809523Y-75597676D02*
X71857142Y-75788152D01*
X71857142Y-75788152D02*
X71857142Y-76121485D01*
X71857142Y-76121485D02*
X71809523Y-76311961D01*
X71809523Y-76311961D02*
X71714285Y-76407200D01*
X71714285Y-76407200D02*
X71619047Y-76454819D01*
X71619047Y-76454819D02*
X71428571Y-76454819D01*
X71428571Y-76454819D02*
X71333333Y-76407200D01*
X71333333Y-76407200D02*
X71238095Y-76311961D01*
X71238095Y-76311961D02*
X71190476Y-76121485D01*
X71190476Y-76121485D02*
X71190476Y-75788152D01*
X71190476Y-75788152D02*
X71238095Y-75597676D01*
X71238095Y-75597676D02*
X71333333Y-75502438D01*
X71333333Y-75502438D02*
X71428571Y-75454819D01*
X72142857Y-75454819D02*
X72714285Y-75454819D01*
X72428571Y-76454819D02*
X72428571Y-75454819D01*
X73238095Y-75454819D02*
X73428571Y-75454819D01*
X73428571Y-75454819D02*
X73523809Y-75502438D01*
X73523809Y-75502438D02*
X73619047Y-75597676D01*
X73619047Y-75597676D02*
X73666666Y-75788152D01*
X73666666Y-75788152D02*
X73666666Y-76121485D01*
X73666666Y-76121485D02*
X73619047Y-76311961D01*
X73619047Y-76311961D02*
X73523809Y-76407200D01*
X73523809Y-76407200D02*
X73428571Y-76454819D01*
X73428571Y-76454819D02*
X73238095Y-76454819D01*
X73238095Y-76454819D02*
X73142857Y-76407200D01*
X73142857Y-76407200D02*
X73047619Y-76311961D01*
X73047619Y-76311961D02*
X73000000Y-76121485D01*
X73000000Y-76121485D02*
X73000000Y-75788152D01*
X73000000Y-75788152D02*
X73047619Y-75597676D01*
X73047619Y-75597676D02*
X73142857Y-75502438D01*
X73142857Y-75502438D02*
X73238095Y-75454819D01*
X74666666Y-76454819D02*
X74333333Y-75978628D01*
X74095238Y-76454819D02*
X74095238Y-75454819D01*
X74095238Y-75454819D02*
X74476190Y-75454819D01*
X74476190Y-75454819D02*
X74571428Y-75502438D01*
X74571428Y-75502438D02*
X74619047Y-75550057D01*
X74619047Y-75550057D02*
X74666666Y-75645295D01*
X74666666Y-75645295D02*
X74666666Y-75788152D01*
X74666666Y-75788152D02*
X74619047Y-75883390D01*
X74619047Y-75883390D02*
X74571428Y-75931009D01*
X74571428Y-75931009D02*
X74476190Y-75978628D01*
X74476190Y-75978628D02*
X74095238Y-75978628D01*
X76428571Y-76359580D02*
X76380952Y-76407200D01*
X76380952Y-76407200D02*
X76238095Y-76454819D01*
X76238095Y-76454819D02*
X76142857Y-76454819D01*
X76142857Y-76454819D02*
X76000000Y-76407200D01*
X76000000Y-76407200D02*
X75904762Y-76311961D01*
X75904762Y-76311961D02*
X75857143Y-76216723D01*
X75857143Y-76216723D02*
X75809524Y-76026247D01*
X75809524Y-76026247D02*
X75809524Y-75883390D01*
X75809524Y-75883390D02*
X75857143Y-75692914D01*
X75857143Y-75692914D02*
X75904762Y-75597676D01*
X75904762Y-75597676D02*
X76000000Y-75502438D01*
X76000000Y-75502438D02*
X76142857Y-75454819D01*
X76142857Y-75454819D02*
X76238095Y-75454819D01*
X76238095Y-75454819D02*
X76380952Y-75502438D01*
X76380952Y-75502438D02*
X76428571Y-75550057D01*
X76857143Y-75454819D02*
X76857143Y-76264342D01*
X76857143Y-76264342D02*
X76904762Y-76359580D01*
X76904762Y-76359580D02*
X76952381Y-76407200D01*
X76952381Y-76407200D02*
X77047619Y-76454819D01*
X77047619Y-76454819D02*
X77238095Y-76454819D01*
X77238095Y-76454819D02*
X77333333Y-76407200D01*
X77333333Y-76407200D02*
X77380952Y-76359580D01*
X77380952Y-76359580D02*
X77428571Y-76264342D01*
X77428571Y-76264342D02*
X77428571Y-75454819D01*
X78476190Y-76454819D02*
X78142857Y-75978628D01*
X77904762Y-76454819D02*
X77904762Y-75454819D01*
X77904762Y-75454819D02*
X78285714Y-75454819D01*
X78285714Y-75454819D02*
X78380952Y-75502438D01*
X78380952Y-75502438D02*
X78428571Y-75550057D01*
X78428571Y-75550057D02*
X78476190Y-75645295D01*
X78476190Y-75645295D02*
X78476190Y-75788152D01*
X78476190Y-75788152D02*
X78428571Y-75883390D01*
X78428571Y-75883390D02*
X78380952Y-75931009D01*
X78380952Y-75931009D02*
X78285714Y-75978628D01*
X78285714Y-75978628D02*
X77904762Y-75978628D01*
X79476190Y-76454819D02*
X79142857Y-75978628D01*
X78904762Y-76454819D02*
X78904762Y-75454819D01*
X78904762Y-75454819D02*
X79285714Y-75454819D01*
X79285714Y-75454819D02*
X79380952Y-75502438D01*
X79380952Y-75502438D02*
X79428571Y-75550057D01*
X79428571Y-75550057D02*
X79476190Y-75645295D01*
X79476190Y-75645295D02*
X79476190Y-75788152D01*
X79476190Y-75788152D02*
X79428571Y-75883390D01*
X79428571Y-75883390D02*
X79380952Y-75931009D01*
X79380952Y-75931009D02*
X79285714Y-75978628D01*
X79285714Y-75978628D02*
X78904762Y-75978628D01*
X79904762Y-75931009D02*
X80238095Y-75931009D01*
X80380952Y-76454819D02*
X79904762Y-76454819D01*
X79904762Y-76454819D02*
X79904762Y-75454819D01*
X79904762Y-75454819D02*
X80380952Y-75454819D01*
X80809524Y-76454819D02*
X80809524Y-75454819D01*
X80809524Y-75454819D02*
X81380952Y-76454819D01*
X81380952Y-76454819D02*
X81380952Y-75454819D01*
X81714286Y-75454819D02*
X82285714Y-75454819D01*
X82000000Y-76454819D02*
X82000000Y-75454819D01*
X83571429Y-75454819D02*
X83761905Y-75454819D01*
X83761905Y-75454819D02*
X83857143Y-75502438D01*
X83857143Y-75502438D02*
X83952381Y-75597676D01*
X83952381Y-75597676D02*
X84000000Y-75788152D01*
X84000000Y-75788152D02*
X84000000Y-76121485D01*
X84000000Y-76121485D02*
X83952381Y-76311961D01*
X83952381Y-76311961D02*
X83857143Y-76407200D01*
X83857143Y-76407200D02*
X83761905Y-76454819D01*
X83761905Y-76454819D02*
X83571429Y-76454819D01*
X83571429Y-76454819D02*
X83476191Y-76407200D01*
X83476191Y-76407200D02*
X83380953Y-76311961D01*
X83380953Y-76311961D02*
X83333334Y-76121485D01*
X83333334Y-76121485D02*
X83333334Y-75788152D01*
X83333334Y-75788152D02*
X83380953Y-75597676D01*
X83380953Y-75597676D02*
X83476191Y-75502438D01*
X83476191Y-75502438D02*
X83571429Y-75454819D01*
X84428572Y-76454819D02*
X84428572Y-75454819D01*
X84428572Y-75454819D02*
X85000000Y-76454819D01*
X85000000Y-76454819D02*
X85000000Y-75454819D01*
X86238096Y-76454819D02*
X86238096Y-75454819D01*
X86238096Y-75454819D02*
X86619048Y-75454819D01*
X86619048Y-75454819D02*
X86714286Y-75502438D01*
X86714286Y-75502438D02*
X86761905Y-75550057D01*
X86761905Y-75550057D02*
X86809524Y-75645295D01*
X86809524Y-75645295D02*
X86809524Y-75788152D01*
X86809524Y-75788152D02*
X86761905Y-75883390D01*
X86761905Y-75883390D02*
X86714286Y-75931009D01*
X86714286Y-75931009D02*
X86619048Y-75978628D01*
X86619048Y-75978628D02*
X86238096Y-75978628D01*
X87809524Y-76359580D02*
X87761905Y-76407200D01*
X87761905Y-76407200D02*
X87619048Y-76454819D01*
X87619048Y-76454819D02*
X87523810Y-76454819D01*
X87523810Y-76454819D02*
X87380953Y-76407200D01*
X87380953Y-76407200D02*
X87285715Y-76311961D01*
X87285715Y-76311961D02*
X87238096Y-76216723D01*
X87238096Y-76216723D02*
X87190477Y-76026247D01*
X87190477Y-76026247D02*
X87190477Y-75883390D01*
X87190477Y-75883390D02*
X87238096Y-75692914D01*
X87238096Y-75692914D02*
X87285715Y-75597676D01*
X87285715Y-75597676D02*
X87380953Y-75502438D01*
X87380953Y-75502438D02*
X87523810Y-75454819D01*
X87523810Y-75454819D02*
X87619048Y-75454819D01*
X87619048Y-75454819D02*
X87761905Y-75502438D01*
X87761905Y-75502438D02*
X87809524Y-75550057D01*
X88571429Y-75931009D02*
X88714286Y-75978628D01*
X88714286Y-75978628D02*
X88761905Y-76026247D01*
X88761905Y-76026247D02*
X88809524Y-76121485D01*
X88809524Y-76121485D02*
X88809524Y-76264342D01*
X88809524Y-76264342D02*
X88761905Y-76359580D01*
X88761905Y-76359580D02*
X88714286Y-76407200D01*
X88714286Y-76407200D02*
X88619048Y-76454819D01*
X88619048Y-76454819D02*
X88238096Y-76454819D01*
X88238096Y-76454819D02*
X88238096Y-75454819D01*
X88238096Y-75454819D02*
X88571429Y-75454819D01*
X88571429Y-75454819D02*
X88666667Y-75502438D01*
X88666667Y-75502438D02*
X88714286Y-75550057D01*
X88714286Y-75550057D02*
X88761905Y-75645295D01*
X88761905Y-75645295D02*
X88761905Y-75740533D01*
X88761905Y-75740533D02*
X88714286Y-75835771D01*
X88714286Y-75835771D02*
X88666667Y-75883390D01*
X88666667Y-75883390D02*
X88571429Y-75931009D01*
X88571429Y-75931009D02*
X88238096Y-75931009D01*
X82476190Y-71454819D02*
X82000000Y-71454819D01*
X82000000Y-71454819D02*
X81952381Y-71931009D01*
X81952381Y-71931009D02*
X82000000Y-71883390D01*
X82000000Y-71883390D02*
X82095238Y-71835771D01*
X82095238Y-71835771D02*
X82333333Y-71835771D01*
X82333333Y-71835771D02*
X82428571Y-71883390D01*
X82428571Y-71883390D02*
X82476190Y-71931009D01*
X82476190Y-71931009D02*
X82523809Y-72026247D01*
X82523809Y-72026247D02*
X82523809Y-72264342D01*
X82523809Y-72264342D02*
X82476190Y-72359580D01*
X82476190Y-72359580D02*
X82428571Y-72407200D01*
X82428571Y-72407200D02*
X82333333Y-72454819D01*
X82333333Y-72454819D02*
X82095238Y-72454819D01*
X82095238Y-72454819D02*
X82000000Y-72407200D01*
X82000000Y-72407200D02*
X81952381Y-72359580D01*
X82809524Y-71454819D02*
X83142857Y-72454819D01*
X83142857Y-72454819D02*
X83476190Y-71454819D01*
X84523810Y-72407200D02*
X84666667Y-72454819D01*
X84666667Y-72454819D02*
X84904762Y-72454819D01*
X84904762Y-72454819D02*
X85000000Y-72407200D01*
X85000000Y-72407200D02*
X85047619Y-72359580D01*
X85047619Y-72359580D02*
X85095238Y-72264342D01*
X85095238Y-72264342D02*
X85095238Y-72169104D01*
X85095238Y-72169104D02*
X85047619Y-72073866D01*
X85047619Y-72073866D02*
X85000000Y-72026247D01*
X85000000Y-72026247D02*
X84904762Y-71978628D01*
X84904762Y-71978628D02*
X84714286Y-71931009D01*
X84714286Y-71931009D02*
X84619048Y-71883390D01*
X84619048Y-71883390D02*
X84571429Y-71835771D01*
X84571429Y-71835771D02*
X84523810Y-71740533D01*
X84523810Y-71740533D02*
X84523810Y-71645295D01*
X84523810Y-71645295D02*
X84571429Y-71550057D01*
X84571429Y-71550057D02*
X84619048Y-71502438D01*
X84619048Y-71502438D02*
X84714286Y-71454819D01*
X84714286Y-71454819D02*
X84952381Y-71454819D01*
X84952381Y-71454819D02*
X85095238Y-71502438D01*
X85523810Y-71931009D02*
X85857143Y-71931009D01*
X86000000Y-72454819D02*
X85523810Y-72454819D01*
X85523810Y-72454819D02*
X85523810Y-71454819D01*
X85523810Y-71454819D02*
X86000000Y-71454819D01*
X86428572Y-72454819D02*
X86428572Y-71454819D01*
X86428572Y-71454819D02*
X87000000Y-72454819D01*
X87000000Y-72454819D02*
X87000000Y-71454819D01*
X87428572Y-72407200D02*
X87571429Y-72454819D01*
X87571429Y-72454819D02*
X87809524Y-72454819D01*
X87809524Y-72454819D02*
X87904762Y-72407200D01*
X87904762Y-72407200D02*
X87952381Y-72359580D01*
X87952381Y-72359580D02*
X88000000Y-72264342D01*
X88000000Y-72264342D02*
X88000000Y-72169104D01*
X88000000Y-72169104D02*
X87952381Y-72073866D01*
X87952381Y-72073866D02*
X87904762Y-72026247D01*
X87904762Y-72026247D02*
X87809524Y-71978628D01*
X87809524Y-71978628D02*
X87619048Y-71931009D01*
X87619048Y-71931009D02*
X87523810Y-71883390D01*
X87523810Y-71883390D02*
X87476191Y-71835771D01*
X87476191Y-71835771D02*
X87428572Y-71740533D01*
X87428572Y-71740533D02*
X87428572Y-71645295D01*
X87428572Y-71645295D02*
X87476191Y-71550057D01*
X87476191Y-71550057D02*
X87523810Y-71502438D01*
X87523810Y-71502438D02*
X87619048Y-71454819D01*
X87619048Y-71454819D02*
X87857143Y-71454819D01*
X87857143Y-71454819D02*
X88000000Y-71502438D01*
X88619048Y-71454819D02*
X88809524Y-71454819D01*
X88809524Y-71454819D02*
X88904762Y-71502438D01*
X88904762Y-71502438D02*
X89000000Y-71597676D01*
X89000000Y-71597676D02*
X89047619Y-71788152D01*
X89047619Y-71788152D02*
X89047619Y-72121485D01*
X89047619Y-72121485D02*
X89000000Y-72311961D01*
X89000000Y-72311961D02*
X88904762Y-72407200D01*
X88904762Y-72407200D02*
X88809524Y-72454819D01*
X88809524Y-72454819D02*
X88619048Y-72454819D01*
X88619048Y-72454819D02*
X88523810Y-72407200D01*
X88523810Y-72407200D02*
X88428572Y-72311961D01*
X88428572Y-72311961D02*
X88380953Y-72121485D01*
X88380953Y-72121485D02*
X88380953Y-71788152D01*
X88380953Y-71788152D02*
X88428572Y-71597676D01*
X88428572Y-71597676D02*
X88523810Y-71502438D01*
X88523810Y-71502438D02*
X88619048Y-71454819D01*
X90047619Y-72454819D02*
X89714286Y-71978628D01*
X89476191Y-72454819D02*
X89476191Y-71454819D01*
X89476191Y-71454819D02*
X89857143Y-71454819D01*
X89857143Y-71454819D02*
X89952381Y-71502438D01*
X89952381Y-71502438D02*
X90000000Y-71550057D01*
X90000000Y-71550057D02*
X90047619Y-71645295D01*
X90047619Y-71645295D02*
X90047619Y-71788152D01*
X90047619Y-71788152D02*
X90000000Y-71883390D01*
X90000000Y-71883390D02*
X89952381Y-71931009D01*
X89952381Y-71931009D02*
X89857143Y-71978628D01*
X89857143Y-71978628D02*
X89476191Y-71978628D01*
X94333333Y-9454819D02*
X93857143Y-9454819D01*
X93857143Y-9454819D02*
X93857143Y-8454819D01*
X94619048Y-8550057D02*
X94666667Y-8502438D01*
X94666667Y-8502438D02*
X94761905Y-8454819D01*
X94761905Y-8454819D02*
X95000000Y-8454819D01*
X95000000Y-8454819D02*
X95095238Y-8502438D01*
X95095238Y-8502438D02*
X95142857Y-8550057D01*
X95142857Y-8550057D02*
X95190476Y-8645295D01*
X95190476Y-8645295D02*
X95190476Y-8740533D01*
X95190476Y-8740533D02*
X95142857Y-8883390D01*
X95142857Y-8883390D02*
X94571429Y-9454819D01*
X94571429Y-9454819D02*
X95190476Y-9454819D01*
X95666667Y-9454819D02*
X95857143Y-9454819D01*
X95857143Y-9454819D02*
X95952381Y-9407200D01*
X95952381Y-9407200D02*
X96000000Y-9359580D01*
X96000000Y-9359580D02*
X96095238Y-9216723D01*
X96095238Y-9216723D02*
X96142857Y-9026247D01*
X96142857Y-9026247D02*
X96142857Y-8645295D01*
X96142857Y-8645295D02*
X96095238Y-8550057D01*
X96095238Y-8550057D02*
X96047619Y-8502438D01*
X96047619Y-8502438D02*
X95952381Y-8454819D01*
X95952381Y-8454819D02*
X95761905Y-8454819D01*
X95761905Y-8454819D02*
X95666667Y-8502438D01*
X95666667Y-8502438D02*
X95619048Y-8550057D01*
X95619048Y-8550057D02*
X95571429Y-8645295D01*
X95571429Y-8645295D02*
X95571429Y-8883390D01*
X95571429Y-8883390D02*
X95619048Y-8978628D01*
X95619048Y-8978628D02*
X95666667Y-9026247D01*
X95666667Y-9026247D02*
X95761905Y-9073866D01*
X95761905Y-9073866D02*
X95952381Y-9073866D01*
X95952381Y-9073866D02*
X96047619Y-9026247D01*
X96047619Y-9026247D02*
X96095238Y-8978628D01*
X96095238Y-8978628D02*
X96142857Y-8883390D01*
X96714286Y-8883390D02*
X96619048Y-8835771D01*
X96619048Y-8835771D02*
X96571429Y-8788152D01*
X96571429Y-8788152D02*
X96523810Y-8692914D01*
X96523810Y-8692914D02*
X96523810Y-8645295D01*
X96523810Y-8645295D02*
X96571429Y-8550057D01*
X96571429Y-8550057D02*
X96619048Y-8502438D01*
X96619048Y-8502438D02*
X96714286Y-8454819D01*
X96714286Y-8454819D02*
X96904762Y-8454819D01*
X96904762Y-8454819D02*
X97000000Y-8502438D01*
X97000000Y-8502438D02*
X97047619Y-8550057D01*
X97047619Y-8550057D02*
X97095238Y-8645295D01*
X97095238Y-8645295D02*
X97095238Y-8692914D01*
X97095238Y-8692914D02*
X97047619Y-8788152D01*
X97047619Y-8788152D02*
X97000000Y-8835771D01*
X97000000Y-8835771D02*
X96904762Y-8883390D01*
X96904762Y-8883390D02*
X96714286Y-8883390D01*
X96714286Y-8883390D02*
X96619048Y-8931009D01*
X96619048Y-8931009D02*
X96571429Y-8978628D01*
X96571429Y-8978628D02*
X96523810Y-9073866D01*
X96523810Y-9073866D02*
X96523810Y-9264342D01*
X96523810Y-9264342D02*
X96571429Y-9359580D01*
X96571429Y-9359580D02*
X96619048Y-9407200D01*
X96619048Y-9407200D02*
X96714286Y-9454819D01*
X96714286Y-9454819D02*
X96904762Y-9454819D01*
X96904762Y-9454819D02*
X97000000Y-9407200D01*
X97000000Y-9407200D02*
X97047619Y-9359580D01*
X97047619Y-9359580D02*
X97095238Y-9264342D01*
X97095238Y-9264342D02*
X97095238Y-9073866D01*
X97095238Y-9073866D02*
X97047619Y-8978628D01*
X97047619Y-8978628D02*
X97000000Y-8931009D01*
X97000000Y-8931009D02*
X96904762Y-8883390D01*
X98761905Y-9454819D02*
X98285715Y-9454819D01*
X98285715Y-9454819D02*
X98285715Y-8454819D01*
X99285715Y-8454819D02*
X99476191Y-8454819D01*
X99476191Y-8454819D02*
X99571429Y-8502438D01*
X99571429Y-8502438D02*
X99666667Y-8597676D01*
X99666667Y-8597676D02*
X99714286Y-8788152D01*
X99714286Y-8788152D02*
X99714286Y-9121485D01*
X99714286Y-9121485D02*
X99666667Y-9311961D01*
X99666667Y-9311961D02*
X99571429Y-9407200D01*
X99571429Y-9407200D02*
X99476191Y-9454819D01*
X99476191Y-9454819D02*
X99285715Y-9454819D01*
X99285715Y-9454819D02*
X99190477Y-9407200D01*
X99190477Y-9407200D02*
X99095239Y-9311961D01*
X99095239Y-9311961D02*
X99047620Y-9121485D01*
X99047620Y-9121485D02*
X99047620Y-8788152D01*
X99047620Y-8788152D02*
X99095239Y-8597676D01*
X99095239Y-8597676D02*
X99190477Y-8502438D01*
X99190477Y-8502438D02*
X99285715Y-8454819D01*
X100666667Y-8502438D02*
X100571429Y-8454819D01*
X100571429Y-8454819D02*
X100428572Y-8454819D01*
X100428572Y-8454819D02*
X100285715Y-8502438D01*
X100285715Y-8502438D02*
X100190477Y-8597676D01*
X100190477Y-8597676D02*
X100142858Y-8692914D01*
X100142858Y-8692914D02*
X100095239Y-8883390D01*
X100095239Y-8883390D02*
X100095239Y-9026247D01*
X100095239Y-9026247D02*
X100142858Y-9216723D01*
X100142858Y-9216723D02*
X100190477Y-9311961D01*
X100190477Y-9311961D02*
X100285715Y-9407200D01*
X100285715Y-9407200D02*
X100428572Y-9454819D01*
X100428572Y-9454819D02*
X100523810Y-9454819D01*
X100523810Y-9454819D02*
X100666667Y-9407200D01*
X100666667Y-9407200D02*
X100714286Y-9359580D01*
X100714286Y-9359580D02*
X100714286Y-9026247D01*
X100714286Y-9026247D02*
X100523810Y-9026247D01*
X101142858Y-9454819D02*
X101142858Y-8454819D01*
X102190476Y-9359580D02*
X102142857Y-9407200D01*
X102142857Y-9407200D02*
X102000000Y-9454819D01*
X102000000Y-9454819D02*
X101904762Y-9454819D01*
X101904762Y-9454819D02*
X101761905Y-9407200D01*
X101761905Y-9407200D02*
X101666667Y-9311961D01*
X101666667Y-9311961D02*
X101619048Y-9216723D01*
X101619048Y-9216723D02*
X101571429Y-9026247D01*
X101571429Y-9026247D02*
X101571429Y-8883390D01*
X101571429Y-8883390D02*
X101619048Y-8692914D01*
X101619048Y-8692914D02*
X101666667Y-8597676D01*
X101666667Y-8597676D02*
X101761905Y-8502438D01*
X101761905Y-8502438D02*
X101904762Y-8454819D01*
X101904762Y-8454819D02*
X102000000Y-8454819D01*
X102000000Y-8454819D02*
X102142857Y-8502438D01*
X102142857Y-8502438D02*
X102190476Y-8550057D01*
X99666667Y-51454819D02*
X99666667Y-50454819D01*
X99666667Y-50931009D02*
X100238095Y-50931009D01*
X100238095Y-51454819D02*
X100238095Y-50454819D01*
X101285714Y-51359580D02*
X101238095Y-51407200D01*
X101238095Y-51407200D02*
X101095238Y-51454819D01*
X101095238Y-51454819D02*
X101000000Y-51454819D01*
X101000000Y-51454819D02*
X100857143Y-51407200D01*
X100857143Y-51407200D02*
X100761905Y-51311961D01*
X100761905Y-51311961D02*
X100714286Y-51216723D01*
X100714286Y-51216723D02*
X100666667Y-51026247D01*
X100666667Y-51026247D02*
X100666667Y-50883390D01*
X100666667Y-50883390D02*
X100714286Y-50692914D01*
X100714286Y-50692914D02*
X100761905Y-50597676D01*
X100761905Y-50597676D02*
X100857143Y-50502438D01*
X100857143Y-50502438D02*
X101000000Y-50454819D01*
X101000000Y-50454819D02*
X101095238Y-50454819D01*
X101095238Y-50454819D02*
X101238095Y-50502438D01*
X101238095Y-50502438D02*
X101285714Y-50550057D01*
X101714286Y-51073866D02*
X102476191Y-51073866D01*
X102904762Y-51407200D02*
X103047619Y-51454819D01*
X103047619Y-51454819D02*
X103285714Y-51454819D01*
X103285714Y-51454819D02*
X103380952Y-51407200D01*
X103380952Y-51407200D02*
X103428571Y-51359580D01*
X103428571Y-51359580D02*
X103476190Y-51264342D01*
X103476190Y-51264342D02*
X103476190Y-51169104D01*
X103476190Y-51169104D02*
X103428571Y-51073866D01*
X103428571Y-51073866D02*
X103380952Y-51026247D01*
X103380952Y-51026247D02*
X103285714Y-50978628D01*
X103285714Y-50978628D02*
X103095238Y-50931009D01*
X103095238Y-50931009D02*
X103000000Y-50883390D01*
X103000000Y-50883390D02*
X102952381Y-50835771D01*
X102952381Y-50835771D02*
X102904762Y-50740533D01*
X102904762Y-50740533D02*
X102904762Y-50645295D01*
X102904762Y-50645295D02*
X102952381Y-50550057D01*
X102952381Y-50550057D02*
X103000000Y-50502438D01*
X103000000Y-50502438D02*
X103095238Y-50454819D01*
X103095238Y-50454819D02*
X103333333Y-50454819D01*
X103333333Y-50454819D02*
X103476190Y-50502438D01*
X104476190Y-51454819D02*
X104142857Y-50978628D01*
X103904762Y-51454819D02*
X103904762Y-50454819D01*
X103904762Y-50454819D02*
X104285714Y-50454819D01*
X104285714Y-50454819D02*
X104380952Y-50502438D01*
X104380952Y-50502438D02*
X104428571Y-50550057D01*
X104428571Y-50550057D02*
X104476190Y-50645295D01*
X104476190Y-50645295D02*
X104476190Y-50788152D01*
X104476190Y-50788152D02*
X104428571Y-50883390D01*
X104428571Y-50883390D02*
X104380952Y-50931009D01*
X104380952Y-50931009D02*
X104285714Y-50978628D01*
X104285714Y-50978628D02*
X103904762Y-50978628D01*
X105095238Y-50454819D02*
X105190476Y-50454819D01*
X105190476Y-50454819D02*
X105285714Y-50502438D01*
X105285714Y-50502438D02*
X105333333Y-50550057D01*
X105333333Y-50550057D02*
X105380952Y-50645295D01*
X105380952Y-50645295D02*
X105428571Y-50835771D01*
X105428571Y-50835771D02*
X105428571Y-51073866D01*
X105428571Y-51073866D02*
X105380952Y-51264342D01*
X105380952Y-51264342D02*
X105333333Y-51359580D01*
X105333333Y-51359580D02*
X105285714Y-51407200D01*
X105285714Y-51407200D02*
X105190476Y-51454819D01*
X105190476Y-51454819D02*
X105095238Y-51454819D01*
X105095238Y-51454819D02*
X105000000Y-51407200D01*
X105000000Y-51407200D02*
X104952381Y-51359580D01*
X104952381Y-51359580D02*
X104904762Y-51264342D01*
X104904762Y-51264342D02*
X104857143Y-51073866D01*
X104857143Y-51073866D02*
X104857143Y-50835771D01*
X104857143Y-50835771D02*
X104904762Y-50645295D01*
X104904762Y-50645295D02*
X104952381Y-50550057D01*
X104952381Y-50550057D02*
X105000000Y-50502438D01*
X105000000Y-50502438D02*
X105095238Y-50454819D01*
X106285714Y-50788152D02*
X106285714Y-51454819D01*
X106047619Y-50407200D02*
X105809524Y-51121485D01*
X105809524Y-51121485D02*
X106428571Y-51121485D01*
X11000000Y-10547342D02*
X11000000Y-9347342D01*
X11000000Y-9918771D02*
X11685714Y-9918771D01*
X11685714Y-10547342D02*
X11685714Y-9347342D01*
X12485714Y-9347342D02*
X12714286Y-9347342D01*
X12714286Y-9347342D02*
X12828571Y-9404485D01*
X12828571Y-9404485D02*
X12942857Y-9518771D01*
X12942857Y-9518771D02*
X13000000Y-9747342D01*
X13000000Y-9747342D02*
X13000000Y-10147342D01*
X13000000Y-10147342D02*
X12942857Y-10375914D01*
X12942857Y-10375914D02*
X12828571Y-10490200D01*
X12828571Y-10490200D02*
X12714286Y-10547342D01*
X12714286Y-10547342D02*
X12485714Y-10547342D01*
X12485714Y-10547342D02*
X12371429Y-10490200D01*
X12371429Y-10490200D02*
X12257143Y-10375914D01*
X12257143Y-10375914D02*
X12200000Y-10147342D01*
X12200000Y-10147342D02*
X12200000Y-9747342D01*
X12200000Y-9747342D02*
X12257143Y-9518771D01*
X12257143Y-9518771D02*
X12371429Y-9404485D01*
X12371429Y-9404485D02*
X12485714Y-9347342D01*
X13457143Y-10490200D02*
X13628572Y-10547342D01*
X13628572Y-10547342D02*
X13914286Y-10547342D01*
X13914286Y-10547342D02*
X14028572Y-10490200D01*
X14028572Y-10490200D02*
X14085714Y-10433057D01*
X14085714Y-10433057D02*
X14142857Y-10318771D01*
X14142857Y-10318771D02*
X14142857Y-10204485D01*
X14142857Y-10204485D02*
X14085714Y-10090200D01*
X14085714Y-10090200D02*
X14028572Y-10033057D01*
X14028572Y-10033057D02*
X13914286Y-9975914D01*
X13914286Y-9975914D02*
X13685714Y-9918771D01*
X13685714Y-9918771D02*
X13571429Y-9861628D01*
X13571429Y-9861628D02*
X13514286Y-9804485D01*
X13514286Y-9804485D02*
X13457143Y-9690200D01*
X13457143Y-9690200D02*
X13457143Y-9575914D01*
X13457143Y-9575914D02*
X13514286Y-9461628D01*
X13514286Y-9461628D02*
X13571429Y-9404485D01*
X13571429Y-9404485D02*
X13685714Y-9347342D01*
X13685714Y-9347342D02*
X13971429Y-9347342D01*
X13971429Y-9347342D02*
X14142857Y-9404485D01*
X14485714Y-9347342D02*
X15171429Y-9347342D01*
X14828571Y-10547342D02*
X14828571Y-9347342D01*
X61133332Y-6239866D02*
X61599999Y-7639866D01*
X61599999Y-7639866D02*
X62066665Y-6239866D01*
X62799999Y-6239866D02*
X63066665Y-6239866D01*
X63066665Y-6239866D02*
X63199999Y-6306533D01*
X63199999Y-6306533D02*
X63333332Y-6439866D01*
X63333332Y-6439866D02*
X63399999Y-6706533D01*
X63399999Y-6706533D02*
X63399999Y-7173200D01*
X63399999Y-7173200D02*
X63333332Y-7439866D01*
X63333332Y-7439866D02*
X63199999Y-7573200D01*
X63199999Y-7573200D02*
X63066665Y-7639866D01*
X63066665Y-7639866D02*
X62799999Y-7639866D01*
X62799999Y-7639866D02*
X62666665Y-7573200D01*
X62666665Y-7573200D02*
X62533332Y-7439866D01*
X62533332Y-7439866D02*
X62466665Y-7173200D01*
X62466665Y-7173200D02*
X62466665Y-6706533D01*
X62466665Y-6706533D02*
X62533332Y-6439866D01*
X62533332Y-6439866D02*
X62666665Y-6306533D01*
X62666665Y-6306533D02*
X62799999Y-6239866D01*
X64666666Y-7639866D02*
X63999999Y-7639866D01*
X63999999Y-7639866D02*
X63999999Y-6239866D01*
X65133332Y-7639866D02*
X65133332Y-6239866D01*
X65133332Y-6239866D02*
X65933332Y-7639866D01*
X65933332Y-7639866D02*
X65933332Y-6239866D01*
X67266666Y-7639866D02*
X66599999Y-7639866D01*
X66599999Y-7639866D02*
X66599999Y-6239866D01*
X67666665Y-7239866D02*
X68333332Y-7239866D01*
X67533332Y-7639866D02*
X67999999Y-6239866D01*
X67999999Y-6239866D02*
X68466665Y-7639866D01*
X69399999Y-6906533D02*
X69599999Y-6973200D01*
X69599999Y-6973200D02*
X69666665Y-7039866D01*
X69666665Y-7039866D02*
X69733332Y-7173200D01*
X69733332Y-7173200D02*
X69733332Y-7373200D01*
X69733332Y-7373200D02*
X69666665Y-7506533D01*
X69666665Y-7506533D02*
X69599999Y-7573200D01*
X69599999Y-7573200D02*
X69466665Y-7639866D01*
X69466665Y-7639866D02*
X68933332Y-7639866D01*
X68933332Y-7639866D02*
X68933332Y-6239866D01*
X68933332Y-6239866D02*
X69399999Y-6239866D01*
X69399999Y-6239866D02*
X69533332Y-6306533D01*
X69533332Y-6306533D02*
X69599999Y-6373200D01*
X69599999Y-6373200D02*
X69666665Y-6506533D01*
X69666665Y-6506533D02*
X69666665Y-6639866D01*
X69666665Y-6639866D02*
X69599999Y-6773200D01*
X69599999Y-6773200D02*
X69533332Y-6839866D01*
X69533332Y-6839866D02*
X69399999Y-6906533D01*
X69399999Y-6906533D02*
X68933332Y-6906533D01*
X70266665Y-7573200D02*
X70466665Y-7639866D01*
X70466665Y-7639866D02*
X70799999Y-7639866D01*
X70799999Y-7639866D02*
X70933332Y-7573200D01*
X70933332Y-7573200D02*
X70999999Y-7506533D01*
X70999999Y-7506533D02*
X71066665Y-7373200D01*
X71066665Y-7373200D02*
X71066665Y-7239866D01*
X71066665Y-7239866D02*
X70999999Y-7106533D01*
X70999999Y-7106533D02*
X70933332Y-7039866D01*
X70933332Y-7039866D02*
X70799999Y-6973200D01*
X70799999Y-6973200D02*
X70533332Y-6906533D01*
X70533332Y-6906533D02*
X70399999Y-6839866D01*
X70399999Y-6839866D02*
X70333332Y-6773200D01*
X70333332Y-6773200D02*
X70266665Y-6639866D01*
X70266665Y-6639866D02*
X70266665Y-6506533D01*
X70266665Y-6506533D02*
X70333332Y-6373200D01*
X70333332Y-6373200D02*
X70399999Y-6306533D01*
X70399999Y-6306533D02*
X70533332Y-6239866D01*
X70533332Y-6239866D02*
X70866665Y-6239866D01*
X70866665Y-6239866D02*
X71066665Y-6306533D01*
X73733332Y-6173200D02*
X72533332Y-7973200D01*
X75199999Y-7239866D02*
X75866666Y-7239866D01*
X75066666Y-7639866D02*
X75533333Y-6239866D01*
X75533333Y-6239866D02*
X75999999Y-7639866D01*
X76333333Y-6239866D02*
X77266666Y-7639866D01*
X77266666Y-6239866D02*
X76333333Y-7639866D01*
X77799999Y-7639866D02*
X77799999Y-6239866D01*
X78733333Y-6239866D02*
X78999999Y-6239866D01*
X78999999Y-6239866D02*
X79133333Y-6306533D01*
X79133333Y-6306533D02*
X79266666Y-6439866D01*
X79266666Y-6439866D02*
X79333333Y-6706533D01*
X79333333Y-6706533D02*
X79333333Y-7173200D01*
X79333333Y-7173200D02*
X79266666Y-7439866D01*
X79266666Y-7439866D02*
X79133333Y-7573200D01*
X79133333Y-7573200D02*
X78999999Y-7639866D01*
X78999999Y-7639866D02*
X78733333Y-7639866D01*
X78733333Y-7639866D02*
X78599999Y-7573200D01*
X78599999Y-7573200D02*
X78466666Y-7439866D01*
X78466666Y-7439866D02*
X78399999Y-7173200D01*
X78399999Y-7173200D02*
X78399999Y-6706533D01*
X78399999Y-6706533D02*
X78466666Y-6439866D01*
X78466666Y-6439866D02*
X78599999Y-6306533D01*
X78599999Y-6306533D02*
X78733333Y-6239866D01*
X79933333Y-7639866D02*
X79933333Y-6239866D01*
X79933333Y-6239866D02*
X80400000Y-7239866D01*
X80400000Y-7239866D02*
X80866666Y-6239866D01*
X80866666Y-6239866D02*
X80866666Y-7639866D01*
X83400000Y-7639866D02*
X82933333Y-6973200D01*
X82600000Y-7639866D02*
X82600000Y-6239866D01*
X82600000Y-6239866D02*
X83133333Y-6239866D01*
X83133333Y-6239866D02*
X83266667Y-6306533D01*
X83266667Y-6306533D02*
X83333333Y-6373200D01*
X83333333Y-6373200D02*
X83400000Y-6506533D01*
X83400000Y-6506533D02*
X83400000Y-6706533D01*
X83400000Y-6706533D02*
X83333333Y-6839866D01*
X83333333Y-6839866D02*
X83266667Y-6906533D01*
X83266667Y-6906533D02*
X83133333Y-6973200D01*
X83133333Y-6973200D02*
X82600000Y-6973200D01*
X84266667Y-6239866D02*
X84533333Y-6239866D01*
X84533333Y-6239866D02*
X84666667Y-6306533D01*
X84666667Y-6306533D02*
X84800000Y-6439866D01*
X84800000Y-6439866D02*
X84866667Y-6706533D01*
X84866667Y-6706533D02*
X84866667Y-7173200D01*
X84866667Y-7173200D02*
X84800000Y-7439866D01*
X84800000Y-7439866D02*
X84666667Y-7573200D01*
X84666667Y-7573200D02*
X84533333Y-7639866D01*
X84533333Y-7639866D02*
X84266667Y-7639866D01*
X84266667Y-7639866D02*
X84133333Y-7573200D01*
X84133333Y-7573200D02*
X84000000Y-7439866D01*
X84000000Y-7439866D02*
X83933333Y-7173200D01*
X83933333Y-7173200D02*
X83933333Y-6706533D01*
X83933333Y-6706533D02*
X84000000Y-6439866D01*
X84000000Y-6439866D02*
X84133333Y-6306533D01*
X84133333Y-6306533D02*
X84266667Y-6239866D01*
X85266667Y-6239866D02*
X85733334Y-7639866D01*
X85733334Y-7639866D02*
X86200000Y-6239866D01*
X86666667Y-6906533D02*
X87133334Y-6906533D01*
X87333334Y-7639866D02*
X86666667Y-7639866D01*
X86666667Y-7639866D02*
X86666667Y-6239866D01*
X86666667Y-6239866D02*
X87333334Y-6239866D01*
X88733334Y-7639866D02*
X88266667Y-6973200D01*
X87933334Y-7639866D02*
X87933334Y-6239866D01*
X87933334Y-6239866D02*
X88466667Y-6239866D01*
X88466667Y-6239866D02*
X88600001Y-6306533D01*
X88600001Y-6306533D02*
X88666667Y-6373200D01*
X88666667Y-6373200D02*
X88733334Y-6506533D01*
X88733334Y-6506533D02*
X88733334Y-6706533D01*
X88733334Y-6706533D02*
X88666667Y-6839866D01*
X88666667Y-6839866D02*
X88600001Y-6906533D01*
X88600001Y-6906533D02*
X88466667Y-6973200D01*
X88466667Y-6973200D02*
X87933334Y-6973200D01*
X8666666Y-15454819D02*
X8666666Y-16169104D01*
X8666666Y-16169104D02*
X8619047Y-16311961D01*
X8619047Y-16311961D02*
X8523809Y-16407200D01*
X8523809Y-16407200D02*
X8380952Y-16454819D01*
X8380952Y-16454819D02*
X8285714Y-16454819D01*
X9666666Y-16454819D02*
X9095238Y-16454819D01*
X9380952Y-16454819D02*
X9380952Y-15454819D01*
X9380952Y-15454819D02*
X9285714Y-15597676D01*
X9285714Y-15597676D02*
X9190476Y-15692914D01*
X9190476Y-15692914D02*
X9095238Y-15740533D01*
X83833333Y-44454819D02*
X83500000Y-43978628D01*
X83261905Y-44454819D02*
X83261905Y-43454819D01*
X83261905Y-43454819D02*
X83642857Y-43454819D01*
X83642857Y-43454819D02*
X83738095Y-43502438D01*
X83738095Y-43502438D02*
X83785714Y-43550057D01*
X83785714Y-43550057D02*
X83833333Y-43645295D01*
X83833333Y-43645295D02*
X83833333Y-43788152D01*
X83833333Y-43788152D02*
X83785714Y-43883390D01*
X83785714Y-43883390D02*
X83738095Y-43931009D01*
X83738095Y-43931009D02*
X83642857Y-43978628D01*
X83642857Y-43978628D02*
X83261905Y-43978628D01*
X84785714Y-44454819D02*
X84214286Y-44454819D01*
X84500000Y-44454819D02*
X84500000Y-43454819D01*
X84500000Y-43454819D02*
X84404762Y-43597676D01*
X84404762Y-43597676D02*
X84309524Y-43692914D01*
X84309524Y-43692914D02*
X84214286Y-43740533D01*
X36359580Y-21166666D02*
X36407200Y-21214285D01*
X36407200Y-21214285D02*
X36454819Y-21357142D01*
X36454819Y-21357142D02*
X36454819Y-21452380D01*
X36454819Y-21452380D02*
X36407200Y-21595237D01*
X36407200Y-21595237D02*
X36311961Y-21690475D01*
X36311961Y-21690475D02*
X36216723Y-21738094D01*
X36216723Y-21738094D02*
X36026247Y-21785713D01*
X36026247Y-21785713D02*
X35883390Y-21785713D01*
X35883390Y-21785713D02*
X35692914Y-21738094D01*
X35692914Y-21738094D02*
X35597676Y-21690475D01*
X35597676Y-21690475D02*
X35502438Y-21595237D01*
X35502438Y-21595237D02*
X35454819Y-21452380D01*
X35454819Y-21452380D02*
X35454819Y-21357142D01*
X35454819Y-21357142D02*
X35502438Y-21214285D01*
X35502438Y-21214285D02*
X35550057Y-21166666D01*
X35550057Y-20785713D02*
X35502438Y-20738094D01*
X35502438Y-20738094D02*
X35454819Y-20642856D01*
X35454819Y-20642856D02*
X35454819Y-20404761D01*
X35454819Y-20404761D02*
X35502438Y-20309523D01*
X35502438Y-20309523D02*
X35550057Y-20261904D01*
X35550057Y-20261904D02*
X35645295Y-20214285D01*
X35645295Y-20214285D02*
X35740533Y-20214285D01*
X35740533Y-20214285D02*
X35883390Y-20261904D01*
X35883390Y-20261904D02*
X36454819Y-20833332D01*
X36454819Y-20833332D02*
X36454819Y-20214285D01*
X24359580Y-21166666D02*
X24407200Y-21214285D01*
X24407200Y-21214285D02*
X24454819Y-21357142D01*
X24454819Y-21357142D02*
X24454819Y-21452380D01*
X24454819Y-21452380D02*
X24407200Y-21595237D01*
X24407200Y-21595237D02*
X24311961Y-21690475D01*
X24311961Y-21690475D02*
X24216723Y-21738094D01*
X24216723Y-21738094D02*
X24026247Y-21785713D01*
X24026247Y-21785713D02*
X23883390Y-21785713D01*
X23883390Y-21785713D02*
X23692914Y-21738094D01*
X23692914Y-21738094D02*
X23597676Y-21690475D01*
X23597676Y-21690475D02*
X23502438Y-21595237D01*
X23502438Y-21595237D02*
X23454819Y-21452380D01*
X23454819Y-21452380D02*
X23454819Y-21357142D01*
X23454819Y-21357142D02*
X23502438Y-21214285D01*
X23502438Y-21214285D02*
X23550057Y-21166666D01*
X24454819Y-20214285D02*
X24454819Y-20785713D01*
X24454819Y-20499999D02*
X23454819Y-20499999D01*
X23454819Y-20499999D02*
X23597676Y-20595237D01*
X23597676Y-20595237D02*
X23692914Y-20690475D01*
X23692914Y-20690475D02*
X23740533Y-20785713D01*
X68833333Y-51454819D02*
X68500000Y-50978628D01*
X68261905Y-51454819D02*
X68261905Y-50454819D01*
X68261905Y-50454819D02*
X68642857Y-50454819D01*
X68642857Y-50454819D02*
X68738095Y-50502438D01*
X68738095Y-50502438D02*
X68785714Y-50550057D01*
X68785714Y-50550057D02*
X68833333Y-50645295D01*
X68833333Y-50645295D02*
X68833333Y-50788152D01*
X68833333Y-50788152D02*
X68785714Y-50883390D01*
X68785714Y-50883390D02*
X68738095Y-50931009D01*
X68738095Y-50931009D02*
X68642857Y-50978628D01*
X68642857Y-50978628D02*
X68261905Y-50978628D01*
X69690476Y-50788152D02*
X69690476Y-51454819D01*
X69452381Y-50407200D02*
X69214286Y-51121485D01*
X69214286Y-51121485D02*
X69833333Y-51121485D01*
X80359580Y-35166666D02*
X80407200Y-35214285D01*
X80407200Y-35214285D02*
X80454819Y-35357142D01*
X80454819Y-35357142D02*
X80454819Y-35452380D01*
X80454819Y-35452380D02*
X80407200Y-35595237D01*
X80407200Y-35595237D02*
X80311961Y-35690475D01*
X80311961Y-35690475D02*
X80216723Y-35738094D01*
X80216723Y-35738094D02*
X80026247Y-35785713D01*
X80026247Y-35785713D02*
X79883390Y-35785713D01*
X79883390Y-35785713D02*
X79692914Y-35738094D01*
X79692914Y-35738094D02*
X79597676Y-35690475D01*
X79597676Y-35690475D02*
X79502438Y-35595237D01*
X79502438Y-35595237D02*
X79454819Y-35452380D01*
X79454819Y-35452380D02*
X79454819Y-35357142D01*
X79454819Y-35357142D02*
X79502438Y-35214285D01*
X79502438Y-35214285D02*
X79550057Y-35166666D01*
X79454819Y-34833332D02*
X79454819Y-34214285D01*
X79454819Y-34214285D02*
X79835771Y-34547618D01*
X79835771Y-34547618D02*
X79835771Y-34404761D01*
X79835771Y-34404761D02*
X79883390Y-34309523D01*
X79883390Y-34309523D02*
X79931009Y-34261904D01*
X79931009Y-34261904D02*
X80026247Y-34214285D01*
X80026247Y-34214285D02*
X80264342Y-34214285D01*
X80264342Y-34214285D02*
X80359580Y-34261904D01*
X80359580Y-34261904D02*
X80407200Y-34309523D01*
X80407200Y-34309523D02*
X80454819Y-34404761D01*
X80454819Y-34404761D02*
X80454819Y-34690475D01*
X80454819Y-34690475D02*
X80407200Y-34785713D01*
X80407200Y-34785713D02*
X80359580Y-34833332D01*
X59666666Y-12454819D02*
X59666666Y-13169104D01*
X59666666Y-13169104D02*
X59619047Y-13311961D01*
X59619047Y-13311961D02*
X59523809Y-13407200D01*
X59523809Y-13407200D02*
X59380952Y-13454819D01*
X59380952Y-13454819D02*
X59285714Y-13454819D01*
X60095238Y-12550057D02*
X60142857Y-12502438D01*
X60142857Y-12502438D02*
X60238095Y-12454819D01*
X60238095Y-12454819D02*
X60476190Y-12454819D01*
X60476190Y-12454819D02*
X60571428Y-12502438D01*
X60571428Y-12502438D02*
X60619047Y-12550057D01*
X60619047Y-12550057D02*
X60666666Y-12645295D01*
X60666666Y-12645295D02*
X60666666Y-12740533D01*
X60666666Y-12740533D02*
X60619047Y-12883390D01*
X60619047Y-12883390D02*
X60047619Y-13454819D01*
X60047619Y-13454819D02*
X60666666Y-13454819D01*
X95666666Y-64454819D02*
X95666666Y-65169104D01*
X95666666Y-65169104D02*
X95619047Y-65311961D01*
X95619047Y-65311961D02*
X95523809Y-65407200D01*
X95523809Y-65407200D02*
X95380952Y-65454819D01*
X95380952Y-65454819D02*
X95285714Y-65454819D01*
X96571428Y-64454819D02*
X96380952Y-64454819D01*
X96380952Y-64454819D02*
X96285714Y-64502438D01*
X96285714Y-64502438D02*
X96238095Y-64550057D01*
X96238095Y-64550057D02*
X96142857Y-64692914D01*
X96142857Y-64692914D02*
X96095238Y-64883390D01*
X96095238Y-64883390D02*
X96095238Y-65264342D01*
X96095238Y-65264342D02*
X96142857Y-65359580D01*
X96142857Y-65359580D02*
X96190476Y-65407200D01*
X96190476Y-65407200D02*
X96285714Y-65454819D01*
X96285714Y-65454819D02*
X96476190Y-65454819D01*
X96476190Y-65454819D02*
X96571428Y-65407200D01*
X96571428Y-65407200D02*
X96619047Y-65359580D01*
X96619047Y-65359580D02*
X96666666Y-65264342D01*
X96666666Y-65264342D02*
X96666666Y-65026247D01*
X96666666Y-65026247D02*
X96619047Y-64931009D01*
X96619047Y-64931009D02*
X96571428Y-64883390D01*
X96571428Y-64883390D02*
X96476190Y-64835771D01*
X96476190Y-64835771D02*
X96285714Y-64835771D01*
X96285714Y-64835771D02*
X96190476Y-64883390D01*
X96190476Y-64883390D02*
X96142857Y-64931009D01*
X96142857Y-64931009D02*
X96095238Y-65026247D01*
X91454819Y-39166666D02*
X90978628Y-39499999D01*
X91454819Y-39738094D02*
X90454819Y-39738094D01*
X90454819Y-39738094D02*
X90454819Y-39357142D01*
X90454819Y-39357142D02*
X90502438Y-39261904D01*
X90502438Y-39261904D02*
X90550057Y-39214285D01*
X90550057Y-39214285D02*
X90645295Y-39166666D01*
X90645295Y-39166666D02*
X90788152Y-39166666D01*
X90788152Y-39166666D02*
X90883390Y-39214285D01*
X90883390Y-39214285D02*
X90931009Y-39261904D01*
X90931009Y-39261904D02*
X90978628Y-39357142D01*
X90978628Y-39357142D02*
X90978628Y-39738094D01*
X90454819Y-38833332D02*
X90454819Y-38214285D01*
X90454819Y-38214285D02*
X90835771Y-38547618D01*
X90835771Y-38547618D02*
X90835771Y-38404761D01*
X90835771Y-38404761D02*
X90883390Y-38309523D01*
X90883390Y-38309523D02*
X90931009Y-38261904D01*
X90931009Y-38261904D02*
X91026247Y-38214285D01*
X91026247Y-38214285D02*
X91264342Y-38214285D01*
X91264342Y-38214285D02*
X91359580Y-38261904D01*
X91359580Y-38261904D02*
X91407200Y-38309523D01*
X91407200Y-38309523D02*
X91454819Y-38404761D01*
X91454819Y-38404761D02*
X91454819Y-38690475D01*
X91454819Y-38690475D02*
X91407200Y-38785713D01*
X91407200Y-38785713D02*
X91359580Y-38833332D01*
X29238095Y-20454819D02*
X29238095Y-21264342D01*
X29238095Y-21264342D02*
X29285714Y-21359580D01*
X29285714Y-21359580D02*
X29333333Y-21407200D01*
X29333333Y-21407200D02*
X29428571Y-21454819D01*
X29428571Y-21454819D02*
X29619047Y-21454819D01*
X29619047Y-21454819D02*
X29714285Y-21407200D01*
X29714285Y-21407200D02*
X29761904Y-21359580D01*
X29761904Y-21359580D02*
X29809523Y-21264342D01*
X29809523Y-21264342D02*
X29809523Y-20454819D01*
X30809523Y-21454819D02*
X30238095Y-21454819D01*
X30523809Y-21454819D02*
X30523809Y-20454819D01*
X30523809Y-20454819D02*
X30428571Y-20597676D01*
X30428571Y-20597676D02*
X30333333Y-20692914D01*
X30333333Y-20692914D02*
X30238095Y-20740533D01*
X106454819Y-23166666D02*
X105978628Y-23499999D01*
X106454819Y-23738094D02*
X105454819Y-23738094D01*
X105454819Y-23738094D02*
X105454819Y-23357142D01*
X105454819Y-23357142D02*
X105502438Y-23261904D01*
X105502438Y-23261904D02*
X105550057Y-23214285D01*
X105550057Y-23214285D02*
X105645295Y-23166666D01*
X105645295Y-23166666D02*
X105788152Y-23166666D01*
X105788152Y-23166666D02*
X105883390Y-23214285D01*
X105883390Y-23214285D02*
X105931009Y-23261904D01*
X105931009Y-23261904D02*
X105978628Y-23357142D01*
X105978628Y-23357142D02*
X105978628Y-23738094D01*
X105454819Y-22309523D02*
X105454819Y-22499999D01*
X105454819Y-22499999D02*
X105502438Y-22595237D01*
X105502438Y-22595237D02*
X105550057Y-22642856D01*
X105550057Y-22642856D02*
X105692914Y-22738094D01*
X105692914Y-22738094D02*
X105883390Y-22785713D01*
X105883390Y-22785713D02*
X106264342Y-22785713D01*
X106264342Y-22785713D02*
X106359580Y-22738094D01*
X106359580Y-22738094D02*
X106407200Y-22690475D01*
X106407200Y-22690475D02*
X106454819Y-22595237D01*
X106454819Y-22595237D02*
X106454819Y-22404761D01*
X106454819Y-22404761D02*
X106407200Y-22309523D01*
X106407200Y-22309523D02*
X106359580Y-22261904D01*
X106359580Y-22261904D02*
X106264342Y-22214285D01*
X106264342Y-22214285D02*
X106026247Y-22214285D01*
X106026247Y-22214285D02*
X105931009Y-22261904D01*
X105931009Y-22261904D02*
X105883390Y-22309523D01*
X105883390Y-22309523D02*
X105835771Y-22404761D01*
X105835771Y-22404761D02*
X105835771Y-22595237D01*
X105835771Y-22595237D02*
X105883390Y-22690475D01*
X105883390Y-22690475D02*
X105931009Y-22738094D01*
X105931009Y-22738094D02*
X106026247Y-22785713D01*
X95833333Y-44454819D02*
X95500000Y-43978628D01*
X95261905Y-44454819D02*
X95261905Y-43454819D01*
X95261905Y-43454819D02*
X95642857Y-43454819D01*
X95642857Y-43454819D02*
X95738095Y-43502438D01*
X95738095Y-43502438D02*
X95785714Y-43550057D01*
X95785714Y-43550057D02*
X95833333Y-43645295D01*
X95833333Y-43645295D02*
X95833333Y-43788152D01*
X95833333Y-43788152D02*
X95785714Y-43883390D01*
X95785714Y-43883390D02*
X95738095Y-43931009D01*
X95738095Y-43931009D02*
X95642857Y-43978628D01*
X95642857Y-43978628D02*
X95261905Y-43978628D01*
X96214286Y-43550057D02*
X96261905Y-43502438D01*
X96261905Y-43502438D02*
X96357143Y-43454819D01*
X96357143Y-43454819D02*
X96595238Y-43454819D01*
X96595238Y-43454819D02*
X96690476Y-43502438D01*
X96690476Y-43502438D02*
X96738095Y-43550057D01*
X96738095Y-43550057D02*
X96785714Y-43645295D01*
X96785714Y-43645295D02*
X96785714Y-43740533D01*
X96785714Y-43740533D02*
X96738095Y-43883390D01*
X96738095Y-43883390D02*
X96166667Y-44454819D01*
X96166667Y-44454819D02*
X96785714Y-44454819D01*
X91666666Y-12454819D02*
X91666666Y-13169104D01*
X91666666Y-13169104D02*
X91619047Y-13311961D01*
X91619047Y-13311961D02*
X91523809Y-13407200D01*
X91523809Y-13407200D02*
X91380952Y-13454819D01*
X91380952Y-13454819D02*
X91285714Y-13454819D01*
X92571428Y-12788152D02*
X92571428Y-13454819D01*
X92333333Y-12407200D02*
X92095238Y-13121485D01*
X92095238Y-13121485D02*
X92714285Y-13121485D01*
X98454819Y-23166666D02*
X97978628Y-23499999D01*
X98454819Y-23738094D02*
X97454819Y-23738094D01*
X97454819Y-23738094D02*
X97454819Y-23357142D01*
X97454819Y-23357142D02*
X97502438Y-23261904D01*
X97502438Y-23261904D02*
X97550057Y-23214285D01*
X97550057Y-23214285D02*
X97645295Y-23166666D01*
X97645295Y-23166666D02*
X97788152Y-23166666D01*
X97788152Y-23166666D02*
X97883390Y-23214285D01*
X97883390Y-23214285D02*
X97931009Y-23261904D01*
X97931009Y-23261904D02*
X97978628Y-23357142D01*
X97978628Y-23357142D02*
X97978628Y-23738094D01*
X97454819Y-22261904D02*
X97454819Y-22738094D01*
X97454819Y-22738094D02*
X97931009Y-22785713D01*
X97931009Y-22785713D02*
X97883390Y-22738094D01*
X97883390Y-22738094D02*
X97835771Y-22642856D01*
X97835771Y-22642856D02*
X97835771Y-22404761D01*
X97835771Y-22404761D02*
X97883390Y-22309523D01*
X97883390Y-22309523D02*
X97931009Y-22261904D01*
X97931009Y-22261904D02*
X98026247Y-22214285D01*
X98026247Y-22214285D02*
X98264342Y-22214285D01*
X98264342Y-22214285D02*
X98359580Y-22261904D01*
X98359580Y-22261904D02*
X98407200Y-22309523D01*
X98407200Y-22309523D02*
X98454819Y-22404761D01*
X98454819Y-22404761D02*
X98454819Y-22642856D01*
X98454819Y-22642856D02*
X98407200Y-22738094D01*
X98407200Y-22738094D02*
X98359580Y-22785713D01*
X64666666Y-62454819D02*
X64666666Y-63169104D01*
X64666666Y-63169104D02*
X64619047Y-63311961D01*
X64619047Y-63311961D02*
X64523809Y-63407200D01*
X64523809Y-63407200D02*
X64380952Y-63454819D01*
X64380952Y-63454819D02*
X64285714Y-63454819D01*
X65619047Y-62454819D02*
X65142857Y-62454819D01*
X65142857Y-62454819D02*
X65095238Y-62931009D01*
X65095238Y-62931009D02*
X65142857Y-62883390D01*
X65142857Y-62883390D02*
X65238095Y-62835771D01*
X65238095Y-62835771D02*
X65476190Y-62835771D01*
X65476190Y-62835771D02*
X65571428Y-62883390D01*
X65571428Y-62883390D02*
X65619047Y-62931009D01*
X65619047Y-62931009D02*
X65666666Y-63026247D01*
X65666666Y-63026247D02*
X65666666Y-63264342D01*
X65666666Y-63264342D02*
X65619047Y-63359580D01*
X65619047Y-63359580D02*
X65571428Y-63407200D01*
X65571428Y-63407200D02*
X65476190Y-63454819D01*
X65476190Y-63454819D02*
X65238095Y-63454819D01*
X65238095Y-63454819D02*
X65142857Y-63407200D01*
X65142857Y-63407200D02*
X65095238Y-63359580D01*
X98666666Y-53454819D02*
X98666666Y-54169104D01*
X98666666Y-54169104D02*
X98619047Y-54311961D01*
X98619047Y-54311961D02*
X98523809Y-54407200D01*
X98523809Y-54407200D02*
X98380952Y-54454819D01*
X98380952Y-54454819D02*
X98285714Y-54454819D01*
X99047619Y-53454819D02*
X99666666Y-53454819D01*
X99666666Y-53454819D02*
X99333333Y-53835771D01*
X99333333Y-53835771D02*
X99476190Y-53835771D01*
X99476190Y-53835771D02*
X99571428Y-53883390D01*
X99571428Y-53883390D02*
X99619047Y-53931009D01*
X99619047Y-53931009D02*
X99666666Y-54026247D01*
X99666666Y-54026247D02*
X99666666Y-54264342D01*
X99666666Y-54264342D02*
X99619047Y-54359580D01*
X99619047Y-54359580D02*
X99571428Y-54407200D01*
X99571428Y-54407200D02*
X99476190Y-54454819D01*
X99476190Y-54454819D02*
X99190476Y-54454819D01*
X99190476Y-54454819D02*
X99095238Y-54407200D01*
X99095238Y-54407200D02*
X99047619Y-54359580D01*
X84238095Y-34454819D02*
X84238095Y-35264342D01*
X84238095Y-35264342D02*
X84285714Y-35359580D01*
X84285714Y-35359580D02*
X84333333Y-35407200D01*
X84333333Y-35407200D02*
X84428571Y-35454819D01*
X84428571Y-35454819D02*
X84619047Y-35454819D01*
X84619047Y-35454819D02*
X84714285Y-35407200D01*
X84714285Y-35407200D02*
X84761904Y-35359580D01*
X84761904Y-35359580D02*
X84809523Y-35264342D01*
X84809523Y-35264342D02*
X84809523Y-34454819D01*
X85238095Y-34550057D02*
X85285714Y-34502438D01*
X85285714Y-34502438D02*
X85380952Y-34454819D01*
X85380952Y-34454819D02*
X85619047Y-34454819D01*
X85619047Y-34454819D02*
X85714285Y-34502438D01*
X85714285Y-34502438D02*
X85761904Y-34550057D01*
X85761904Y-34550057D02*
X85809523Y-34645295D01*
X85809523Y-34645295D02*
X85809523Y-34740533D01*
X85809523Y-34740533D02*
X85761904Y-34883390D01*
X85761904Y-34883390D02*
X85190476Y-35454819D01*
X85190476Y-35454819D02*
X85809523Y-35454819D01*
%TO.C,J1*%
D11*
X6150000Y-17250000D02*
X6150000Y-18500000D01*
X6450000Y-19800000D02*
X7200000Y-19800000D01*
X7200000Y-19800000D02*
X7200000Y-22750000D01*
X7200000Y-22750000D02*
X12750000Y-22750000D01*
X7400000Y-17250000D02*
X6150000Y-17250000D01*
X18300000Y-19800000D02*
X18300000Y-22750000D01*
X18300000Y-22750000D02*
X12750000Y-22750000D01*
X19050000Y-19800000D02*
X18300000Y-19800000D01*
X6440000Y-17540000D02*
X19060000Y-17540000D01*
X19060000Y-23510000D01*
X6440000Y-23510000D01*
X6440000Y-17540000D01*
X6450000Y-17550000D02*
X8250000Y-17550000D01*
X8250000Y-18300000D01*
X6450000Y-18300000D01*
X6450000Y-17550000D01*
X9750000Y-17550000D02*
X15750000Y-17550000D01*
X15750000Y-18300000D01*
X9750000Y-18300000D01*
X9750000Y-17550000D01*
X17250000Y-17550000D02*
X19050000Y-17550000D01*
X19050000Y-18300000D01*
X17250000Y-18300000D01*
X17250000Y-17550000D01*
%TO.C,R1*%
X83772936Y-47265000D02*
X84227064Y-47265000D01*
X83772936Y-48735000D02*
X84227064Y-48735000D01*
%TO.C,C2*%
X35265000Y-24738748D02*
X35265000Y-25261252D01*
X36735000Y-24738748D02*
X36735000Y-25261252D01*
%TO.C,C1*%
X23265000Y-24738748D02*
X23265000Y-25261252D01*
X24735000Y-24738748D02*
X24735000Y-25261252D01*
%TO.C,R4*%
X68772936Y-54265000D02*
X69227064Y-54265000D01*
X68772936Y-55735000D02*
X69227064Y-55735000D01*
%TO.C,C3*%
X79265000Y-39261252D02*
X79265000Y-38738748D01*
X80735000Y-39261252D02*
X80735000Y-38738748D01*
%TO.C,J2*%
X55320000Y-19500000D02*
X55320000Y-20500000D01*
X55320000Y-20500000D02*
X56320000Y-20000000D01*
X56320000Y-20000000D02*
X55320000Y-19500000D01*
X56710000Y-14790000D02*
X65830000Y-14790000D01*
X56710000Y-26840000D02*
X58020000Y-26840000D01*
X56710000Y-42990000D02*
X56710000Y-14790000D01*
X58020000Y-16090000D02*
X64520000Y-16090000D01*
X58020000Y-26840000D02*
X58020000Y-16090000D01*
X58020000Y-30940000D02*
X56710000Y-30940000D01*
X58020000Y-41690000D02*
X58020000Y-30940000D01*
X64520000Y-16090000D02*
X64520000Y-41690000D01*
X64520000Y-41690000D02*
X58020000Y-41690000D01*
X65830000Y-14790000D02*
X65830000Y-42990000D01*
X65830000Y-42990000D02*
X56710000Y-42990000D01*
%TO.C,J6*%
X93150000Y-66250000D02*
X93150000Y-67500000D01*
X93450000Y-68800000D02*
X94200000Y-68800000D01*
X94200000Y-68800000D02*
X94200000Y-71750000D01*
X94200000Y-71750000D02*
X97250000Y-71750000D01*
X94400000Y-66250000D02*
X93150000Y-66250000D01*
X100300000Y-68800000D02*
X100300000Y-71750000D01*
X100300000Y-71750000D02*
X97250000Y-71750000D01*
X101050000Y-68800000D02*
X100300000Y-68800000D01*
X93440000Y-66540000D02*
X101060000Y-66540000D01*
X101060000Y-72510000D01*
X93440000Y-72510000D01*
X93440000Y-66540000D01*
X93450000Y-66550000D02*
X95250000Y-66550000D01*
X95250000Y-67300000D01*
X93450000Y-67300000D01*
X93450000Y-66550000D01*
X96750000Y-66550000D02*
X97750000Y-66550000D01*
X97750000Y-67300000D01*
X96750000Y-67300000D01*
X96750000Y-66550000D01*
X99250000Y-66550000D02*
X101050000Y-66550000D01*
X101050000Y-67300000D01*
X99250000Y-67300000D01*
X99250000Y-66550000D01*
%TO.C,R3*%
X90265000Y-43227064D02*
X90265000Y-42772936D01*
X91735000Y-43227064D02*
X91735000Y-42772936D01*
%TO.C,U1*%
X27940000Y-22440000D02*
X32060000Y-22440000D01*
X27940000Y-22535000D02*
X27940000Y-22440000D01*
X27940000Y-27560000D02*
X27940000Y-27465000D01*
X32060000Y-22440000D02*
X32060000Y-22535000D01*
X32060000Y-27465000D02*
X32060000Y-27560000D01*
X32060000Y-27560000D02*
X27940000Y-27560000D01*
X27400000Y-22530000D02*
X27160000Y-22200000D01*
X27640000Y-22200000D01*
X27400000Y-22530000D01*
G36*
X27400000Y-22530000D02*
G01*
X27160000Y-22200000D01*
X27640000Y-22200000D01*
X27400000Y-22530000D01*
G37*
%TO.C,R6*%
X105265000Y-27227064D02*
X105265000Y-26772936D01*
X106735000Y-27227064D02*
X106735000Y-26772936D01*
%TO.C,R2*%
X95772936Y-47265000D02*
X96227064Y-47265000D01*
X95772936Y-48735000D02*
X96227064Y-48735000D01*
%TO.C,J4*%
X89150000Y-14250000D02*
X89150000Y-15500000D01*
X89450000Y-16800000D02*
X90200000Y-16800000D01*
X90200000Y-16800000D02*
X90200000Y-19750000D01*
X90200000Y-19750000D02*
X99500000Y-19750000D01*
X90400000Y-14250000D02*
X89150000Y-14250000D01*
X108800000Y-16800000D02*
X108800000Y-19750000D01*
X108800000Y-19750000D02*
X99500000Y-19750000D01*
X109550000Y-16800000D02*
X108800000Y-16800000D01*
X89440000Y-14540000D02*
X109560000Y-14540000D01*
X109560000Y-20510000D01*
X89440000Y-20510000D01*
X89440000Y-14540000D01*
X89450000Y-14550000D02*
X91250000Y-14550000D01*
X91250000Y-15300000D01*
X89450000Y-15300000D01*
X89450000Y-14550000D01*
X92750000Y-14550000D02*
X106250000Y-14550000D01*
X106250000Y-15300000D01*
X92750000Y-15300000D01*
X92750000Y-14550000D01*
X107750000Y-14550000D02*
X109550000Y-14550000D01*
X109550000Y-15300000D01*
X107750000Y-15300000D01*
X107750000Y-14550000D01*
%TO.C,R5*%
X97265000Y-27227064D02*
X97265000Y-26772936D01*
X98735000Y-27227064D02*
X98735000Y-26772936D01*
%TO.C,J5*%
X62150000Y-64250000D02*
X62150000Y-65500000D01*
X62450000Y-66800000D02*
X63200000Y-66800000D01*
X63200000Y-66800000D02*
X63200000Y-69750000D01*
X63200000Y-69750000D02*
X66250000Y-69750000D01*
X63400000Y-64250000D02*
X62150000Y-64250000D01*
X69300000Y-66800000D02*
X69300000Y-69750000D01*
X69300000Y-69750000D02*
X66250000Y-69750000D01*
X70050000Y-66800000D02*
X69300000Y-66800000D01*
X62440000Y-64540000D02*
X70060000Y-64540000D01*
X70060000Y-70510000D01*
X62440000Y-70510000D01*
X62440000Y-64540000D01*
X62450000Y-64550000D02*
X64250000Y-64550000D01*
X64250000Y-65300000D01*
X62450000Y-65300000D01*
X62450000Y-64550000D01*
X65750000Y-64550000D02*
X66750000Y-64550000D01*
X66750000Y-65300000D01*
X65750000Y-65300000D01*
X65750000Y-64550000D01*
X68250000Y-64550000D02*
X70050000Y-64550000D01*
X70050000Y-65300000D01*
X68250000Y-65300000D01*
X68250000Y-64550000D01*
%TO.C,J3*%
X96150000Y-55250000D02*
X96150000Y-56500000D01*
X96450000Y-57800000D02*
X97200000Y-57800000D01*
X97200000Y-57800000D02*
X97200000Y-60750000D01*
X97200000Y-60750000D02*
X102750000Y-60750000D01*
X97400000Y-55250000D02*
X96150000Y-55250000D01*
X108300000Y-57800000D02*
X108300000Y-60750000D01*
X108300000Y-60750000D02*
X102750000Y-60750000D01*
X109050000Y-57800000D02*
X108300000Y-57800000D01*
X96440000Y-55540000D02*
X109060000Y-55540000D01*
X109060000Y-61510000D01*
X96440000Y-61510000D01*
X96440000Y-55540000D01*
X96450000Y-55550000D02*
X98250000Y-55550000D01*
X98250000Y-56300000D01*
X96450000Y-56300000D01*
X96450000Y-55550000D01*
X99750000Y-55550000D02*
X105750000Y-55550000D01*
X105750000Y-56300000D01*
X99750000Y-56300000D01*
X99750000Y-55550000D01*
X107250000Y-55550000D02*
X109050000Y-55550000D01*
X109050000Y-56300000D01*
X107250000Y-56300000D01*
X107250000Y-55550000D01*
%TO.C,U2*%
X84090000Y-37440000D02*
X85910000Y-37440000D01*
X84090000Y-37490000D02*
X84090000Y-37440000D01*
X84090000Y-40560000D02*
X84090000Y-40510000D01*
X85910000Y-37440000D02*
X85910000Y-37490000D01*
X85910000Y-38610000D02*
X85910000Y-39390000D01*
X85910000Y-40510000D02*
X85910000Y-40560000D01*
X85910000Y-40560000D02*
X84090000Y-40560000D01*
X83550000Y-37490000D02*
X83310000Y-37160000D01*
X83790000Y-37160000D01*
X83550000Y-37490000D01*
G36*
X83550000Y-37490000D02*
G01*
X83310000Y-37160000D01*
X83790000Y-37160000D01*
X83550000Y-37490000D01*
G37*
%TD*%
M02*
