%TF.GenerationSoftware,KiCad,Pcbnew,10.0.6*%
%TF.CreationDate,2026-09-10T01:25:26+05:30*%
%TF.ProjectId,carrier,63617272-6965-4722-9e6b-696361645f70,rev?*%
%TF.SameCoordinates,Original*%
%TF.FileFunction,Soldermask,Top*%
%TF.FilePolarity,Negative*%
%FSLAX46Y46*%
G04 Gerber Fmt 4.6, Leading zero omitted, Abs format (unit mm)*
G04 Created by KiCad (PCBNEW 10.0.6) date 2026-09-10 01:25:26*
%MOMM*%
%LPD*%
G01*
G04 APERTURE LIST*
G04 Aperture macros list*
%AMRoundRect*
0 Rectangle with rounded corners*
0 $1 Rounding radius*
0 $2 $3 $4 $5 $6 $7 $8 $9 X,Y pos of 4 corners*
0 Add a 4 corners polygon primitive as box body*
4,1,4,$2,$3,$4,$5,$6,$7,$8,$9,$2,$3,0*
0 Add four circle primitives for the rounded corners*
1,1,$1+$1,$2,$3*
1,1,$1+$1,$4,$5*
1,1,$1+$1,$6,$7*
1,1,$1+$1,$8,$9*
0 Add four rect primitives between the rounded corners*
20,1,$1+$1,$2,$3,$4,$5,0*
20,1,$1+$1,$4,$5,$6,$7,0*
20,1,$1+$1,$6,$7,$8,$9,0*
20,1,$1+$1,$8,$9,$2,$3,0*%
G04 Aperture macros list end*
%ADD10RoundRect,0.250001X1.099999X-1.099999X1.099999X1.099999X-1.099999X1.099999X-1.099999X-1.099999X0*%
%ADD11C,2.700000*%
%ADD12RoundRect,0.250000X-0.262500X-0.450000X0.262500X-0.450000X0.262500X0.450000X-0.262500X0.450000X0*%
%ADD13RoundRect,0.150000X-0.825000X-0.150000X0.825000X-0.150000X0.825000X0.150000X-0.825000X0.150000X0*%
%ADD14RoundRect,0.250000X-0.250000X-0.475000X0.250000X-0.475000X0.250000X0.475000X-0.250000X0.475000X0*%
%ADD15RoundRect,0.250000X-0.312500X-0.625000X0.312500X-0.625000X0.312500X0.625000X-0.312500X0.625000X0*%
%ADD16RoundRect,0.250000X-0.600000X-0.725000X0.600000X-0.725000X0.600000X0.725000X-0.600000X0.725000X0*%
%ADD17O,1.700000X1.950000*%
%ADD18RoundRect,0.250001X-1.099999X-1.099999X1.099999X-1.099999X1.099999X1.099999X-1.099999X1.099999X0*%
%ADD19RoundRect,0.250000X0.450000X-0.262500X0.450000X0.262500X-0.450000X0.262500X-0.450000X-0.262500X0*%
%ADD20C,3.200000*%
%ADD21RoundRect,0.250000X-0.550000X-0.550000X0.550000X-0.550000X0.550000X0.550000X-0.550000X0.550000X0*%
%ADD22C,1.600000*%
%ADD23RoundRect,0.250000X-0.600000X-0.750000X0.600000X-0.750000X0.600000X0.750000X-0.600000X0.750000X0*%
%ADD24O,1.700000X2.000000*%
%ADD25RoundRect,0.250000X-1.000000X-0.900000X1.000000X-0.900000X1.000000X0.900000X-1.000000X0.900000X0*%
%ADD26RoundRect,0.250000X-0.475000X0.250000X-0.475000X-0.250000X0.475000X-0.250000X0.475000X0.250000X0*%
%ADD27RoundRect,0.150000X-0.512500X-0.150000X0.512500X-0.150000X0.512500X0.150000X-0.512500X0.150000X0*%
%ADD28R,1.800000X1.800000*%
%ADD29C,1.800000*%
%ADD30R,2.460000X2.310000*%
%ADD31RoundRect,0.100000X-0.687500X-0.100000X0.687500X-0.100000X0.687500X0.100000X-0.687500X0.100000X0*%
%ADD32RoundRect,0.250000X0.475000X-0.250000X0.475000X0.250000X-0.475000X0.250000X-0.475000X-0.250000X0*%
%ADD33RoundRect,0.250000X-0.325000X-0.650000X0.325000X-0.650000X0.325000X0.650000X-0.325000X0.650000X0*%
G04 APERTURE END LIST*
D10*
%TO.C,J9*%
X151000000Y-43000000D03*
D11*
X151000000Y-39040000D03*
%TD*%
D12*
%TO.C,R2*%
X90087500Y-81000000D03*
X91912500Y-81000000D03*
%TD*%
%TO.C,R16*%
X93087500Y-47000000D03*
X94912500Y-47000000D03*
%TD*%
D13*
%TO.C,U5*%
X84525000Y-52190000D03*
X84525000Y-53460000D03*
X84525000Y-54730000D03*
X84525000Y-56000000D03*
X84525000Y-57270000D03*
X84525000Y-58540000D03*
X84525000Y-59810000D03*
X89475000Y-59810000D03*
X89475000Y-58540000D03*
X89475000Y-57270000D03*
X89475000Y-56000000D03*
X89475000Y-54730000D03*
X89475000Y-53460000D03*
X89475000Y-52190000D03*
%TD*%
D14*
%TO.C,C4*%
X140050000Y-38000000D03*
X141950000Y-38000000D03*
%TD*%
D15*
%TO.C,R8*%
X108537500Y-85000000D03*
X111462500Y-85000000D03*
%TD*%
D12*
%TO.C,R18*%
X93087500Y-61000000D03*
X94912500Y-61000000D03*
%TD*%
%TO.C,R11*%
X87087500Y-35000000D03*
X88912500Y-35000000D03*
%TD*%
D10*
%TO.C,J8*%
X151000000Y-59000000D03*
D11*
X151000000Y-55040000D03*
%TD*%
D16*
%TO.C,J12*%
X18000000Y-11000000D03*
D17*
X20500000Y-11000000D03*
X23000000Y-11000000D03*
X25500000Y-11000000D03*
%TD*%
D12*
%TO.C,R17*%
X93087500Y-51000000D03*
X94912500Y-51000000D03*
%TD*%
D13*
%TO.C,U1*%
X72525000Y-13095000D03*
X72525000Y-14365000D03*
X72525000Y-15635000D03*
X72525000Y-16905000D03*
X77475000Y-16905000D03*
X77475000Y-15635000D03*
X77475000Y-14365000D03*
X77475000Y-13095000D03*
%TD*%
D18*
%TO.C,J7*%
X149000000Y-86000000D03*
D11*
X152960000Y-86000000D03*
%TD*%
D14*
%TO.C,C9*%
X93050000Y-56000000D03*
X94950000Y-56000000D03*
%TD*%
D12*
%TO.C,R9*%
X132087500Y-64000000D03*
X133912500Y-64000000D03*
%TD*%
D19*
%TO.C,R4*%
X95000000Y-14912500D03*
X95000000Y-13087500D03*
%TD*%
D11*
%TO.C,H8*%
X61500000Y-72500000D03*
%TD*%
D20*
%TO.C,H2*%
X155000000Y-5000000D03*
%TD*%
D12*
%TO.C,R19*%
X93087500Y-65000000D03*
X94912500Y-65000000D03*
%TD*%
D21*
%TO.C,C8*%
X126000000Y-89000000D03*
D22*
X129500000Y-89000000D03*
%TD*%
D23*
%TO.C,J5*%
X86000000Y-8000000D03*
D24*
X88500000Y-8000000D03*
%TD*%
D20*
%TO.C,H4*%
X5000000Y-95000000D03*
%TD*%
D16*
%TO.C,J10*%
X128000000Y-8000000D03*
D17*
X130500000Y-8000000D03*
X133000000Y-8000000D03*
X135500000Y-8000000D03*
%TD*%
D25*
%TO.C,D1*%
X135850000Y-90000000D03*
X140150000Y-90000000D03*
%TD*%
D12*
%TO.C,R5*%
X135087500Y-55000000D03*
X136912500Y-55000000D03*
%TD*%
%TO.C,R6*%
X135087500Y-58000000D03*
X136912500Y-58000000D03*
%TD*%
D11*
%TO.C,H7*%
X3500000Y-72500000D03*
%TD*%
%TO.C,H6*%
X61500000Y-23500000D03*
%TD*%
D12*
%TO.C,R14*%
X132087500Y-30000000D03*
X133912500Y-30000000D03*
%TD*%
D26*
%TO.C,C1*%
X69000000Y-14050000D03*
X69000000Y-15950000D03*
%TD*%
D27*
%TO.C,U2*%
X89862500Y-74050000D03*
X89862500Y-75000000D03*
X89862500Y-75950000D03*
X92137500Y-75950000D03*
X92137500Y-74050000D03*
%TD*%
D11*
%TO.C,H5*%
X3500000Y-23500000D03*
%TD*%
D15*
%TO.C,R7*%
X108537500Y-73000000D03*
X111462500Y-73000000D03*
%TD*%
D20*
%TO.C,H1*%
X5000000Y-5000000D03*
%TD*%
D14*
%TO.C,C6*%
X130050000Y-80000000D03*
X131950000Y-80000000D03*
%TD*%
D28*
%TO.C,J2*%
X100270000Y-21095800D03*
D29*
X100270000Y-23635800D03*
X100270000Y-26175800D03*
X100270000Y-28715800D03*
X100270000Y-31255800D03*
X100270000Y-33795800D03*
X100270000Y-36335800D03*
X100270000Y-38875800D03*
X100270000Y-41415800D03*
X100270000Y-43955800D03*
X100270000Y-46495800D03*
X100270000Y-49035800D03*
X100270000Y-51575800D03*
X100270000Y-54115800D03*
X100270000Y-56655800D03*
X100270000Y-59195800D03*
X100270000Y-61735800D03*
X100270000Y-64275800D03*
X100270000Y-66815800D03*
%TD*%
D30*
%TO.C,U3*%
X123000000Y-79000000D03*
D31*
X120137500Y-76725000D03*
X120137500Y-77375000D03*
X120137500Y-78025000D03*
X120137500Y-78675000D03*
X120137500Y-79325000D03*
X120137500Y-79975000D03*
X120137500Y-80625000D03*
X120137500Y-81275000D03*
X125862500Y-81275000D03*
X125862500Y-80625000D03*
X125862500Y-79975000D03*
X125862500Y-79325000D03*
X125862500Y-78675000D03*
X125862500Y-78025000D03*
X125862500Y-77375000D03*
X125862500Y-76725000D03*
%TD*%
D12*
%TO.C,R12*%
X87087500Y-38000000D03*
X88912500Y-38000000D03*
%TD*%
D14*
%TO.C,C7*%
X128050000Y-74000000D03*
X129950000Y-74000000D03*
%TD*%
D16*
%TO.C,J3*%
X84000000Y-91000000D03*
D17*
X86500000Y-91000000D03*
X89000000Y-91000000D03*
X91500000Y-91000000D03*
%TD*%
D12*
%TO.C,R1*%
X85087500Y-76000000D03*
X86912500Y-76000000D03*
%TD*%
D28*
%TO.C,J4*%
X123130000Y-21121000D03*
D29*
X123130000Y-23661000D03*
X123130000Y-26201000D03*
X123130000Y-28741000D03*
X123130000Y-31281000D03*
X123130000Y-33821000D03*
X123130000Y-36361000D03*
X123130000Y-38901000D03*
X123130000Y-41441000D03*
X123130000Y-43981000D03*
X123130000Y-46521000D03*
X123130000Y-49061000D03*
X123130000Y-51601000D03*
X123130000Y-54141000D03*
X123130000Y-56681000D03*
X123130000Y-59221000D03*
X123130000Y-61761000D03*
X123130000Y-64301000D03*
X123130000Y-66841000D03*
%TD*%
D20*
%TO.C,H3*%
X155000000Y-95000000D03*
%TD*%
D12*
%TO.C,R15*%
X139087500Y-30000000D03*
X140912500Y-30000000D03*
%TD*%
D23*
%TO.C,J6*%
X110000000Y-91000000D03*
D24*
X112500000Y-91000000D03*
%TD*%
D32*
%TO.C,C3*%
X95000000Y-75950000D03*
X95000000Y-74050000D03*
%TD*%
D13*
%TO.C,U4*%
X134525000Y-41190000D03*
X134525000Y-42460000D03*
X134525000Y-43730000D03*
X134525000Y-45000000D03*
X134525000Y-46270000D03*
X134525000Y-47540000D03*
X134525000Y-48810000D03*
X139475000Y-48810000D03*
X139475000Y-47540000D03*
X139475000Y-46270000D03*
X139475000Y-45000000D03*
X139475000Y-43730000D03*
X139475000Y-42460000D03*
X139475000Y-41190000D03*
%TD*%
D12*
%TO.C,R3*%
X84087500Y-81000000D03*
X85912500Y-81000000D03*
%TD*%
D16*
%TO.C,J13*%
X135000000Y-22000000D03*
D17*
X137500000Y-22000000D03*
X140000000Y-22000000D03*
X142500000Y-22000000D03*
X145000000Y-22000000D03*
%TD*%
D12*
%TO.C,R13*%
X87087500Y-41000000D03*
X88912500Y-41000000D03*
%TD*%
D33*
%TO.C,C5*%
X129525000Y-77000000D03*
X132475000Y-77000000D03*
%TD*%
D26*
%TO.C,C2*%
X81000000Y-14050000D03*
X81000000Y-15950000D03*
%TD*%
D16*
%TO.C,J11*%
X143000000Y-13000000D03*
D17*
X145500000Y-13000000D03*
X148000000Y-13000000D03*
X150500000Y-13000000D03*
%TD*%
D12*
%TO.C,R10*%
X87087500Y-32000000D03*
X88912500Y-32000000D03*
%TD*%
D28*
%TO.C,J1*%
X8370000Y-24770000D03*
D29*
X8370000Y-22230000D03*
X10910000Y-24770000D03*
X10910000Y-22230000D03*
X13450000Y-24770000D03*
X13450000Y-22230000D03*
X15990000Y-24770000D03*
X15990000Y-22230000D03*
X18530000Y-24770000D03*
X18530000Y-22230000D03*
X21070000Y-24770000D03*
X21070000Y-22230000D03*
X23610000Y-24770000D03*
X23610000Y-22230000D03*
X26150000Y-24770000D03*
X26150000Y-22230000D03*
X28690000Y-24770000D03*
X28690000Y-22230000D03*
X31230000Y-24770000D03*
X31230000Y-22230000D03*
X33770000Y-24770000D03*
X33770000Y-22230000D03*
X36310000Y-24770000D03*
X36310000Y-22230000D03*
X38850000Y-24770000D03*
X38850000Y-22230000D03*
X41390000Y-24770000D03*
X41390000Y-22230000D03*
X43930000Y-24770000D03*
X43930000Y-22230000D03*
X46470000Y-24770000D03*
X46470000Y-22230000D03*
X49010000Y-24770000D03*
X49010000Y-22230000D03*
X51550000Y-24770000D03*
X51550000Y-22230000D03*
X54090000Y-24770000D03*
X54090000Y-22230000D03*
X56630000Y-24770000D03*
X56630000Y-22230000D03*
%TD*%
M02*
