%TF.GenerationSoftware,KiCad,Pcbnew,10.0.6*%
%TF.CreationDate,2026-09-10T01:25:26+05:30*%
%TF.ProjectId,carrier,63617272-6965-4722-9e6b-696361645f70,rev?*%
%TF.SameCoordinates,Original*%
%TF.FileFunction,Soldermask,Bot*%
%TF.FilePolarity,Negative*%
%FSLAX46Y46*%
G04 Gerber Fmt 4.6, Leading zero omitted, Abs format (unit mm)*
G04 Created by KiCad (PCBNEW 10.0.6) date 2026-09-10 01:25:26*
%MOMM*%
%LPD*%
G01*
G04 APERTURE LIST*
G04 Aperture macros list*
%AMRoundRect*
0 Rectangle with rounded corners*
0 $1 Rounding radius*
0 $2 $3 $4 $5 $6 $7 $8 $9 X,Y pos of 4 corners*
0 Add a 4 corners polygon primitive as box body*
4,1,4,$2,$3,$4,$5,$6,$7,$8,$9,$2,$3,0*
0 Add four circle primitives for the rounded corners*
1,1,$1+$1,$2,$3*
1,1,$1+$1,$4,$5*
1,1,$1+$1,$6,$7*
1,1,$1+$1,$8,$9*
0 Add four rect primitives between the rounded corners*
20,1,$1+$1,$2,$3,$4,$5,0*
20,1,$1+$1,$4,$5,$6,$7,0*
20,1,$1+$1,$6,$7,$8,$9,0*
20,1,$1+$1,$8,$9,$2,$3,0*%
G04 Aperture macros list end*
%ADD10RoundRect,0.250001X1.099999X-1.099999X1.099999X1.099999X-1.099999X1.099999X-1.099999X-1.099999X0*%
%ADD11C,2.700000*%
%ADD12RoundRect,0.250000X-0.600000X-0.725000X0.600000X-0.725000X0.600000X0.725000X-0.600000X0.725000X0*%
%ADD13O,1.700000X1.950000*%
%ADD14RoundRect,0.250001X-1.099999X-1.099999X1.099999X-1.099999X1.099999X1.099999X-1.099999X1.099999X0*%
%ADD15C,3.200000*%
%ADD16RoundRect,0.250000X-0.550000X-0.550000X0.550000X-0.550000X0.550000X0.550000X-0.550000X0.550000X0*%
%ADD17C,1.600000*%
%ADD18RoundRect,0.250000X-0.600000X-0.750000X0.600000X-0.750000X0.600000X0.750000X-0.600000X0.750000X0*%
%ADD19O,1.700000X2.000000*%
%ADD20R,1.800000X1.800000*%
%ADD21C,1.800000*%
G04 APERTURE END LIST*
D10*
%TO.C,J9*%
X151000000Y-43000000D03*
D11*
X151000000Y-39040000D03*
%TD*%
D10*
%TO.C,J8*%
X151000000Y-59000000D03*
D11*
X151000000Y-55040000D03*
%TD*%
D12*
%TO.C,J12*%
X18000000Y-11000000D03*
D13*
X20500000Y-11000000D03*
X23000000Y-11000000D03*
X25500000Y-11000000D03*
%TD*%
D14*
%TO.C,J7*%
X149000000Y-86000000D03*
D11*
X152960000Y-86000000D03*
%TD*%
%TO.C,H8*%
X61500000Y-72500000D03*
%TD*%
D15*
%TO.C,H2*%
X155000000Y-5000000D03*
%TD*%
D16*
%TO.C,C8*%
X126000000Y-89000000D03*
D17*
X129500000Y-89000000D03*
%TD*%
D18*
%TO.C,J5*%
X86000000Y-8000000D03*
D19*
X88500000Y-8000000D03*
%TD*%
D15*
%TO.C,H4*%
X5000000Y-95000000D03*
%TD*%
D12*
%TO.C,J10*%
X128000000Y-8000000D03*
D13*
X130500000Y-8000000D03*
X133000000Y-8000000D03*
X135500000Y-8000000D03*
%TD*%
D11*
%TO.C,H7*%
X3500000Y-72500000D03*
%TD*%
%TO.C,H6*%
X61500000Y-23500000D03*
%TD*%
%TO.C,H5*%
X3500000Y-23500000D03*
%TD*%
D15*
%TO.C,H1*%
X5000000Y-5000000D03*
%TD*%
D20*
%TO.C,J2*%
X100270000Y-21095800D03*
D21*
X100270000Y-23635800D03*
X100270000Y-26175800D03*
X100270000Y-28715800D03*
X100270000Y-31255800D03*
X100270000Y-33795800D03*
X100270000Y-36335800D03*
X100270000Y-38875800D03*
X100270000Y-41415800D03*
X100270000Y-43955800D03*
X100270000Y-46495800D03*
X100270000Y-49035800D03*
X100270000Y-51575800D03*
X100270000Y-54115800D03*
X100270000Y-56655800D03*
X100270000Y-59195800D03*
X100270000Y-61735800D03*
X100270000Y-64275800D03*
X100270000Y-66815800D03*
%TD*%
D12*
%TO.C,J3*%
X84000000Y-91000000D03*
D13*
X86500000Y-91000000D03*
X89000000Y-91000000D03*
X91500000Y-91000000D03*
%TD*%
D20*
%TO.C,J4*%
X123130000Y-21121000D03*
D21*
X123130000Y-23661000D03*
X123130000Y-26201000D03*
X123130000Y-28741000D03*
X123130000Y-31281000D03*
X123130000Y-33821000D03*
X123130000Y-36361000D03*
X123130000Y-38901000D03*
X123130000Y-41441000D03*
X123130000Y-43981000D03*
X123130000Y-46521000D03*
X123130000Y-49061000D03*
X123130000Y-51601000D03*
X123130000Y-54141000D03*
X123130000Y-56681000D03*
X123130000Y-59221000D03*
X123130000Y-61761000D03*
X123130000Y-64301000D03*
X123130000Y-66841000D03*
%TD*%
D15*
%TO.C,H3*%
X155000000Y-95000000D03*
%TD*%
D18*
%TO.C,J6*%
X110000000Y-91000000D03*
D19*
X112500000Y-91000000D03*
%TD*%
D12*
%TO.C,J13*%
X135000000Y-22000000D03*
D13*
X137500000Y-22000000D03*
X140000000Y-22000000D03*
X142500000Y-22000000D03*
X145000000Y-22000000D03*
%TD*%
D12*
%TO.C,J11*%
X143000000Y-13000000D03*
D13*
X145500000Y-13000000D03*
X148000000Y-13000000D03*
X150500000Y-13000000D03*
%TD*%
D20*
%TO.C,J1*%
X8370000Y-24770000D03*
D21*
X8370000Y-22230000D03*
X10910000Y-24770000D03*
X10910000Y-22230000D03*
X13450000Y-24770000D03*
X13450000Y-22230000D03*
X15990000Y-24770000D03*
X15990000Y-22230000D03*
X18530000Y-24770000D03*
X18530000Y-22230000D03*
X21070000Y-24770000D03*
X21070000Y-22230000D03*
X23610000Y-24770000D03*
X23610000Y-22230000D03*
X26150000Y-24770000D03*
X26150000Y-22230000D03*
X28690000Y-24770000D03*
X28690000Y-22230000D03*
X31230000Y-24770000D03*
X31230000Y-22230000D03*
X33770000Y-24770000D03*
X33770000Y-22230000D03*
X36310000Y-24770000D03*
X36310000Y-22230000D03*
X38850000Y-24770000D03*
X38850000Y-22230000D03*
X41390000Y-24770000D03*
X41390000Y-22230000D03*
X43930000Y-24770000D03*
X43930000Y-22230000D03*
X46470000Y-24770000D03*
X46470000Y-22230000D03*
X49010000Y-24770000D03*
X49010000Y-22230000D03*
X51550000Y-24770000D03*
X51550000Y-22230000D03*
X54090000Y-24770000D03*
X54090000Y-22230000D03*
X56630000Y-24770000D03*
X56630000Y-22230000D03*
%TD*%
M02*
