M48
; DRILL file KiCad 10.0.6 date 2026-09-10T01:25:27
; FORMAT={-:-/ absolute / metric / decimal}
; #@! TF.CreationDate,2026-09-10T01:25:27+05:30
; #@! TF.GenerationSoftware,Kicad,Pcbnew,10.0.6
; #@! TF.FileFunction,Plated,1,2,PTH
FMAT,2
METRIC
; #@! TA.AperFunction,Plated,PTH,ComponentDrill
T1C0.200
; #@! TA.AperFunction,Plated,PTH,ViaDrill
T2C0.300
; #@! TA.AperFunction,Plated,PTH,ViaDrill
T3C0.600
; #@! TA.AperFunction,Plated,PTH,ComponentDrill
T4C0.800
; #@! TA.AperFunction,Plated,PTH,ComponentDrill
T5C0.950
; #@! TA.AperFunction,Plated,PTH,ComponentDrill
T6C1.000
; #@! TA.AperFunction,Plated,PTH,ComponentDrill
T7C1.020
; #@! TA.AperFunction,Plated,PTH,ComponentDrill
T8C1.700
%
G90
G05
T1
X122.0Y-77.2
X122.0Y-78.4
X122.0Y-79.6
X122.0Y-80.8
X123.0Y-77.2
X123.0Y-78.4
X123.0Y-79.6
X123.0Y-80.8
X124.0Y-77.2
X124.0Y-78.4
X124.0Y-79.6
X124.0Y-80.8
T2
X67.715Y-15.448
X71.014Y-15.672
X78.986Y-15.635
X82.029Y-14.889
X83.159Y-57.876
X85.977Y-76.936
X86.023Y-75.064
X86.057Y-53.389
X87.087Y-42.24
X87.731Y-77.065
X87.932Y-56.238
X89.065Y-77.846
X90.087Y-82.25
X91.001Y-80.089
X91.882Y-68.257
X92.15Y-50.062
X92.167Y-64.08
X92.248Y-52.854
X93.264Y-75.275
X93.754Y-15.448
X94.491Y-73.003
X95.342Y-52.24
X96.267Y-74.186
X96.426Y-46.504
X99.503Y-60.466
X109.983Y-42.711
X110.418Y-86.045
X112.279Y-71.712
X114.351Y-76.489
X119.388Y-75.976
X123.713Y-82.043
X125.862Y-82.047
X126.556Y-75.975
X127.207Y-76.886
X128.0Y-80.75
X130.625Y-45.196
X130.851Y-43.981
X131.003Y-64.719
X131.153Y-30.936
X131.25Y-76.935
X133.166Y-48.204
X133.197Y-43.089
X134.479Y-50.464
X135.086Y-59.255
X138.012Y-45.495
X139.088Y-28.765
X139.475Y-49.662
X140.825Y-43.066
X141.0Y-45.0
X142.869Y-38.921
T3
X113.6Y-77.675
X113.6Y-80.325
X118.0Y-81.625
T4
X126.0Y-89.0
X129.5Y-89.0
T5
X18.0Y-11.0
X20.5Y-11.0
X23.0Y-11.0
X25.5Y-11.0
X84.0Y-91.0
X86.5Y-91.0
X89.0Y-91.0
X91.5Y-91.0
X128.0Y-8.0
X130.5Y-8.0
X133.0Y-8.0
X135.0Y-22.0
X135.5Y-8.0
X137.5Y-22.0
X140.0Y-22.0
X142.5Y-22.0
X143.0Y-13.0
X145.0Y-22.0
X145.5Y-13.0
X148.0Y-13.0
X150.5Y-13.0
T6
X86.0Y-8.0
X88.5Y-8.0
X110.0Y-91.0
X112.5Y-91.0
T7
X8.37Y-22.23
X8.37Y-24.77
X10.91Y-22.23
X10.91Y-24.77
X13.45Y-22.23
X13.45Y-24.77
X15.99Y-22.23
X15.99Y-24.77
X18.53Y-22.23
X18.53Y-24.77
X21.07Y-22.23
X21.07Y-24.77
X23.61Y-22.23
X23.61Y-24.77
X26.15Y-22.23
X26.15Y-24.77
X28.69Y-22.23
X28.69Y-24.77
X31.23Y-22.23
X31.23Y-24.77
X33.77Y-22.23
X33.77Y-24.77
X36.31Y-22.23
X36.31Y-24.77
X38.85Y-22.23
X38.85Y-24.77
X41.39Y-22.23
X41.39Y-24.77
X43.93Y-22.23
X43.93Y-24.77
X46.47Y-22.23
X46.47Y-24.77
X49.01Y-22.23
X49.01Y-24.77
X51.55Y-22.23
X51.55Y-24.77
X54.09Y-22.23
X54.09Y-24.77
X56.63Y-22.23
X56.63Y-24.77
X100.27Y-21.096
X100.27Y-23.636
X100.27Y-26.176
X100.27Y-28.716
X100.27Y-31.256
X100.27Y-33.796
X100.27Y-36.336
X100.27Y-38.876
X100.27Y-41.416
X100.27Y-43.956
X100.27Y-46.496
X100.27Y-49.036
X100.27Y-51.576
X100.27Y-54.116
X100.27Y-56.656
X100.27Y-59.196
X100.27Y-61.736
X100.27Y-64.276
X100.27Y-66.816
X123.13Y-21.121
X123.13Y-23.661
X123.13Y-26.201
X123.13Y-28.741
X123.13Y-31.281
X123.13Y-33.821
X123.13Y-36.361
X123.13Y-38.901
X123.13Y-41.441
X123.13Y-43.981
X123.13Y-46.521
X123.13Y-49.061
X123.13Y-51.601
X123.13Y-54.141
X123.13Y-56.681
X123.13Y-59.221
X123.13Y-61.761
X123.13Y-64.301
X123.13Y-66.841
T8
X149.0Y-86.0
X151.0Y-39.04
X151.0Y-43.0
X151.0Y-55.04
X151.0Y-59.0
X152.96Y-86.0
M30
